# MagicaVoxel @ ephtracy

# material
mtllib Picture.mtl
usemtl palette

# normals
vn -1 0 0
vn 1 0 0
vn 0 0 1
vn 0 0 -1
vn 0 -1 0
vn 0 1 0

# texcoords
vt 0.00976562 0.5
vt 0.0527344 0.5
vt 0.173828 0.5
vt 0.341797 0.5
vt 0.419922 0.5
vt 0.486328 0.5
vt 0.990234 0.5

# verts
v -5.5 0 1
v -5.5 0 -1
v -5.5 2 -0
v -5.5 2 -1
v -5.5 5 1
v -5.5 5 -0
v -5.5 12 1
v -5.5 12 -0
v -5.5 12 -1
v -5.5 14 -0
v -5.5 14 -1
v -4.5 12 1
v -4.5 12 -0
v -4.5 13 1
v -4.5 13 -0
v -3.5 13 1
v -3.5 13 -0
v -3.5 14 1
v -3.5 14 -0
v 1.5 13 1
v 1.5 13 -0
v 1.5 14 1
v 1.5 14 -0
v 3.5 11 1
v 3.5 11 -0
v 3.5 13 1
v 3.5 13 -0
v 4.5 10 1
v 4.5 10 -0
v 4.5 11 1
v 4.5 11 -0
v 5.5 0 1
v 5.5 0 -1
v 5.5 1 1
v 5.5 1 -0
v 5.5 3 -0
v 5.5 3 -1
v 5.5 10 1
v 5.5 10 -0
v 5.5 10 -1
v 5.5 14 -0
v 5.5 14 -1
v -5.5 0 1
v -5.5 5 1
v -5.5 12 1
v -4.5 3 1
v -4.5 5 1
v -4.5 6 1
v -4.5 7 1
v -4.5 10 1
v -4.5 12 1
v -4.5 13 1
v -3.5 1 1
v -3.5 3 1
v -3.5 4 1
v -3.5 5 1
v -3.5 6 1
v -3.5 7 1
v -3.5 8 1
v -3.5 9 1
v -3.5 10 1
v -3.5 11 1
v -3.5 12 1
v -3.5 13 1
v -3.5 14 1
v -2.5 0 1
v -2.5 1 1
v -2.5 4 1
v -2.5 5 1
v -2.5 6 1
v -2.5 7 1
v -2.5 8 1
v -2.5 9 1
v -2.5 10 1
v -2.5 11 1
v -1.5 1 1
v -1.5 4 1
v -1.5 8 1
v -1.5 9 1
v -1.5 10 1
v -1.5 12 1
v -1.5 13 1
v -0.5 1 1
v -0.5 4 1
v -0.5 5 1
v -0.5 6 1
v -0.5 7 1
v -0.5 8 1
v -0.5 9 1
v -0.5 12 1
v 0.5 3 1
v 0.5 4 1
v 0.5 5 1
v 0.5 7 1
v 0.5 8 1
v 0.5 10 1
v 1.5 1 1
v 1.5 3 1
v 1.5 4 1
v 1.5 5 1
v 1.5 7 1
v 1.5 13 1
v 1.5 14 1
v 2.5 2 1
v 2.5 5 1
v 2.5 6 1
v 2.5 7 1
v 2.5 8 1
v 2.5 10 1
v 3.5 2 1
v 3.5 4 1
v 3.5 11 1
v 3.5 13 1
v 4.5 0 1
v 4.5 1 1
v 4.5 4 1
v 4.5 6 1
v 4.5 7 1
v 4.5 10 1
v 4.5 11 1
v 5.5 0 1
v 5.5 1 1
v 5.5 10 1
v -5.5 12 -0
v -5.5 14 -0
v -4.5 12 -0
v -4.5 13 -0
v -3.5 13 -0
v -3.5 14 -0
v 1.5 13 -0
v 1.5 14 -0
v 3.5 11 -0
v 3.5 13 -0
v 4.5 10 -0
v 4.5 11 -0
v 5.5 10 -0
v 5.5 14 -0
v -5.5 0 -1
v -5.5 2 -1
v -5.5 12 -1
v -5.5 14 -1
v -4.5 0 -1
v -4.5 2 -1
v -3.5 12 -1
v -3.5 14 -1
v -1.5 4 -1
v -1.5 11 -1
v -0.5 4 -1
v -0.5 11 -1
v 0.5 4 -1
v 0.5 8 -1
v 1.5 13 -1
v 1.5 14 -1
v 2.5 4 -1
v 2.5 8 -1
v 3.5 11 -1
v 3.5 13 -1
v 4.5 0 -1
v 4.5 3 -1
v 4.5 10 -1
v 4.5 11 -1
v 5.5 0 -1
v 5.5 3 -1
v 5.5 10 -1
v 5.5 14 -1
v -5.5 0 1
v -2.5 0 1
v 4.5 0 1
v 5.5 0 1
v -4.5 0 -0
v -2.5 0 -0
v -5.5 0 -1
v -4.5 0 -1
v 4.5 0 -1
v 5.5 0 -1
v 4.5 10 1
v 5.5 10 1
v 4.5 10 -0
v 5.5 10 -0
v 3.5 11 1
v 4.5 11 1
v 3.5 11 -0
v 4.5 11 -0
v -5.5 12 1
v -4.5 12 1
v -5.5 12 -0
v -4.5 12 -0
v -4.5 13 1
v -3.5 13 1
v 1.5 13 1
v 3.5 13 1
v -4.5 13 -0
v -3.5 13 -0
v 1.5 13 -0
v 3.5 13 -0
v -3.5 14 1
v 1.5 14 1
v -5.5 14 -0
v -3.5 14 -0
v 1.5 14 -0
v 5.5 14 -0
v -5.5 14 -1
v -3.5 14 -1
v 1.5 14 -1
v 5.5 14 -1

# faces
f 3/3/1 2/3/1 1/3/1
f 4/3/1 2/3/1 3/3/1
f 5/3/1 3/3/1 1/3/1
f 6/1/1 4/1/1 3/1/1
f 6/3/1 3/3/1 5/3/1
f 7/1/1 6/1/1 5/1/1
f 8/1/1 4/1/1 6/1/1
f 8/1/1 6/1/1 7/1/1
f 9/1/1 4/1/1 8/1/1
f 10/3/1 9/3/1 8/3/1
f 11/3/1 9/3/1 10/3/1
f 14/1/1 13/1/1 12/1/1
f 15/1/1 13/1/1 14/1/1
f 18/1/1 17/1/1 16/1/1
f 19/1/1 17/1/1 18/1/1
f 20/1/2 21/1/2 22/1/2
f 22/1/2 21/1/2 23/1/2
f 24/1/2 25/1/2 26/1/2
f 26/1/2 25/1/2 27/1/2
f 28/1/2 29/1/2 30/1/2
f 30/1/2 29/1/2 31/1/2
f 32/3/2 33/3/2 34/3/2
f 34/3/2 33/3/2 35/3/2
f 34/1/2 35/1/2 36/1/2
f 35/3/2 33/3/2 36/3/2
f 36/3/2 33/3/2 37/3/2
f 34/1/2 36/1/2 38/1/2
f 36/1/2 37/1/2 38/1/2
f 38/1/2 37/1/2 39/1/2
f 39/1/2 37/1/2 40/1/2
f 39/3/2 40/3/2 41/3/2
f 41/3/2 40/3/2 42/3/2
f 46/3/3 44/3/3 43/3/3
f 47/1/3 45/1/3 44/1/3
f 47/3/3 44/3/3 46/3/3
f 48/1/3 45/1/3 47/1/3
f 49/1/3 45/1/3 48/1/3
f 50/1/3 45/1/3 49/1/3
f 51/1/3 45/1/3 50/1/3
f 53/3/3 46/3/3 43/3/3
f 54/1/3 47/1/3 46/1/3
f 54/3/3 46/3/3 53/3/3
f 54/1/3 48/1/3 47/1/3
f 55/1/3 48/1/3 54/1/3
f 56/1/3 48/1/3 55/1/3
f 57/4/3 49/4/3 48/4/3
f 57/1/3 48/1/3 56/1/3
f 58/1/3 50/1/3 49/1/3
f 58/4/3 49/4/3 57/4/3
f 59/1/3 50/1/3 58/1/3
f 60/1/3 50/1/3 59/1/3
f 61/7/3 51/7/3 50/7/3
f 61/1/3 50/1/3 60/1/3
f 62/7/3 51/7/3 61/7/3
f 63/1/3 52/1/3 51/1/3
f 63/7/3 51/7/3 62/7/3
f 64/1/3 52/1/3 63/1/3
f 66/3/3 53/3/3 43/3/3
f 67/4/3 54/4/3 53/4/3
f 67/3/3 53/3/3 66/3/3
f 67/4/3 55/4/3 54/4/3
f 68/5/3 56/5/3 55/5/3
f 68/4/3 55/4/3 67/4/3
f 69/1/3 57/1/3 56/1/3
f 69/5/3 56/5/3 68/5/3
f 69/1/3 58/1/3 57/1/3
f 70/1/3 58/1/3 69/1/3
f 71/4/3 59/4/3 58/4/3
f 71/1/3 58/1/3 70/1/3
f 72/1/3 60/1/3 59/1/3
f 72/4/3 59/4/3 71/4/3
f 73/4/3 62/4/3 61/4/3
f 73/1/3 60/1/3 72/1/3
f 73/4/3 61/4/3 60/4/3
f 74/4/3 62/4/3 73/4/3
f 75/7/3 64/7/3 63/7/3
f 75/4/3 62/4/3 74/4/3
f 75/7/3 63/7/3 62/7/3
f 76/1/3 67/1/3 66/1/3
f 76/1/3 68/1/3 67/1/3
f 77/5/3 69/5/3 68/5/3
f 77/1/3 68/1/3 76/1/3
f 78/4/3 72/4/3 71/4/3
f 78/4/3 71/4/3 70/4/3
f 78/4/3 74/4/3 73/4/3
f 78/4/3 73/4/3 72/4/3
f 79/4/3 74/4/3 78/4/3
f 80/7/3 75/7/3 74/7/3
f 80/4/3 74/4/3 79/4/3
f 81/7/3 64/7/3 75/7/3
f 81/7/3 75/7/3 80/7/3
f 82/1/3 65/1/3 64/1/3
f 82/7/3 64/7/3 81/7/3
f 83/4/3 77/4/3 76/4/3
f 83/1/3 76/1/3 66/1/3
f 84/5/3 69/5/3 77/5/3
f 84/4/3 77/4/3 83/4/3
f 85/6/3 70/6/3 69/6/3
f 85/5/3 69/5/3 84/5/3
f 86/4/3 78/4/3 70/4/3
f 86/6/3 70/6/3 85/6/3
f 87/4/3 78/4/3 86/4/3
f 88/3/3 79/3/3 78/3/3
f 88/4/3 78/4/3 87/4/3
f 89/7/3 81/7/3 80/7/3
f 89/3/3 79/3/3 88/3/3
f 89/7/3 80/7/3 79/7/3
f 90/1/3 82/1/3 81/1/3
f 90/7/3 81/7/3 89/7/3
f 91/1/3 86/1/3 85/1/3
f 91/1/3 87/1/3 86/1/3
f 91/1/3 84/1/3 83/1/3
f 91/1/3 85/1/3 84/1/3
f 92/1/3 87/1/3 91/1/3
f 93/1/3 87/1/3 92/1/3
f 94/4/3 88/4/3 87/4/3
f 94/1/3 87/1/3 93/1/3
f 95/1/3 90/1/3 89/1/3
f 95/4/3 88/4/3 94/4/3
f 95/1/3 89/1/3 88/1/3
f 96/1/3 90/1/3 95/1/3
f 97/1/3 83/1/3 66/1/3
f 97/1/3 91/1/3 83/1/3
f 98/2/3 92/2/3 91/2/3
f 98/1/3 91/1/3 97/1/3
f 99/1/3 93/1/3 92/1/3
f 99/2/3 92/2/3 98/2/3
f 100/4/3 94/4/3 93/4/3
f 100/1/3 93/1/3 99/1/3
f 101/1/3 95/1/3 94/1/3
f 101/4/3 94/4/3 100/4/3
f 102/1/3 90/1/3 96/1/3
f 102/1/3 65/1/3 82/1/3
f 102/1/3 82/1/3 90/1/3
f 103/1/3 65/1/3 102/1/3
f 104/2/3 98/2/3 97/2/3
f 104/2/3 100/2/3 99/2/3
f 104/2/3 99/2/3 98/2/3
f 105/1/3 101/1/3 100/1/3
f 105/2/3 100/2/3 104/2/3
f 106/1/3 101/1/3 105/1/3
f 107/1/3 95/1/3 101/1/3
f 107/1/3 101/1/3 106/1/3
f 108/3/3 96/3/3 95/3/3
f 108/1/3 95/1/3 107/1/3
f 109/1/3 102/1/3 96/1/3
f 109/3/3 96/3/3 108/3/3
f 110/1/3 106/1/3 105/1/3
f 110/2/3 104/2/3 97/2/3
f 110/1/3 105/1/3 104/1/3
f 111/1/3 106/1/3 110/1/3
f 112/1/3 102/1/3 109/1/3
f 112/1/3 109/1/3 108/1/3
f 112/1/3 108/1/3 107/1/3
f 113/1/3 102/1/3 112/1/3
f 114/1/3 97/1/3 66/1/3
f 115/2/3 111/2/3 110/2/3
f 115/1/3 97/1/3 114/1/3
f 115/2/3 110/2/3 97/2/3
f 116/1/3 106/1/3 111/1/3
f 116/2/3 111/2/3 115/2/3
f 117/3/3 107/3/3 106/3/3
f 117/1/3 106/1/3 116/1/3
f 118/1/3 112/1/3 107/1/3
f 118/3/3 107/3/3 117/3/3
f 119/1/3 112/1/3 118/1/3
f 120/1/3 112/1/3 119/1/3
f 121/3/3 115/3/3 114/3/3
f 122/1/3 117/1/3 116/1/3
f 122/3/3 115/3/3 121/3/3
f 122/1/3 116/1/3 115/1/3
f 122/1/3 119/1/3 118/1/3
f 122/1/3 118/1/3 117/1/3
f 123/1/3 119/1/3 122/1/3
f 126/3/3 125/3/3 124/3/3
f 127/3/3 125/3/3 126/3/3
f 128/3/3 125/3/3 127/3/3
f 129/3/3 125/3/3 128/3/3
f 133/3/3 131/3/3 130/3/3
f 135/3/3 133/3/3 132/3/3
f 136/3/3 135/3/3 134/3/3
f 137/3/3 131/3/3 133/3/3
f 137/3/3 135/3/3 136/3/3
f 137/3/3 133/3/3 135/3/3
f 138/3/4 139/3/4 142/3/4
f 139/1/4 140/1/4 143/1/4
f 142/3/4 139/3/4 143/3/4
f 140/3/4 141/3/4 144/3/4
f 143/1/4 140/1/4 144/1/4
f 142/1/4 143/1/4 144/1/4
f 144/3/4 141/3/4 145/3/4
f 142/1/4 144/1/4 146/1/4
f 144/1/4 145/1/4 146/1/4
f 146/1/4 145/1/4 147/1/4
f 142/1/4 146/1/4 148/1/4
f 146/3/4 147/3/4 148/3/4
f 147/1/4 145/1/4 149/1/4
f 148/3/4 147/3/4 149/3/4
f 142/1/4 148/1/4 150/1/4
f 148/1/4 149/1/4 150/1/4
f 150/1/4 149/1/4 151/1/4
f 149/1/4 145/1/4 152/1/4
f 151/1/4 149/1/4 152/1/4
f 152/1/4 145/1/4 153/1/4
f 150/3/4 151/3/4 154/3/4
f 142/1/4 150/1/4 154/1/4
f 151/1/4 152/1/4 155/1/4
f 154/3/4 151/3/4 155/3/4
f 154/1/4 155/1/4 156/1/4
f 155/1/4 152/1/4 156/1/4
f 152/3/4 153/3/4 157/3/4
f 156/1/4 152/1/4 157/1/4
f 154/1/4 156/1/4 158/1/4
f 142/1/4 154/1/4 158/1/4
f 158/1/4 156/1/4 159/1/4
f 159/1/4 156/1/4 160/1/4
f 156/3/4 157/3/4 161/3/4
f 160/1/4 156/1/4 161/1/4
f 158/3/4 159/3/4 162/3/4
f 159/1/4 160/1/4 163/1/4
f 162/3/4 159/3/4 163/3/4
f 160/3/4 161/3/4 164/3/4
f 163/1/4 160/1/4 164/1/4
f 157/3/4 153/3/4 165/3/4
f 164/3/4 161/3/4 165/3/4
f 161/3/4 157/3/4 165/3/4
f 170/3/5 167/3/5 166/3/5
f 171/1/5 168/1/5 167/1/5
f 171/3/5 167/3/5 170/3/5
f 172/3/5 170/3/5 166/3/5
f 173/1/5 171/1/5 170/1/5
f 173/3/5 170/3/5 172/3/5
f 174/3/5 169/3/5 168/3/5
f 174/1/5 171/1/5 173/1/5
f 174/1/5 168/1/5 171/1/5
f 175/3/5 169/3/5 174/3/5
f 176/1/6 177/1/6 178/1/6
f 178/1/6 177/1/6 179/1/6
f 180/1/6 181/1/6 182/1/6
f 182/1/6 181/1/6 183/1/6
f 184/1/6 185/1/6 186/1/6
f 186/1/6 185/1/6 187/1/6
f 188/1/6 189/1/6 192/1/6
f 192/1/6 189/1/6 193/1/6
f 190/1/6 191/1/6 194/1/6
f 194/1/6 191/1/6 195/1/6
f 196/1/6 197/1/6 199/1/6
f 199/1/6 197/1/6 200/1/6
f 198/3/6 199/3/6 202/3/6
f 199/1/6 200/1/6 203/1/6
f 202/3/6 199/3/6 203/3/6
f 200/3/6 201/3/6 204/3/6
f 203/1/6 200/1/6 204/1/6
f 204/3/6 201/3/6 205/3/6
