# MagicaVoxel @ ephtracy

# material
mtllib lamp.mtl
usemtl palette

# normals
vn -1 0 0
vn 1 0 0
vn 0 0 1
vn 0 0 -1
vn 0 -1 0
vn 0 1 0

# texcoords
vt 0.00585938 0.5
vt 0.0214844 0.5
vt 0.0410156 0.5

# verts
v -3 3 -0
v -3 3 -2
v -3 4 -0
v -3 4 -2
v -2 1 -0
v -2 1 -2
v -2 3 1
v -2 3 -0
v -2 3 -2
v -2 4 1
v -2 4 -0
v -1 0 -0
v -1 0 -2
v -1 1 1
v -1 1 -0
v -1 1 -2
v -1 3 2
v -1 3 1
v -1 3 -0
v -1 3 -2
v -1 4 2
v -1 4 1
v -1 4 -0
v -1 4 -2
v 1 3 1
v 1 3 -0
v 1 4 1
v 1 4 -0
v 2 3 -0
v 2 3 -2
v 2 4 -0
v 2 4 -2
v -2 3 -0
v -2 3 -2
v -2 4 -0
v -2 4 -2
v -1 3 1
v -1 3 -0
v -1 4 1
v -1 4 -0
v 1 0 -0
v 1 0 -2
v 1 1 1
v 1 1 -0
v 1 1 -2
v 1 3 2
v 1 3 1
v 1 3 -0
v 1 3 -2
v 1 4 2
v 1 4 1
v 1 4 -0
v 1 4 -2
v 2 1 -0
v 2 1 -2
v 2 3 1
v 2 3 -0
v 2 3 -2
v 2 4 1
v 2 4 -0
v 3 3 -0
v 3 3 -2
v 3 4 -0
v 3 4 -2
v -1 3 2
v -1 4 2
v 1 3 2
v 1 4 2
v -2 3 1
v -2 4 1
v -1 1 1
v -1 3 1
v -1 4 1
v 1 1 1
v 1 3 1
v 1 4 1
v 2 3 1
v 2 4 1
v -3 3 -0
v -3 4 -0
v -2 1 -0
v -2 3 -0
v -2 4 -0
v -1 0 -0
v -1 1 -0
v -1 3 -0
v -1 4 -0
v 1 0 -0
v 1 1 -0
v 1 3 -0
v 1 4 -0
v 2 1 -0
v 2 3 -0
v 2 4 -0
v 3 3 -0
v 3 4 -0
v -1 3 1
v -1 4 1
v 1 3 1
v 1 4 1
v -2 3 -0
v -2 4 -0
v -1 3 -0
v -1 4 -0
v 1 3 -0
v 1 4 -0
v 2 3 -0
v 2 4 -0
v -3 3 -2
v -3 4 -2
v -2 1 -2
v -2 3 -2
v -2 4 -2
v -1 0 -2
v -1 1 -2
v -1 2 -2
v -1 3 -2
v -1 4 -2
v 1 0 -2
v 1 1 -2
v 1 2 -2
v 1 3 -2
v 1 4 -2
v 2 1 -2
v 2 3 -2
v 2 4 -2
v 3 3 -2
v 3 4 -2
v -1 0 -0
v 1 0 -0
v -1 0 -2
v 1 0 -2
v -1 1 1
v 1 1 1
v -2 1 -0
v -1 1 -0
v 1 1 -0
v 2 1 -0
v -2 1 -2
v -1 1 -2
v 1 1 -2
v 2 1 -2
v -1 3 2
v 1 3 2
v -2 3 1
v -1 3 1
v 1 3 1
v 2 3 1
v -3 3 -0
v -2 3 -0
v -1 3 -0
v 1 3 -0
v 2 3 -0
v 3 3 -0
v -3 3 -2
v -2 3 -2
v 2 3 -2
v 3 3 -2
v -1 3 1
v 1 3 1
v -2 3 -0
v -1 3 -0
v 1 3 -0
v 2 3 -0
v -2 3 -2
v -1 3 -2
v 1 3 -2
v 2 3 -2
v -1 4 2
v 1 4 2
v -2 4 1
v -1 4 1
v 1 4 1
v 2 4 1
v -3 4 -0
v -2 4 -0
v -1 4 -0
v 1 4 -0
v 2 4 -0
v 3 4 -0
v -3 4 -2
v -2 4 -2
v -1 4 -2
v 1 4 -2
v 2 4 -2
v 3 4 -2

# faces
f 3/3/1 2/3/1 1/3/1
f 4/3/1 2/3/1 3/3/1
f 8/1/1 6/1/1 5/1/1
f 9/1/1 6/1/1 8/1/1
f 10/3/1 8/3/1 7/3/1
f 11/3/1 8/3/1 10/3/1
f 15/1/1 13/1/1 12/1/1
f 16/1/1 13/1/1 15/1/1
f 18/1/1 15/1/1 14/1/1
f 19/1/1 15/1/1 18/1/1
f 21/3/1 18/3/1 17/3/1
f 22/3/1 18/3/1 21/3/1
f 23/2/1 20/2/1 19/2/1
f 24/2/1 20/2/1 23/2/1
f 27/3/1 26/3/1 25/3/1
f 28/3/1 26/3/1 27/3/1
f 31/3/1 30/3/1 29/3/1
f 32/3/1 30/3/1 31/3/1
f 33/3/2 34/3/2 35/3/2
f 35/3/2 34/3/2 36/3/2
f 37/3/2 38/3/2 39/3/2
f 39/3/2 38/3/2 40/3/2
f 41/1/2 42/1/2 44/1/2
f 44/1/2 42/1/2 45/1/2
f 43/1/2 44/1/2 47/1/2
f 47/1/2 44/1/2 48/1/2
f 46/3/2 47/3/2 50/3/2
f 50/3/2 47/3/2 51/3/2
f 48/2/2 49/2/2 52/2/2
f 52/2/2 49/2/2 53/2/2
f 54/1/2 55/1/2 57/1/2
f 57/1/2 55/1/2 58/1/2
f 56/3/2 57/3/2 59/3/2
f 59/3/2 57/3/2 60/3/2
f 61/3/2 62/3/2 63/3/2
f 63/3/2 62/3/2 64/3/2
f 67/3/3 66/3/3 65/3/3
f 68/3/3 66/3/3 67/3/3
f 72/3/3 70/3/3 69/3/3
f 73/3/3 70/3/3 72/3/3
f 74/1/3 72/1/3 71/1/3
f 75/1/3 72/1/3 74/1/3
f 77/3/3 76/3/3 75/3/3
f 78/3/3 76/3/3 77/3/3
f 82/3/3 80/3/3 79/3/3
f 83/3/3 80/3/3 82/3/3
f 85/1/3 82/1/3 81/1/3
f 86/1/3 82/1/3 85/1/3
f 88/1/3 85/1/3 84/1/3
f 89/1/3 85/1/3 88/1/3
f 90/2/3 87/2/3 86/2/3
f 91/2/3 87/2/3 90/2/3
f 92/1/3 90/1/3 89/1/3
f 93/1/3 90/1/3 92/1/3
f 95/3/3 94/3/3 93/3/3
f 96/3/3 94/3/3 95/3/3
f 97/3/4 98/3/4 99/3/4
f 99/3/4 98/3/4 100/3/4
f 101/3/4 102/3/4 103/3/4
f 103/3/4 102/3/4 104/3/4
f 105/3/4 106/3/4 107/3/4
f 107/3/4 106/3/4 108/3/4
f 109/3/4 110/3/4 112/3/4
f 112/3/4 110/3/4 113/3/4
f 111/1/4 112/1/4 115/1/4
f 115/1/4 112/1/4 116/1/4
f 116/1/4 112/1/4 117/1/4
f 114/1/4 115/1/4 119/1/4
f 115/1/4 116/1/4 119/1/4
f 119/1/4 116/1/4 120/1/4
f 117/2/4 118/2/4 121/2/4
f 120/1/4 116/1/4 121/1/4
f 116/2/4 117/2/4 121/2/4
f 121/2/4 118/2/4 122/2/4
f 122/2/4 118/2/4 123/2/4
f 120/1/4 121/1/4 124/1/4
f 121/1/4 122/1/4 124/1/4
f 124/1/4 122/1/4 125/1/4
f 125/3/4 126/3/4 127/3/4
f 127/3/4 126/3/4 128/3/4
f 131/1/5 130/1/5 129/1/5
f 132/1/5 130/1/5 131/1/5
f 136/1/5 134/1/5 133/1/5
f 137/1/5 134/1/5 136/1/5
f 139/1/5 136/1/5 135/1/5
f 140/1/5 136/1/5 139/1/5
f 141/1/5 138/1/5 137/1/5
f 142/1/5 138/1/5 141/1/5
f 146/3/5 144/3/5 143/3/5
f 147/3/5 144/3/5 146/3/5
f 150/3/5 146/3/5 145/3/5
f 151/3/5 146/3/5 150/3/5
f 152/3/5 148/3/5 147/3/5
f 153/3/5 148/3/5 152/3/5
f 155/3/5 150/3/5 149/3/5
f 156/3/5 150/3/5 155/3/5
f 157/3/5 154/3/5 153/3/5
f 158/3/5 154/3/5 157/3/5
f 159/1/6 160/1/6 162/1/6
f 162/1/6 160/1/6 163/1/6
f 161/1/6 162/1/6 165/1/6
f 165/1/6 162/1/6 166/1/6
f 163/1/6 164/1/6 167/1/6
f 167/1/6 164/1/6 168/1/6
f 169/3/6 170/3/6 172/3/6
f 172/3/6 170/3/6 173/3/6
f 171/3/6 172/3/6 176/3/6
f 176/3/6 172/3/6 177/3/6
f 173/3/6 174/3/6 178/3/6
f 178/3/6 174/3/6 179/3/6
f 175/3/6 176/3/6 181/3/6
f 181/3/6 176/3/6 182/3/6
f 177/2/6 178/2/6 183/2/6
f 183/2/6 178/2/6 184/2/6
f 179/3/6 180/3/6 185/3/6
f 185/3/6 180/3/6 186/3/6
