# MagicaVoxel @ ephtracy

# material
mtllib snake belly.mtl
usemtl palette

# normals
vn -1 0 0
vn 1 0 0
vn 0 0 1
vn 0 0 -1
vn 0 -1 0
vn 0 1 0

# texcoords
vt 0.208984 0.5
vt 0.966797 0.5
vt 0.982422 0.5
vt 0.990234 0.5

# verts
v -4 4 -0
v -4 4 -1
v -4 6 -0
v -4 6 -1
v -3 3 -0
v -3 3 -1
v -3 4 -0
v -3 4 -1
v -3 4 -2
v -3 6 -0
v -3 6 -1
v -3 6 -2
v -3 7 -0
v -3 7 -1
v -2 2 -0
v -2 2 -1
v -2 3 -0
v -2 3 -1
v -2 3 -2
v -2 4 -1
v -2 4 -2
v -2 6 -1
v -2 6 -2
v -2 7 -1
v -2 7 -2
v -1 0 2
v -1 0 1
v -1 0 -1
v -1 1 -1
v -1 1 -2
v -1 2 2
v -1 2 1
v -1 2 -0
v -1 2 -1
v -1 3 1
v -1 3 -0
v -1 3 -1
v -1 3 -2
v -1 5 1
v -1 5 -0
v -1 7 1
v -1 7 -0
v -1 7 -1
v -1 7 -2
v -1 8 -1
v -1 8 -2
v 1 0 2
v 1 0 1
v 1 0 -1
v 1 1 -1
v 1 1 -2
v 1 2 2
v 1 2 1
v 1 2 -0
v 1 2 -1
v 1 3 1
v 1 3 -0
v 1 3 -1
v 1 3 -2
v 1 5 1
v 1 5 -0
v 1 7 1
v 1 7 -0
v 1 7 -1
v 1 7 -2
v 1 8 -1
v 1 8 -2
v 2 2 -0
v 2 2 -1
v 2 3 -0
v 2 3 -1
v 2 3 -2
v 2 4 -1
v 2 4 -2
v 2 6 -1
v 2 6 -2
v 2 7 -1
v 2 7 -2
v 3 3 -0
v 3 3 -1
v 3 4 -0
v 3 4 -1
v 3 4 -2
v 3 6 -0
v 3 6 -1
v 3 6 -2
v 3 7 -0
v 3 7 -1
v 4 4 -0
v 4 4 -1
v 4 6 -0
v 4 6 -1
v -1 0 2
v -1 2 2
v 1 0 2
v 1 2 2
v -1 2 1
v -1 3 1
v -1 5 1
v -1 7 1
v 1 2 1
v 1 3 1
v 1 5 1
v 1 7 1
v -4 4 -0
v -4 6 -0
v -3 3 -0
v -3 4 -0
v -3 6 -0
v -3 7 -0
v -2 2 -0
v -2 3 -0
v -2 4 -0
v -2 6 -0
v -2 7 -0
v -1 2 -0
v -1 3 -0
v -1 5 -0
v -1 7 -0
v 1 2 -0
v 1 3 -0
v 1 5 -0
v 1 7 -0
v 2 2 -0
v 2 3 -0
v 2 4 -0
v 2 6 -0
v 2 7 -0
v 3 3 -0
v 3 4 -0
v 3 6 -0
v 3 7 -0
v 4 4 -0
v 4 6 -0
v -1 7 -1
v -1 8 -1
v 1 7 -1
v 1 8 -1
v -4 4 -1
v -4 6 -1
v -3 3 -1
v -3 4 -1
v -3 6 -1
v -3 7 -1
v -2 2 -1
v -2 3 -1
v -2 4 -1
v -2 6 -1
v -2 7 -1
v -1 0 -1
v -1 1 -1
v -1 2 -1
v -1 3 -1
v 1 0 -1
v 1 1 -1
v 1 2 -1
v 1 3 -1
v 2 2 -1
v 2 3 -1
v 2 4 -1
v 2 6 -1
v 2 7 -1
v 3 3 -1
v 3 4 -1
v 3 6 -1
v 3 7 -1
v 4 4 -1
v 4 6 -1
v -3 4 -2
v -3 6 -2
v -2 3 -2
v -2 4 -2
v -2 5 -2
v -2 6 -2
v -2 7 -2
v -1 1 -2
v -1 3 -2
v -1 4 -2
v -1 5 -2
v -1 6 -2
v -1 7 -2
v -1 8 -2
v 1 1 -2
v 1 3 -2
v 1 4 -2
v 1 5 -2
v 1 6 -2
v 1 7 -2
v 1 8 -2
v 2 3 -2
v 2 4 -2
v 2 5 -2
v 2 6 -2
v 2 7 -2
v 3 4 -2
v 3 6 -2
v -1 0 2
v 1 0 2
v -1 0 1
v 1 0 1
v -1 0 -1
v 1 0 -1
v -1 1 -1
v 1 1 -1
v -1 1 -2
v 1 1 -2
v -2 2 -0
v -1 2 -0
v 1 2 -0
v 2 2 -0
v -2 2 -1
v -1 2 -1
v 1 2 -1
v 2 2 -1
v -3 3 -0
v -2 3 -0
v 2 3 -0
v 3 3 -0
v -3 3 -1
v -2 3 -1
v -1 3 -1
v 1 3 -1
v 2 3 -1
v 3 3 -1
v -2 3 -2
v -1 3 -2
v 1 3 -2
v 2 3 -2
v -4 4 -0
v -3 4 -0
v 3 4 -0
v 4 4 -0
v -4 4 -1
v -3 4 -1
v -2 4 -1
v 2 4 -1
v 3 4 -1
v 4 4 -1
v -3 4 -2
v -2 4 -2
v 2 4 -2
v 3 4 -2
v -1 2 2
v 1 2 2
v -1 2 1
v 1 2 1
v -4 6 -0
v -3 6 -0
v 3 6 -0
v 4 6 -0
v -4 6 -1
v -3 6 -1
v -2 6 -1
v 2 6 -1
v 3 6 -1
v 4 6 -1
v -3 6 -2
v -2 6 -2
v 2 6 -2
v 3 6 -2
v -1 7 1
v 1 7 1
v -3 7 -0
v -2 7 -0
v -1 7 -0
v 1 7 -0
v 2 7 -0
v 3 7 -0
v -3 7 -1
v -2 7 -1
v -1 7 -1
v 1 7 -1
v 2 7 -1
v 3 7 -1
v -2 7 -2
v -1 7 -2
v 1 7 -2
v 2 7 -2
v -1 8 -1
v 1 8 -1
v -1 8 -2
v 1 8 -2

# faces
f 3/4/1 2/4/1 1/4/1
f 4/4/1 2/4/1 3/4/1
f 7/4/1 6/4/1 5/4/1
f 8/4/1 6/4/1 7/4/1
f 11/4/1 9/4/1 8/4/1
f 12/4/1 9/4/1 11/4/1
f 13/4/1 11/4/1 10/4/1
f 14/4/1 11/4/1 13/4/1
f 17/4/1 16/4/1 15/4/1
f 18/4/1 16/4/1 17/4/1
f 20/4/1 19/4/1 18/4/1
f 21/4/1 19/4/1 20/4/1
f 24/4/1 23/4/1 22/4/1
f 25/4/1 23/4/1 24/4/1
f 29/4/1 28/4/1 27/4/1
f 31/1/1 27/1/1 26/1/1
f 32/4/1 30/4/1 29/4/1
f 32/1/1 27/1/1 31/1/1
f 32/4/1 29/4/1 27/4/1
f 33/4/1 30/4/1 32/4/1
f 34/4/1 30/4/1 33/4/1
f 35/1/1 33/1/1 32/1/1
f 36/1/1 33/1/1 35/1/1
f 37/4/1 30/4/1 34/4/1
f 38/4/1 30/4/1 37/4/1
f 39/4/1 36/4/1 35/4/1
f 40/4/1 36/4/1 39/4/1
f 41/1/1 40/1/1 39/1/1
f 42/1/1 40/1/1 41/1/1
f 45/4/1 44/4/1 43/4/1
f 46/4/1 44/4/1 45/4/1
f 48/4/2 49/4/2 50/4/2
f 47/1/2 48/1/2 52/1/2
f 50/4/2 51/4/2 53/4/2
f 52/1/2 48/1/2 53/1/2
f 48/4/2 50/4/2 53/4/2
f 53/4/2 51/4/2 54/4/2
f 54/4/2 51/4/2 55/4/2
f 53/1/2 54/1/2 56/1/2
f 56/1/2 54/1/2 57/1/2
f 55/4/2 51/4/2 58/4/2
f 58/4/2 51/4/2 59/4/2
f 56/4/2 57/4/2 60/4/2
f 60/4/2 57/4/2 61/4/2
f 60/1/2 61/1/2 62/1/2
f 62/1/2 61/1/2 63/1/2
f 64/4/2 65/4/2 66/4/2
f 66/4/2 65/4/2 67/4/2
f 68/4/2 69/4/2 70/4/2
f 70/4/2 69/4/2 71/4/2
f 71/4/2 72/4/2 73/4/2
f 73/4/2 72/4/2 74/4/2
f 75/4/2 76/4/2 77/4/2
f 77/4/2 76/4/2 78/4/2
f 79/4/2 80/4/2 81/4/2
f 81/4/2 80/4/2 82/4/2
f 82/4/2 83/4/2 85/4/2
f 85/4/2 83/4/2 86/4/2
f 84/4/2 85/4/2 87/4/2
f 87/4/2 85/4/2 88/4/2
f 89/4/2 90/4/2 91/4/2
f 91/4/2 90/4/2 92/4/2
f 95/1/3 94/1/3 93/1/3
f 96/1/3 94/1/3 95/1/3
f 101/1/3 98/1/3 97/1/3
f 102/4/3 99/4/3 98/4/3
f 102/1/3 98/1/3 101/1/3
f 103/1/3 100/1/3 99/1/3
f 103/4/3 99/4/3 102/4/3
f 104/1/3 100/1/3 103/1/3
f 108/4/3 106/4/3 105/4/3
f 109/4/3 106/4/3 108/4/3
f 112/4/3 108/4/3 107/4/3
f 113/1/3 109/1/3 108/1/3
f 113/4/3 108/4/3 112/4/3
f 114/4/3 110/4/3 109/4/3
f 114/1/3 109/1/3 113/1/3
f 115/4/3 110/4/3 114/4/3
f 116/4/3 112/4/3 111/4/3
f 117/1/3 113/1/3 112/1/3
f 117/4/3 112/4/3 116/4/3
f 117/1/3 114/1/3 113/1/3
f 117/1/3 115/1/3 114/1/3
f 118/1/3 115/1/3 117/1/3
f 119/1/3 115/1/3 118/1/3
f 124/4/3 121/4/3 120/4/3
f 125/1/3 123/1/3 122/1/3
f 125/4/3 121/4/3 124/4/3
f 125/1/3 122/1/3 121/1/3
f 126/1/3 123/1/3 125/1/3
f 127/1/3 123/1/3 126/1/3
f 128/1/3 123/1/3 127/1/3
f 129/4/3 126/4/3 125/4/3
f 130/1/3 127/1/3 126/1/3
f 130/4/3 126/4/3 129/4/3
f 131/4/3 128/4/3 127/4/3
f 131/1/3 127/1/3 130/1/3
f 132/4/3 128/4/3 131/4/3
f 133/4/3 131/4/3 130/4/3
f 134/4/3 131/4/3 133/4/3
f 137/4/3 136/4/3 135/4/3
f 138/4/3 136/4/3 137/4/3
f 139/4/4 140/4/4 142/4/4
f 142/4/4 140/4/4 143/4/4
f 141/4/4 142/4/4 146/4/4
f 146/4/4 142/4/4 147/4/4
f 143/4/4 144/4/4 148/4/4
f 148/4/4 144/4/4 149/4/4
f 145/4/4 146/4/4 152/4/4
f 152/4/4 146/4/4 153/4/4
f 150/4/4 151/4/4 154/4/4
f 154/4/4 151/4/4 155/4/4
f 156/4/4 157/4/4 158/4/4
f 158/4/4 157/4/4 159/4/4
f 159/4/4 160/4/4 163/4/4
f 163/4/4 160/4/4 164/4/4
f 161/4/4 162/4/4 165/4/4
f 165/4/4 162/4/4 166/4/4
f 164/4/4 165/4/4 167/4/4
f 167/4/4 165/4/4 168/4/4
f 169/4/4 170/4/4 172/4/4
f 172/4/4 170/4/4 173/4/4
f 173/4/4 170/4/4 174/4/4
f 171/4/4 172/4/4 177/4/4
f 172/3/4 173/3/4 178/3/4
f 177/4/4 172/4/4 178/4/4
f 173/2/4 174/2/4 179/2/4
f 178/3/4 173/3/4 179/3/4
f 174/4/4 175/4/4 180/4/4
f 179/2/4 174/2/4 180/2/4
f 180/4/4 175/4/4 181/4/4
f 178/4/4 179/4/4 183/4/4
f 181/4/4 182/4/4 183/4/4
f 180/4/4 181/4/4 183/4/4
f 179/4/4 180/4/4 183/4/4
f 176/4/4 177/4/4 183/4/4
f 177/4/4 178/4/4 183/4/4
f 183/4/4 182/4/4 184/4/4
f 184/4/4 182/4/4 185/4/4
f 185/4/4 182/4/4 186/4/4
f 186/4/4 182/4/4 187/4/4
f 187/4/4 182/4/4 188/4/4
f 188/4/4 182/4/4 189/4/4
f 184/4/4 185/4/4 190/4/4
f 185/3/4 186/3/4 191/3/4
f 190/4/4 185/4/4 191/4/4
f 186/2/4 187/2/4 192/2/4
f 191/3/4 186/3/4 192/3/4
f 187/4/4 188/4/4 193/4/4
f 192/2/4 187/2/4 193/2/4
f 193/4/4 188/4/4 194/4/4
f 191/4/4 192/4/4 195/4/4
f 192/4/4 193/4/4 195/4/4
f 195/4/4 193/4/4 196/4/4
f 199/1/5 198/1/5 197/1/5
f 200/1/5 198/1/5 199/1/5
f 201/4/5 200/4/5 199/4/5
f 202/4/5 200/4/5 201/4/5
f 205/4/5 204/4/5 203/4/5
f 206/4/5 204/4/5 205/4/5
f 211/4/5 208/4/5 207/4/5
f 212/4/5 208/4/5 211/4/5
f 213/4/5 210/4/5 209/4/5
f 214/4/5 210/4/5 213/4/5
f 219/4/5 216/4/5 215/4/5
f 220/4/5 216/4/5 219/4/5
f 223/4/5 218/4/5 217/4/5
f 224/4/5 218/4/5 223/4/5
f 225/4/5 221/4/5 220/4/5
f 226/4/5 221/4/5 225/4/5
f 227/4/5 223/4/5 222/4/5
f 228/4/5 223/4/5 227/4/5
f 233/4/5 230/4/5 229/4/5
f 234/4/5 230/4/5 233/4/5
f 237/4/5 232/4/5 231/4/5
f 238/4/5 232/4/5 237/4/5
f 239/4/5 235/4/5 234/4/5
f 240/4/5 235/4/5 239/4/5
f 241/4/5 237/4/5 236/4/5
f 242/4/5 237/4/5 241/4/5
f 243/1/6 244/1/6 245/1/6
f 245/1/6 244/1/6 246/1/6
f 247/4/6 248/4/6 251/4/6
f 251/4/6 248/4/6 252/4/6
f 249/4/6 250/4/6 255/4/6
f 255/4/6 250/4/6 256/4/6
f 252/4/6 253/4/6 257/4/6
f 257/4/6 253/4/6 258/4/6
f 254/4/6 255/4/6 259/4/6
f 259/4/6 255/4/6 260/4/6
f 261/1/6 262/1/6 265/1/6
f 265/1/6 262/1/6 266/1/6
f 263/4/6 264/4/6 269/4/6
f 264/1/6 265/1/6 270/1/6
f 269/4/6 264/4/6 270/4/6
f 265/1/6 266/1/6 270/1/6
f 266/1/6 267/1/6 270/1/6
f 270/1/6 267/1/6 271/1/6
f 271/1/6 267/1/6 272/1/6
f 267/4/6 268/4/6 273/4/6
f 272/1/6 267/1/6 273/1/6
f 273/4/6 268/4/6 274/4/6
f 270/4/6 271/4/6 275/4/6
f 275/4/6 271/4/6 276/4/6
f 272/4/6 273/4/6 277/4/6
f 277/4/6 273/4/6 278/4/6
f 279/4/6 280/4/6 281/4/6
f 281/4/6 280/4/6 282/4/6
