# MagicaVoxel @ ephtracy

# material
mtllib snake head.mtl
usemtl palette

# normals
vn -1 0 0
vn 1 0 0
vn 0 0 1
vn 0 0 -1
vn 0 -1 0
vn 0 1 0

# texcoords
vt 0.208984 0.5
vt 0.845703 0.5
vt 0.990234 0.5

# verts
v -2 0 -1
v -2 0 -2
v -2 0 -3
v -2 1 -0
v -2 1 -1
v -2 1 -2
v -2 1 -3
v -2 2 -0
v -2 2 -2
v -1 0 3
v -1 0 -1
v -1 1 3
v -1 1 2
v -1 1 1
v -1 1 -0
v -1 1 -1
v -1 1 -2
v -1 1 -3
v -1 2 2
v -1 2 1
v -1 2 -0
v -1 2 -2
v -1 2 -3
v -1 3 1
v -1 3 -2
v 1 0 3
v 1 0 -1
v 1 1 3
v 1 1 2
v 1 1 1
v 1 1 -0
v 1 1 -1
v 1 1 -2
v 1 1 -3
v 1 2 2
v 1 2 1
v 1 2 -0
v 1 2 -2
v 1 2 -3
v 1 3 1
v 1 3 -2
v 2 0 -1
v 2 0 -2
v 2 0 -3
v 2 1 -0
v 2 1 -1
v 2 1 -2
v 2 1 -3
v 2 2 -0
v 2 2 -2
v -1 0 3
v -1 1 3
v 1 0 3
v 1 1 3
v -1 1 2
v -1 2 2
v 1 1 2
v 1 2 2
v -1 2 1
v -1 3 1
v 1 2 1
v 1 3 1
v -2 1 -0
v -2 2 -0
v -1 1 -0
v -1 2 -0
v 1 1 -0
v 1 2 -0
v 2 1 -0
v 2 2 -0
v -2 0 -1
v -2 1 -1
v -1 0 -1
v -1 1 -1
v 1 0 -1
v 1 1 -1
v 2 0 -1
v 2 1 -1
v -2 1 -2
v -2 2 -2
v -1 1 -2
v -1 2 -2
v -1 3 -2
v 1 1 -2
v 1 2 -2
v 1 3 -2
v 2 1 -2
v 2 2 -2
v -2 0 -3
v -2 1 -3
v -1 1 -3
v -1 2 -3
v 1 1 -3
v 1 2 -3
v 2 0 -3
v 2 1 -3
v -1 0 3
v 1 0 3
v -2 0 -1
v -1 0 -1
v 1 0 -1
v 2 0 -1
v -2 0 -2
v -1 0 -2
v 1 0 -2
v 2 0 -2
v -2 0 -3
v 2 0 -3
v -2 1 -0
v -1 1 -0
v 1 1 -0
v 2 1 -0
v -2 1 -1
v -1 1 -1
v 1 1 -1
v 2 1 -1
v -1 1 3
v 1 1 3
v -1 1 2
v 1 1 2
v -2 1 -2
v -1 1 -2
v 1 1 -2
v 2 1 -2
v -2 1 -3
v -1 1 -3
v 1 1 -3
v 2 1 -3
v -1 2 2
v 1 2 2
v -1 2 1
v 1 2 1
v -2 2 -0
v -1 2 -0
v 1 2 -0
v 2 2 -0
v -2 2 -2
v -1 2 -2
v 1 2 -2
v 2 2 -2
v -1 2 -3
v 1 2 -3
v -1 3 1
v 1 3 1
v -1 3 -2
v 1 3 -2

# faces
f 5/1/1 2/1/1 1/1/1
f 6/3/1 3/3/1 2/3/1
f 6/1/1 2/1/1 5/1/1
f 7/3/1 3/3/1 6/3/1
f 8/3/1 5/3/1 4/3/1
f 8/3/1 6/3/1 5/3/1
f 9/3/1 6/3/1 8/3/1
f 12/1/1 11/1/1 10/1/1
f 13/1/1 11/1/1 12/1/1
f 14/1/1 11/1/1 13/1/1
f 15/1/1 11/1/1 14/1/1
f 16/1/1 11/1/1 15/1/1
f 19/1/1 14/1/1 13/1/1
f 20/2/1 15/2/1 14/2/1
f 20/1/1 14/1/1 19/1/1
f 21/2/1 15/2/1 20/2/1
f 22/3/1 18/3/1 17/3/1
f 23/3/1 18/3/1 22/3/1
f 24/3/1 21/3/1 20/3/1
f 24/3/1 22/3/1 21/3/1
f 25/3/1 22/3/1 24/3/1
f 26/1/2 27/1/2 28/1/2
f 28/1/2 27/1/2 29/1/2
f 29/1/2 27/1/2 30/1/2
f 30/1/2 27/1/2 31/1/2
f 31/1/2 27/1/2 32/1/2
f 29/1/2 30/1/2 35/1/2
f 30/2/2 31/2/2 36/2/2
f 35/1/2 30/1/2 36/1/2
f 36/2/2 31/2/2 37/2/2
f 33/3/2 34/3/2 38/3/2
f 38/3/2 34/3/2 39/3/2
f 36/3/2 37/3/2 40/3/2
f 37/3/2 38/3/2 40/3/2
f 40/3/2 38/3/2 41/3/2
f 42/1/2 43/1/2 46/1/2
f 43/3/2 44/3/2 47/3/2
f 46/1/2 43/1/2 47/1/2
f 47/3/2 44/3/2 48/3/2
f 45/3/2 46/3/2 49/3/2
f 46/3/2 47/3/2 49/3/2
f 49/3/2 47/3/2 50/3/2
f 53/1/3 52/1/3 51/1/3
f 54/1/3 52/1/3 53/1/3
f 57/1/3 56/1/3 55/1/3
f 58/1/3 56/1/3 57/1/3
f 61/3/3 60/3/3 59/3/3
f 62/3/3 60/3/3 61/3/3
f 65/3/3 64/3/3 63/3/3
f 66/3/3 64/3/3 65/3/3
f 69/3/3 68/3/3 67/3/3
f 70/3/3 68/3/3 69/3/3
f 73/1/3 72/1/3 71/1/3
f 74/1/3 72/1/3 73/1/3
f 77/1/3 76/1/3 75/1/3
f 78/1/3 76/1/3 77/1/3
f 79/3/4 80/3/4 81/3/4
f 81/3/4 80/3/4 82/3/4
f 82/3/4 83/3/4 85/3/4
f 85/3/4 83/3/4 86/3/4
f 84/3/4 85/3/4 87/3/4
f 87/3/4 85/3/4 88/3/4
f 89/3/4 90/3/4 91/3/4
f 89/3/4 91/3/4 93/3/4
f 91/3/4 92/3/4 93/3/4
f 93/3/4 92/3/4 94/3/4
f 89/3/4 93/3/4 95/3/4
f 95/3/4 93/3/4 96/3/4
f 100/1/5 98/1/5 97/1/5
f 101/1/5 98/1/5 100/1/5
f 103/1/5 100/1/5 99/1/5
f 104/3/5 101/3/5 100/3/5
f 104/1/5 100/1/5 103/1/5
f 105/1/5 102/1/5 101/1/5
f 105/3/5 101/3/5 104/3/5
f 106/1/5 102/1/5 105/1/5
f 107/3/5 104/3/5 103/3/5
f 107/3/5 105/3/5 104/3/5
f 107/3/5 106/3/5 105/3/5
f 108/3/5 106/3/5 107/3/5
f 113/3/5 110/3/5 109/3/5
f 114/3/5 110/3/5 113/3/5
f 115/3/5 112/3/5 111/3/5
f 116/3/5 112/3/5 115/3/5
f 117/1/6 118/1/6 119/1/6
f 119/1/6 118/1/6 120/1/6
f 121/3/6 122/3/6 125/3/6
f 125/3/6 122/3/6 126/3/6
f 123/3/6 124/3/6 127/3/6
f 127/3/6 124/3/6 128/3/6
f 129/1/6 130/1/6 131/1/6
f 131/1/6 130/1/6 132/1/6
f 133/3/6 134/3/6 137/3/6
f 137/3/6 134/3/6 138/3/6
f 135/3/6 136/3/6 139/3/6
f 139/3/6 136/3/6 140/3/6
f 138/3/6 139/3/6 141/3/6
f 141/3/6 139/3/6 142/3/6
f 143/3/6 144/3/6 145/3/6
f 145/3/6 144/3/6 146/3/6
