# MagicaVoxel @ ephtracy

# material
mtllib Shadow Mummy arms right.mtl
usemtl palette

# normals
vn -1 0 0
vn 1 0 0
vn 0 0 1
vn 0 0 -1
vn 0 -1 0
vn 0 1 0

# texcoords
vt 0.00585938 0.5
vt 0.00976562 0.5
vt 0.341797 0.5
vt 0.986328 0.5
vt 0.990234 0.5
vt 0.994141 0.5

# verts
v -4 0 5.5
v -4 0 4.5
v -4 0 2.5
v -4 0 1.5
v -4 1 6.5
v -4 1 5.5
v -4 1 1.5
v -4 1 0.5
v -4 2 7.5
v -4 2 6.5
v -4 6 1.5
v -4 6 0.5
v -4 7 7.5
v -4 7 6.5
v -4 7 2.5
v -4 7 1.5
v -4 8 6.5
v -4 8 4.5
v -4 8 2.5
v -3 0 6.5
v -3 0 5.5
v -3 1 7.5
v -3 1 6.5
v -3 1 5.5
v -3 2 8.5
v -3 2 7.5
v -3 2 6.5
v -3 2 0.5
v -3 2 -0.5
v -3 2 -2.5
v -3 2 -4.5
v -3 3 8.5
v -3 3 7.5
v -3 5 8.5
v -3 5 7.5
v -3 5 0.5
v -3 5 -0.5
v -3 5 -2.5
v -3 5 -4.5
v -3 7 8.5
v -3 7 7.5
v -3 7 6.5
v -3 8 7.5
v -3 8 6.5
v -2 0 7.5
v -2 0 6.5
v -2 1 8.5
v -2 1 7.5
v -2 1 6.5
v -2 2 8.5
v -2 2 7.5
v -2 3 9.5
v -2 3 8.5
v -2 3 -4.5
v -2 3 -6.5
v -2 3 -7.5
v -2 5 9.5
v -2 5 8.5
v -2 5 -3.5
v -2 5 -4.5
v -2 6 9.5
v -2 6 8.5
v -2 6 -3.5
v -2 6 -4.5
v -2 6 -6.5
v -2 6 -7.5
v -2 7 8.5
v -2 7 7.5
v -2 8 9.5
v -2 8 7.5
v -1 0 9.5
v -1 0 8.5
v -1 0 7.5
v -1 1 8.5
v -1 1 7.5
v -1 2 9.5
v -1 2 8.5
v -1 3 10.5
v -1 3 9.5
v -1 4 -7.5
v -1 4 -8.5
v -1 5 10.5
v -1 5 9.5
v -1 6 10.5
v -1 6 9.5
v -1 6 -5.5
v -1 6 -6.5
v -1 6 -7.5
v -1 7 -5.5
v -1 7 -8.5
v -1 8 10.5
v -1 8 9.5
v 0 5 3.5
v 0 5 2.5
v 0 5 -8.5
v 0 5 -9.5
v 0 6 4.5
v 0 6 3.5
v 0 6 2.5
v 0 7 3.5
v 0 7 2.5
v 0 7 -6.5
v 0 7 -8.5
v 0 8 4.5
v 0 8 2.5
v 0 8 -6.5
v 0 8 -9.5
v 1 6 5.5
v 1 6 4.5
v 1 8 5.5
v 1 8 4.5
v 2 6 -9.5
v 2 6 -10.5
v 2 8 -7.5
v 2 8 -9.5
v 2 9 -7.5
v 2 9 -10.5
v -2 7 4.5
v -2 7 2.5
v -2 8 4.5
v -2 8 2.5
v -1 0 6.5
v -1 0 4.5
v -1 0 3.5
v -1 2 8.5
v -1 2 6.5
v -1 3 8.5
v -1 3 7.5
v -1 3 3.5
v -1 3 2.5
v -1 4 2.5
v -1 4 1.5
v -1 5 8.5
v -1 5 7.5
v -1 5 2.5
v -1 5 1.5
v -1 6 8.5
v -1 6 7.5
v -1 6 3.5
v -1 6 2.5
v -1 7 4.5
v -1 7 3.5
v -1 8 7.5
v -1 8 6.5
v -1 8 4.5
v 0 0 7.5
v 0 0 6.5
v 0 0 3.5
v 0 0 1.5
v 0 1 1.5
v 0 1 0.5
v 0 2 7.5
v 0 2 6.5
v 0 2 0.5
v 0 2 -0.5
v 0 2 -2.5
v 0 2 -4.5
v 0 3 8.5
v 0 3 7.5
v 0 3 3.5
v 0 3 2.5
v 0 3 -3.5
v 0 3 -4.5
v 0 4 2.5
v 0 4 1.5
v 0 5 8.5
v 0 5 7.5
v 0 5 1.5
v 0 5 0.5
v 0 5 -0.5
v 0 5 -2.5
v 0 5 -3.5
v 0 6 8.5
v 0 6 7.5
v 0 8 8.5
v 0 8 7.5
v 1 0 9.5
v 1 0 7.5
v 1 2 9.5
v 1 2 7.5
v 1 3 10.5
v 1 3 8.5
v 1 3 -3.5
v 1 3 -4.5
v 1 3 -6.5
v 1 3 -7.5
v 1 4 -5.5
v 1 4 -6.5
v 1 4 -7.5
v 1 5 10.5
v 1 5 8.5
v 1 5 2.5
v 1 5 0.5
v 1 6 10.5
v 1 6 8.5
v 1 6 1.5
v 1 6 0.5
v 1 6 -3.5
v 1 6 -4.5
v 1 6 -5.5
v 1 7 2.5
v 1 7 1.5
v 1 8 10.5
v 1 8 8.5
v 2 4 -5.5
v 2 4 -8.5
v 2 5 3.5
v 2 5 2.5
v 2 5 -6.5
v 2 5 -7.5
v 2 5 -8.5
v 2 6 3.5
v 2 7 -5.5
v 2 7 -6.5
v 2 8 3.5
v 2 8 2.5
v 3 5 -6.5
v 3 5 -7.5
v 3 5 -9.5
v 3 6 5.5
v 3 6 3.5
v 3 6 -9.5
v 3 6 -10.5
v 3 7 -6.5
v 3 7 -7.5
v 3 7 -8.5
v 3 7 -9.5
v 3 7 -10.5
v 3 8 5.5
v 3 8 3.5
v 3 8 -6.5
v 3 8 -7.5
v 3 8 -8.5
v 3 9 -7.5
v 3 9 -8.5
v 4 7 -8.5
v 4 7 -10.5
v 4 9 -8.5
v 4 9 -10.5
v -1 3 10.5
v -1 5 10.5
v -1 6 10.5
v -1 8 10.5
v 1 3 10.5
v 1 5 10.5
v 1 6 10.5
v 1 8 10.5
v -2 3 9.5
v -2 5 9.5
v -2 6 9.5
v -2 8 9.5
v -1 0 9.5
v -1 2 9.5
v -1 3 9.5
v -1 5 9.5
v -1 6 9.5
v -1 8 9.5
v 1 0 9.5
v 1 2 9.5
v -3 2 8.5
v -3 3 8.5
v -3 5 8.5
v -3 7 8.5
v -2 1 8.5
v -2 2 8.5
v -2 3 8.5
v -2 5 8.5
v -2 6 8.5
v -2 7 8.5
v -1 1 8.5
v -1 2 8.5
v -1 3 8.5
v -1 5 8.5
v -1 6 8.5
v -4 2 7.5
v -4 7 7.5
v -3 1 7.5
v -3 2 7.5
v -3 3 7.5
v -3 5 7.5
v -3 7 7.5
v -3 8 7.5
v -2 0 7.5
v -2 1 7.5
v -2 2 7.5
v -2 7 7.5
v -2 8 7.5
v -1 0 7.5
v -1 1 7.5
v -4 1 6.5
v -4 2 6.5
v -4 7 6.5
v -4 8 6.5
v -3 0 6.5
v -3 1 6.5
v -3 2 6.5
v -3 7 6.5
v -3 8 6.5
v -2 0 6.5
v -2 1 6.5
v -4 0 5.5
v -4 1 5.5
v -3 0 5.5
v -3 1 5.5
v 1 6 5.5
v 1 8 5.5
v 3 6 5.5
v 3 8 5.5
v 0 6 4.5
v 0 8 4.5
v 1 6 4.5
v 1 8 4.5
v -1 0 3.5
v -1 3 3.5
v -1 6 3.5
v -1 7 3.5
v 0 0 3.5
v 0 3 3.5
v 0 5 3.5
v 0 6 3.5
v 0 7 3.5
v 2 5 3.5
v 2 6 3.5
v -1 3 2.5
v -1 4 2.5
v -1 5 2.5
v -1 6 2.5
v 0 3 2.5
v 0 4 2.5
v 0 5 2.5
v 0 6 2.5
v -1 4 1.5
v -1 5 1.5
v 0 4 1.5
v 0 5 1.5
v -2 5 -3.5
v -2 6 -3.5
v 0 3 -3.5
v 0 5 -3.5
v 1 3 -3.5
v 1 6 -3.5
v -1 6 -5.5
v -1 7 -5.5
v 1 4 -5.5
v 1 6 -5.5
v 2 4 -5.5
v 2 7 -5.5
v 0 7 -6.5
v 0 8 -6.5
v 2 5 -6.5
v 2 7 -6.5
v 3 5 -6.5
v 3 7 -6.5
v 3 8 -6.5
v 2 8 -7.5
v 2 9 -7.5
v 3 8 -7.5
v 3 9 -7.5
v 3 7 -8.5
v 3 8 -8.5
v 3 9 -8.5
v 4 7 -8.5
v 4 9 -8.5
v 0 3 8.5
v 0 5 8.5
v 0 6 8.5
v 0 8 8.5
v 1 3 8.5
v 1 5 8.5
v 1 6 8.5
v 1 8 8.5
v -1 3 7.5
v -1 5 7.5
v -1 6 7.5
v -1 8 7.5
v 0 0 7.5
v 0 2 7.5
v 0 3 7.5
v 0 5 7.5
v 0 6 7.5
v 0 8 7.5
v 1 0 7.5
v 1 2 7.5
v -1 0 6.5
v -1 2 6.5
v 0 0 6.5
v 0 2 6.5
v -2 7 4.5
v -2 8 4.5
v -1 7 4.5
v -1 8 4.5
v 2 6 3.5
v 2 8 3.5
v 3 6 3.5
v 3 8 3.5
v -4 7 2.5
v -4 8 2.5
v -2 7 2.5
v -2 8 2.5
v 0 7 2.5
v 0 8 2.5
v 1 5 2.5
v 1 7 2.5
v 2 5 2.5
v 2 8 2.5
v -4 0 1.5
v -4 1 1.5
v -4 6 1.5
v -4 7 1.5
v -2 0 1.5
v -2 1 1.5
v 0 0 1.5
v 0 1 1.5
v 1 6 1.5
v 1 7 1.5
v -4 1 0.5
v -4 6 0.5
v -3 2 0.5
v -3 5 0.5
v -2 1 0.5
v -2 2 0.5
v 0 1 0.5
v 0 2 0.5
v 0 5 0.5
v 1 5 0.5
v 1 6 0.5
v -3 2 -4.5
v -3 5 -4.5
v -2 3 -4.5
v -2 5 -4.5
v 0 2 -4.5
v 0 3 -4.5
v -2 3 -7.5
v -2 6 -7.5
v -1 4 -7.5
v -1 6 -7.5
v 1 3 -7.5
v 1 4 -7.5
v -1 4 -8.5
v -1 7 -8.5
v 0 5 -8.5
v 0 7 -8.5
v 2 4 -8.5
v 2 5 -8.5
v 0 5 -9.5
v 0 8 -9.5
v 2 6 -9.5
v 2 8 -9.5
v 3 5 -9.5
v 3 6 -9.5
v 2 6 -10.5
v 2 9 -10.5
v 3 6 -10.5
v 3 7 -10.5
v 4 7 -10.5
v 4 9 -10.5
v -1 0 9.5
v 1 0 9.5
v -1 0 8.5
v 0 0 8.5
v -2 0 7.5
v -1 0 7.5
v 0 0 7.5
v 1 0 7.5
v -3 0 6.5
v -2 0 6.5
v -1 0 6.5
v 0 0 6.5
v -4 0 5.5
v -3 0 5.5
v -2 0 5.5
v -4 0 4.5
v -3 0 4.5
v -1 0 4.5
v -1 0 3.5
v 0 0 3.5
v -4 0 2.5
v -2 0 2.5
v -1 0 2.5
v -4 0 1.5
v -2 0 1.5
v 0 0 1.5
v -2 1 8.5
v -1 1 8.5
v -3 1 7.5
v -2 1 7.5
v -1 1 7.5
v -4 1 6.5
v -3 1 6.5
v -2 1 6.5
v -4 1 5.5
v -3 1 5.5
v -4 1 1.5
v -2 1 1.5
v 0 1 1.5
v -4 1 0.5
v -2 1 0.5
v 0 1 0.5
v -3 2 8.5
v -2 2 8.5
v -4 2 7.5
v -3 2 7.5
v -2 2 7.5
v -4 2 6.5
v -3 2 6.5
v -3 2 0.5
v -2 2 0.5
v 0 2 0.5
v -3 2 -0.5
v 0 2 -0.5
v -3 2 -2.5
v 0 2 -2.5
v -3 2 -4.5
v 0 2 -4.5
v -1 3 10.5
v 1 3 10.5
v -2 3 9.5
v -1 3 9.5
v 0 3 9.5
v -2 3 8.5
v -1 3 8.5
v 0 3 8.5
v 1 3 8.5
v -1 3 7.5
v 0 3 7.5
v 0 3 -3.5
v 1 3 -3.5
v -2 3 -4.5
v 0 3 -4.5
v 1 3 -4.5
v -2 3 -6.5
v 1 3 -6.5
v -2 3 -7.5
v 1 3 -7.5
v 1 4 -5.5
v 2 4 -5.5
v 1 4 -6.5
v -1 4 -7.5
v 1 4 -7.5
v -1 4 -8.5
v 2 4 -8.5
v 0 5 3.5
v 2 5 3.5
v -1 5 2.5
v 0 5 2.5
v 1 5 2.5
v 2 5 2.5
v -1 5 1.5
v 0 5 1.5
v 0 5 0.5
v 1 5 0.5
v 2 5 -6.5
v 3 5 -6.5
v 2 5 -7.5
v 3 5 -7.5
v 0 5 -8.5
v 2 5 -8.5
v 0 5 -9.5
v 3 5 -9.5
v -1 6 10.5
v 1 6 10.5
v -2 6 9.5
v -1 6 9.5
v 0 6 9.5
v -2 6 8.5
v -1 6 8.5
v 0 6 8.5
v 1 6 8.5
v -1 6 7.5
v 0 6 7.5
v 1 6 5.5
v 3 6 5.5
v 0 6 4.5
v 1 6 4.5
v 2 6 4.5
v -1 6 3.5
v 0 6 3.5
v 2 6 3.5
v 3 6 3.5
v -1 6 2.5
v 0 6 2.5
v 2 6 -9.5
v 3 6 -9.5
v 2 6 -10.5
v 3 6 -10.5
v 3 7 -8.5
v 4 7 -8.5
v 3 7 -9.5
v 3 7 -10.5
v 4 7 -10.5
v -1 2 9.5
v 1 2 9.5
v -1 2 8.5
v 0 2 8.5
v 0 2 7.5
v 1 2 7.5
v -1 2 6.5
v 0 2 6.5
v -1 3 3.5
v 0 3 3.5
v -1 3 2.5
v 0 3 2.5
v -1 4 2.5
v 0 4 2.5
v -1 4 1.5
v 0 4 1.5
v -1 5 10.5
v 1 5 10.5
v -2 5 9.5
v -1 5 9.5
v 0 5 9.5
v -2 5 8.5
v -1 5 8.5
v 0 5 8.5
v 1 5 8.5
v -1 5 7.5
v 0 5 7.5
v -3 5 0.5
v 0 5 0.5
v -3 5 -0.5
v 0 5 -0.5
v -3 5 -2.5
v 0 5 -2.5
v -2 5 -3.5
v 0 5 -3.5
v -3 5 -4.5
v -2 5 -4.5
v -4 6 1.5
v 1 6 1.5
v -4 6 0.5
v 1 6 0.5
v -2 6 -3.5
v 1 6 -3.5
v -2 6 -4.5
v 1 6 -4.5
v -1 6 -5.5
v 1 6 -5.5
v -2 6 -6.5
v -1 6 -6.5
v -2 6 -7.5
v -1 6 -7.5
v -3 7 8.5
v -2 7 8.5
v -4 7 7.5
v -3 7 7.5
v -2 7 7.5
v -4 7 6.5
v -3 7 6.5
v -2 7 4.5
v -1 7 4.5
v -1 7 3.5
v 0 7 3.5
v -4 7 2.5
v -2 7 2.5
v 0 7 2.5
v 1 7 2.5
v -4 7 1.5
v 1 7 1.5
v -1 7 -5.5
v 2 7 -5.5
v 0 7 -6.5
v 2 7 -6.5
v -1 7 -8.5
v 0 7 -8.5
v -1 8 10.5
v 1 8 10.5
v -2 8 9.5
v -1 8 9.5
v 0 8 9.5
v 0 8 8.5
v 1 8 8.5
v -3 8 7.5
v -2 8 7.5
v -1 8 7.5
v 0 8 7.5
v -4 8 6.5
v -3 8 6.5
v -2 8 6.5
v -1 8 6.5
v -3 8 5.5
v -2 8 5.5
v 1 8 5.5
v 3 8 5.5
v -4 8 4.5
v -3 8 4.5
v -2 8 4.5
v -1 8 4.5
v 0 8 4.5
v 1 8 4.5
v 2 8 4.5
v 2 8 3.5
v 3 8 3.5
v -4 8 2.5
v -2 8 2.5
v 0 8 2.5
v 2 8 2.5
v 0 8 -6.5
v 3 8 -6.5
v 2 8 -7.5
v 3 8 -7.5
v 0 8 -9.5
v 2 8 -9.5
v 2 9 -7.5
v 3 9 -7.5
v 3 9 -8.5
v 4 9 -8.5
v 2 9 -10.5
v 4 9 -10.5

# faces
f 6/5/1 2/5/1 1/5/1
f 7/5/1 4/5/1 3/5/1
f 10/5/1 6/5/1 5/5/1
f 11/5/1 8/5/1 7/5/1
f 11/5/1 7/5/1 3/5/1
f 12/5/1 8/5/1 11/5/1
f 13/4/1 10/4/1 9/4/1
f 14/5/1 6/5/1 10/5/1
f 14/4/1 10/4/1 13/4/1
f 15/4/1 3/4/1 2/4/1
f 15/5/1 11/5/1 3/5/1
f 16/5/1 11/5/1 15/5/1
f 17/5/1 6/5/1 14/5/1
f 18/5/1 2/5/1 6/5/1
f 18/5/1 6/5/1 17/5/1
f 18/4/1 15/4/1 2/4/1
f 19/4/1 15/4/1 18/4/1
f 23/5/1 21/5/1 20/5/1
f 24/5/1 21/5/1 23/5/1
f 26/4/1 23/4/1 22/4/1
f 27/4/1 23/4/1 26/4/1
f 32/4/1 26/4/1 25/4/1
f 33/4/1 26/4/1 32/4/1
f 34/5/1 33/5/1 32/5/1
f 35/5/1 33/5/1 34/5/1
f 36/4/1 29/4/1 28/4/1
f 37/5/1 30/5/1 29/5/1
f 37/4/1 29/4/1 36/4/1
f 38/4/1 31/4/1 30/4/1
f 38/5/1 30/5/1 37/5/1
f 39/4/1 31/4/1 38/4/1
f 40/4/1 35/4/1 34/4/1
f 41/4/1 35/4/1 40/4/1
f 43/4/1 42/4/1 41/4/1
f 44/4/1 42/4/1 43/4/1
f 48/4/1 46/4/1 45/4/1
f 49/4/1 46/4/1 48/4/1
f 50/4/1 48/4/1 47/4/1
f 51/4/1 48/4/1 50/4/1
f 57/5/1 53/5/1 52/5/1
f 58/5/1 53/5/1 57/5/1
f 60/5/1 55/5/1 54/5/1
f 63/4/1 60/4/1 59/4/1
f 64/5/1 55/5/1 60/5/1
f 64/4/1 60/4/1 63/4/1
f 65/4/1 56/4/1 55/4/1
f 65/5/1 55/5/1 64/5/1
f 66/4/1 56/4/1 65/4/1
f 67/6/1 62/6/1 61/6/1
f 69/6/1 67/6/1 61/6/1
f 69/6/1 68/6/1 67/6/1
f 70/6/1 68/6/1 69/6/1
f 74/4/1 72/4/1 71/4/1
f 74/6/1 73/6/1 72/6/1
f 75/6/1 73/6/1 74/6/1
f 76/4/1 74/4/1 71/4/1
f 77/4/1 74/4/1 76/4/1
f 82/4/1 79/4/1 78/4/1
f 83/4/1 79/4/1 82/4/1
f 88/4/1 81/4/1 80/4/1
f 89/4/1 87/4/1 86/4/1
f 89/4/1 88/4/1 87/4/1
f 90/4/1 81/4/1 88/4/1
f 90/4/1 88/4/1 89/4/1
f 91/4/1 85/4/1 84/4/1
f 92/4/1 85/4/1 91/4/1
f 98/6/1 94/6/1 93/6/1
f 99/6/1 94/6/1 98/6/1
f 100/6/1 98/6/1 97/6/1
f 103/5/1 96/5/1 95/5/1
f 104/6/1 100/6/1 97/6/1
f 104/6/1 101/6/1 100/6/1
f 105/6/1 101/6/1 104/6/1
f 106/5/1 103/5/1 102/5/1
f 107/5/1 96/5/1 103/5/1
f 107/5/1 103/5/1 106/5/1
f 110/4/1 109/4/1 108/4/1
f 111/4/1 109/4/1 110/4/1
f 115/4/1 113/4/1 112/4/1
f 116/4/1 115/4/1 114/4/1
f 117/4/1 113/4/1 115/4/1
f 117/4/1 115/4/1 116/4/1
f 118/4/2 119/4/2 120/4/2
f 120/4/2 119/4/2 121/4/2
f 122/6/2 123/6/2 126/6/2
f 125/4/2 126/4/2 127/4/2
f 127/4/2 126/4/2 128/4/2
f 123/4/2 124/4/2 129/4/2
f 129/4/2 130/4/2 131/4/2
f 128/4/2 126/4/2 134/4/2
f 131/4/2 132/4/2 135/4/2
f 129/4/2 131/4/2 135/4/2
f 135/4/2 132/4/2 136/4/2
f 133/4/2 134/4/2 137/4/2
f 134/4/2 126/4/2 138/4/2
f 137/4/2 134/4/2 138/4/2
f 123/4/2 129/4/2 139/4/2
f 129/4/2 135/4/2 139/4/2
f 139/4/2 135/4/2 140/4/2
f 126/6/2 123/6/2 141/6/2
f 123/4/2 139/4/2 141/4/2
f 141/4/2 139/4/2 142/4/2
f 138/4/2 126/4/2 143/4/2
f 126/6/2 141/6/2 144/6/2
f 143/4/2 126/4/2 144/4/2
f 144/6/2 141/6/2 145/6/2
f 148/6/2 149/6/2 150/6/2
f 146/6/2 147/6/2 152/6/2
f 152/6/2 147/6/2 153/6/2
f 150/6/2 151/6/2 154/6/2
f 148/6/2 150/6/2 160/6/2
f 150/6/2 154/6/2 160/6/2
f 160/6/2 154/6/2 161/6/2
f 156/4/2 157/4/2 162/4/2
f 162/4/2 157/4/2 163/4/2
f 161/6/2 154/6/2 164/6/2
f 164/6/2 154/6/2 165/6/2
f 158/5/2 159/5/2 166/5/2
f 166/5/2 159/5/2 167/5/2
f 165/6/2 154/6/2 168/6/2
f 154/4/2 155/4/2 169/4/2
f 168/6/2 154/6/2 169/6/2
f 155/5/2 156/5/2 170/5/2
f 169/4/2 155/4/2 170/4/2
f 156/4/2 162/4/2 171/4/2
f 170/5/2 156/5/2 171/5/2
f 171/4/2 162/4/2 172/4/2
f 173/6/2 174/6/2 175/6/2
f 175/6/2 174/6/2 176/6/2
f 177/4/2 178/4/2 179/4/2
f 179/4/2 178/4/2 180/4/2
f 184/5/2 185/5/2 187/5/2
f 185/4/2 186/4/2 188/4/2
f 187/5/2 185/5/2 188/5/2
f 188/4/2 186/4/2 189/4/2
f 181/4/2 182/4/2 190/4/2
f 190/4/2 182/4/2 191/4/2
f 192/5/2 193/5/2 196/5/2
f 196/5/2 193/5/2 197/5/2
f 183/4/2 184/4/2 198/4/2
f 184/5/2 187/5/2 199/5/2
f 198/4/2 184/4/2 199/4/2
f 199/5/2 187/5/2 200/5/2
f 192/5/2 196/5/2 201/5/2
f 201/5/2 196/5/2 202/5/2
f 194/4/2 195/4/2 203/4/2
f 203/4/2 195/4/2 204/4/2
f 205/4/2 206/4/2 209/4/2
f 209/4/2 206/4/2 210/4/2
f 210/4/2 206/4/2 211/4/2
f 207/6/2 208/6/2 212/6/2
f 205/4/2 209/4/2 213/4/2
f 213/4/2 209/4/2 214/4/2
f 212/6/2 208/6/2 215/6/2
f 215/6/2 208/6/2 216/6/2
f 218/5/2 219/5/2 222/5/2
f 217/4/2 218/4/2 224/4/2
f 218/5/2 222/5/2 225/5/2
f 224/4/2 218/4/2 225/4/2
f 225/5/2 222/5/2 226/5/2
f 222/4/2 223/4/2 227/4/2
f 226/5/2 222/5/2 227/5/2
f 227/4/2 223/4/2 228/4/2
f 220/4/2 221/4/2 229/4/2
f 229/4/2 221/4/2 230/4/2
f 225/5/2 226/5/2 231/5/2
f 224/5/2 225/5/2 231/5/2
f 231/5/2 226/5/2 232/5/2
f 232/5/2 226/5/2 233/5/2
f 232/4/2 233/4/2 234/4/2
f 234/4/2 233/4/2 235/4/2
f 236/4/2 237/4/2 238/4/2
f 238/4/2 237/4/2 239/4/2
f 244/4/3 241/4/3 240/4/3
f 245/4/3 241/4/3 244/4/3
f 246/4/3 243/4/3 242/4/3
f 247/4/3 243/4/3 246/4/3
f 254/5/3 249/5/3 248/5/3
f 255/5/3 249/5/3 254/5/3
f 256/6/3 251/6/3 250/6/3
f 257/6/3 251/6/3 256/6/3
f 258/4/3 253/4/3 252/4/3
f 259/4/3 253/4/3 258/4/3
f 265/4/3 261/4/3 260/4/3
f 266/5/3 262/5/3 261/5/3
f 266/4/3 261/4/3 265/4/3
f 267/4/3 263/4/3 262/4/3
f 267/5/3 262/5/3 266/5/3
f 268/4/3 263/4/3 267/4/3
f 269/4/3 263/4/3 268/4/3
f 270/4/3 266/4/3 265/4/3
f 270/4/3 265/4/3 264/4/3
f 271/4/3 266/4/3 270/4/3
f 272/4/3 266/4/3 271/4/3
f 273/4/3 268/4/3 267/4/3
f 274/4/3 268/4/3 273/4/3
f 278/4/3 276/4/3 275/4/3
f 279/4/3 276/4/3 278/4/3
f 280/4/3 276/4/3 279/4/3
f 281/4/3 276/4/3 280/4/3
f 284/4/3 278/4/3 277/4/3
f 285/4/3 278/4/3 284/4/3
f 286/4/3 282/4/3 281/4/3
f 287/4/3 282/4/3 286/4/3
f 288/4/3 284/4/3 283/4/3
f 289/4/3 284/4/3 288/4/3
f 295/5/3 291/5/3 290/5/3
f 296/5/3 291/5/3 295/5/3
f 297/5/3 293/5/3 292/5/3
f 298/5/3 293/5/3 297/5/3
f 299/5/3 295/5/3 294/5/3
f 300/5/3 295/5/3 299/5/3
f 303/5/3 302/5/3 301/5/3
f 304/5/3 302/5/3 303/5/3
f 307/4/3 306/4/3 305/4/3
f 308/4/3 306/4/3 307/4/3
f 311/6/3 310/6/3 309/6/3
f 312/6/3 310/6/3 311/6/3
f 317/6/3 314/6/3 313/6/3
f 318/6/3 314/6/3 317/6/3
f 320/4/3 316/4/3 315/4/3
f 321/4/3 316/4/3 320/4/3
f 322/6/3 320/6/3 319/6/3
f 323/6/3 320/6/3 322/6/3
f 328/6/3 325/6/3 324/6/3
f 329/6/3 325/6/3 328/6/3
f 330/5/3 327/5/3 326/5/3
f 331/5/3 327/5/3 330/5/3
f 334/6/3 333/6/3 332/6/3
f 335/6/3 333/6/3 334/6/3
f 339/4/3 337/4/3 336/4/3
f 340/4/3 339/4/3 338/4/3
f 341/4/3 337/4/3 339/4/3
f 341/4/3 339/4/3 340/4/3
f 345/4/3 343/4/3 342/4/3
f 346/4/3 345/4/3 344/4/3
f 347/4/3 343/4/3 345/4/3
f 347/4/3 345/4/3 346/4/3
f 351/5/3 349/5/3 348/5/3
f 352/4/3 351/4/3 350/4/3
f 353/5/3 349/5/3 351/5/3
f 353/4/3 351/4/3 352/4/3
f 354/5/3 349/5/3 353/5/3
f 357/4/3 356/4/3 355/4/3
f 358/4/3 356/4/3 357/4/3
f 362/4/3 360/4/3 359/4/3
f 362/4/3 361/4/3 360/4/3
f 363/4/3 361/4/3 362/4/3
f 364/4/4 365/4/4 368/4/4
f 368/4/4 365/4/4 369/4/4
f 366/4/4 367/4/4 370/4/4
f 370/4/4 367/4/4 371/4/4
f 372/5/4 373/5/4 378/5/4
f 378/5/4 373/5/4 379/5/4
f 374/6/4 375/6/4 380/6/4
f 380/6/4 375/6/4 381/6/4
f 376/4/4 377/4/4 382/4/4
f 382/4/4 377/4/4 383/4/4
f 384/6/4 385/6/4 386/6/4
f 386/6/4 385/6/4 387/6/4
f 388/6/4 389/6/4 390/6/4
f 390/6/4 389/6/4 391/6/4
f 392/4/4 393/4/4 394/4/4
f 394/4/4 393/4/4 395/4/4
f 396/4/4 397/4/4 398/4/4
f 398/4/4 397/4/4 399/4/4
f 400/6/4 401/6/4 403/6/4
f 402/6/4 403/6/4 404/6/4
f 403/6/4 401/6/4 405/6/4
f 404/6/4 403/6/4 405/6/4
f 406/5/4 407/5/4 410/5/4
f 410/5/4 407/5/4 411/5/4
f 410/6/4 411/6/4 412/6/4
f 412/6/4 411/6/4 413/6/4
f 408/5/4 409/5/4 414/5/4
f 414/5/4 409/5/4 415/5/4
f 416/5/4 417/5/4 418/5/4
f 418/5/4 417/5/4 419/5/4
f 416/5/4 418/5/4 420/5/4
f 420/5/4 418/5/4 421/5/4
f 420/6/4 421/6/4 422/6/4
f 422/6/4 421/6/4 423/6/4
f 419/5/4 417/5/4 424/5/4
f 424/5/4 417/5/4 425/5/4
f 425/5/4 417/5/4 426/5/4
f 427/4/4 428/4/4 429/4/4
f 429/4/4 428/4/4 430/4/4
f 427/4/4 429/4/4 431/4/4
f 431/4/4 429/4/4 432/4/4
f 433/4/4 434/4/4 435/4/4
f 435/4/4 434/4/4 436/4/4
f 433/4/4 435/4/4 437/4/4
f 437/4/4 435/4/4 438/4/4
f 439/4/4 440/4/4 441/4/4
f 441/4/4 440/4/4 442/4/4
f 439/4/4 441/4/4 443/4/4
f 443/4/4 441/4/4 444/4/4
f 445/5/4 446/5/4 447/5/4
f 447/5/4 446/5/4 448/5/4
f 445/5/4 447/5/4 449/5/4
f 449/5/4 447/5/4 450/5/4
f 451/4/4 452/4/4 453/4/4
f 453/4/4 452/4/4 454/4/4
f 454/4/4 452/4/4 455/4/4
f 455/4/4 452/4/4 456/4/4
f 459/4/5 458/4/5 457/4/5
f 460/4/5 458/4/5 459/4/5
f 462/6/5 460/6/5 459/6/5
f 463/4/5 458/4/5 460/4/5
f 463/6/5 460/6/5 462/6/5
f 464/4/5 458/4/5 463/4/5
f 466/4/5 462/4/5 461/4/5
f 467/6/5 463/6/5 462/6/5
f 467/4/5 462/4/5 466/4/5
f 468/6/5 463/6/5 467/6/5
f 470/5/5 466/5/5 465/5/5
f 471/6/5 467/6/5 466/6/5
f 471/5/5 466/5/5 470/5/5
f 472/5/5 470/5/5 469/5/5
f 473/6/5 471/6/5 470/6/5
f 473/5/5 470/5/5 472/5/5
f 474/6/5 467/6/5 471/6/5
f 474/6/5 471/6/5 473/6/5
f 475/4/5 473/4/5 472/4/5
f 475/4/5 474/4/5 473/4/5
f 477/4/5 475/4/5 472/4/5
f 478/4/5 475/4/5 477/4/5
f 479/6/5 476/6/5 475/6/5
f 479/4/5 475/4/5 478/4/5
f 480/5/5 478/5/5 477/5/5
f 481/6/5 479/6/5 478/6/5
f 481/5/5 478/5/5 480/5/5
f 482/6/5 476/6/5 479/6/5
f 482/6/5 479/6/5 481/6/5
f 486/4/5 484/4/5 483/4/5
f 487/4/5 484/4/5 486/4/5
f 489/4/5 486/4/5 485/4/5
f 490/4/5 486/4/5 489/4/5
f 491/5/5 489/5/5 488/5/5
f 492/5/5 489/5/5 491/5/5
f 496/5/5 494/5/5 493/5/5
f 497/6/5 495/6/5 494/6/5
f 497/5/5 494/5/5 496/5/5
f 498/6/5 495/6/5 497/6/5
f 502/4/5 500/4/5 499/4/5
f 503/4/5 500/4/5 502/4/5
f 504/4/5 502/4/5 501/4/5
f 505/4/5 502/4/5 504/4/5
f 509/4/5 507/4/5 506/4/5
f 509/4/5 508/4/5 507/4/5
f 510/4/5 508/4/5 509/4/5
f 511/5/5 510/5/5 509/5/5
f 512/5/5 510/5/5 511/5/5
f 513/4/5 512/4/5 511/4/5
f 514/4/5 512/4/5 513/4/5
f 518/4/5 516/4/5 515/4/5
f 519/4/5 516/4/5 518/4/5
f 520/5/5 518/5/5 517/5/5
f 520/5/5 519/5/5 518/5/5
f 521/5/5 519/5/5 520/5/5
f 522/4/5 516/4/5 519/4/5
f 522/5/5 519/5/5 521/5/5
f 523/4/5 516/4/5 522/4/5
f 524/5/5 522/5/5 521/5/5
f 525/5/5 522/5/5 524/5/5
f 529/4/5 527/4/5 526/4/5
f 530/4/5 527/4/5 529/4/5
f 531/5/5 529/5/5 528/5/5
f 531/5/5 530/5/5 529/5/5
f 532/5/5 530/5/5 531/5/5
f 533/4/5 532/4/5 531/4/5
f 534/4/5 532/4/5 533/4/5
f 537/4/5 536/4/5 535/4/5
f 539/4/5 536/4/5 537/4/5
f 540/4/5 539/4/5 538/4/5
f 541/4/5 536/4/5 539/4/5
f 541/4/5 539/4/5 540/4/5
f 545/6/5 543/6/5 542/6/5
f 546/6/5 543/6/5 545/6/5
f 547/6/5 543/6/5 546/6/5
f 548/5/5 545/5/5 544/5/5
f 548/5/5 546/5/5 545/5/5
f 549/5/5 546/5/5 548/5/5
f 550/5/5 546/5/5 549/5/5
f 551/5/5 546/5/5 550/5/5
f 554/4/5 553/4/5 552/4/5
f 555/4/5 553/4/5 554/4/5
f 557/5/5 555/5/5 554/5/5
f 558/5/5 557/5/5 556/5/5
f 559/5/5 555/5/5 557/5/5
f 559/5/5 557/5/5 558/5/5
f 563/4/5 561/4/5 560/4/5
f 564/4/5 561/4/5 563/4/5
f 565/6/5 563/6/5 562/6/5
f 565/6/5 564/6/5 563/6/5
f 566/6/5 564/6/5 565/6/5
f 567/4/5 561/4/5 564/4/5
f 567/6/5 564/6/5 566/6/5
f 568/4/5 561/4/5 567/4/5
f 569/6/5 567/6/5 566/6/5
f 570/6/5 567/6/5 569/6/5
f 574/4/5 572/4/5 571/4/5
f 575/4/5 572/4/5 574/4/5
f 577/6/5 574/6/5 573/6/5
f 577/6/5 575/6/5 574/6/5
f 578/4/5 572/4/5 575/4/5
f 578/6/5 575/6/5 577/6/5
f 579/4/5 572/4/5 578/4/5
f 580/4/5 577/4/5 576/4/5
f 581/4/5 577/4/5 580/4/5
f 584/4/5 583/4/5 582/4/5
f 585/4/5 583/4/5 584/4/5
f 588/4/5 587/4/5 586/4/5
f 589/4/5 587/4/5 588/4/5
f 590/4/5 587/4/5 589/4/5
f 591/4/6 592/4/6 593/4/6
f 593/4/6 592/4/6 594/4/6
f 593/6/6 594/6/6 595/6/6
f 594/4/6 592/4/6 595/4/6
f 595/4/6 592/4/6 596/4/6
f 593/6/6 595/6/6 597/6/6
f 597/6/6 595/6/6 598/6/6
f 599/6/6 600/6/6 601/6/6
f 601/6/6 600/6/6 602/6/6
f 603/6/6 604/6/6 605/6/6
f 605/6/6 604/6/6 606/6/6
f 607/4/6 608/4/6 610/4/6
f 610/4/6 608/4/6 611/4/6
f 609/5/6 610/5/6 612/5/6
f 610/5/6 611/5/6 612/5/6
f 612/5/6 611/5/6 613/5/6
f 611/4/6 608/4/6 614/4/6
f 613/5/6 611/5/6 614/5/6
f 614/4/6 608/4/6 615/4/6
f 613/5/6 614/5/6 616/5/6
f 616/5/6 614/5/6 617/5/6
f 618/4/6 619/4/6 620/4/6
f 620/4/6 619/4/6 621/4/6
f 620/5/6 621/5/6 622/5/6
f 622/5/6 621/5/6 623/5/6
f 622/4/6 623/4/6 624/4/6
f 624/4/6 623/4/6 625/4/6
f 622/4/6 624/4/6 626/4/6
f 626/4/6 624/4/6 627/4/6
f 628/5/6 629/5/6 630/5/6
f 630/5/6 629/5/6 631/5/6
f 632/4/6 633/4/6 634/4/6
f 634/4/6 633/4/6 635/4/6
f 634/5/6 635/5/6 636/5/6
f 636/5/6 635/5/6 637/5/6
f 634/5/6 636/5/6 638/5/6
f 638/5/6 636/5/6 639/5/6
f 638/4/6 639/4/6 640/4/6
f 640/4/6 639/4/6 641/4/6
f 642/4/6 643/4/6 645/4/6
f 645/4/6 643/4/6 646/4/6
f 644/4/6 645/4/6 647/4/6
f 647/4/6 645/4/6 648/4/6
f 649/4/6 650/4/6 651/4/6
f 649/4/6 651/4/6 654/4/6
f 651/4/6 652/4/6 654/4/6
f 654/4/6 652/4/6 655/4/6
f 653/5/6 654/5/6 657/5/6
f 655/5/6 656/5/6 657/5/6
f 654/5/6 655/5/6 657/5/6
f 657/5/6 656/5/6 658/5/6
f 659/4/6 660/4/6 661/4/6
f 661/4/6 660/4/6 662/4/6
f 659/4/6 661/4/6 663/4/6
f 663/4/6 661/4/6 664/4/6
f 665/4/6 666/4/6 668/4/6
f 668/4/6 666/4/6 669/4/6
f 667/6/6 668/6/6 670/6/6
f 669/4/6 666/4/6 670/4/6
f 668/6/6 669/6/6 670/6/6
f 670/4/6 666/4/6 671/4/6
f 667/6/6 670/6/6 673/6/6
f 673/6/6 670/6/6 674/6/6
f 674/6/6 670/6/6 675/6/6
f 672/4/6 673/4/6 677/4/6
f 673/4/6 674/4/6 677/4/6
f 677/4/6 674/4/6 678/4/6
f 678/4/6 674/4/6 679/4/6
f 676/5/6 677/5/6 680/5/6
f 677/5/6 678/5/6 680/5/6
f 678/6/6 679/6/6 681/6/6
f 680/5/6 678/5/6 681/5/6
f 676/5/6 680/5/6 684/5/6
f 680/6/6 681/6/6 685/6/6
f 684/5/6 680/5/6 685/5/6
f 681/6/6 679/6/6 686/6/6
f 685/6/6 681/6/6 686/6/6
f 686/6/6 679/6/6 687/6/6
f 682/4/6 683/4/6 689/4/6
f 689/4/6 683/4/6 690/4/6
f 690/4/6 683/4/6 691/4/6
f 689/6/6 690/6/6 691/6/6
f 688/6/6 689/6/6 691/6/6
f 691/4/6 683/4/6 692/4/6
f 684/4/6 685/4/6 693/4/6
f 685/4/6 686/4/6 693/4/6
f 693/4/6 686/4/6 694/4/6
f 688/6/6 691/6/6 695/6/6
f 695/6/6 691/6/6 696/6/6
f 697/5/6 698/5/6 699/5/6
f 699/5/6 698/5/6 700/5/6
f 697/5/6 699/5/6 701/5/6
f 701/5/6 699/5/6 702/5/6
f 703/4/6 704/4/6 705/4/6
f 703/4/6 705/4/6 707/4/6
f 705/4/6 706/4/6 707/4/6
f 707/4/6 706/4/6 708/4/6
