# MagicaVoxel @ ephtracy

# material
mtllib Mummy body.mtl
usemtl palette

# normals
vn -1 0 0
vn 1 0 0
vn 0 0 1
vn 0 0 -1
vn 0 -1 0
vn 0 1 0

# texcoords
vt 0.00585938 0.5
vt 0.00976562 0.5
vt 0.341797 0.5

# verts
v -3.5 3 1.5
v -3.5 3 -1.5
v -3.5 5 1.5
v -3.5 5 -1.5
v -3.5 7 1.5
v -3.5 7 -1.5
v -3.5 9 1.5
v -3.5 9 -1.5
v -2.5 1 1.5
v -2.5 1 -1.5
v -2.5 2 2.5
v -2.5 2 1.5
v -2.5 2 -1.5
v -2.5 2 -2.5
v -2.5 3 2.5
v -2.5 3 1.5
v -2.5 3 -1.5
v -2.5 3 -2.5
v -2.5 5 2.5
v -2.5 5 1.5
v -2.5 5 -1.5
v -2.5 5 -2.5
v -2.5 7 2.5
v -2.5 7 1.5
v -2.5 7 -1.5
v -2.5 7 -2.5
v -2.5 9 2.5
v -2.5 9 1.5
v -2.5 9 -1.5
v -2.5 9 -2.5
v -2.5 10 2.5
v -2.5 10 -2.5
v -1.5 0 1.5
v -1.5 0 -1.5
v -1.5 1 2.5
v -1.5 1 1.5
v -1.5 1 -1.5
v -1.5 1 -2.5
v -1.5 2 2.5
v -1.5 2 1.5
v -1.5 2 -1.5
v -1.5 2 -2.5
v -1.5 3 -2.5
v -1.5 3 -3.5
v -1.5 5 3.5
v -1.5 5 2.5
v -1.5 5 -2.5
v -1.5 5 -3.5
v -1.5 7 3.5
v -1.5 7 2.5
v -1.5 7 -2.5
v -1.5 7 -3.5
v -1.5 9 3.5
v -1.5 9 2.5
v -1.5 9 -2.5
v -1.5 9 -3.5
v -1.5 10 1.5
v -1.5 10 -1.5
v -1.5 11 1.5
v -1.5 11 -1.5
v 1.5 0 1.5
v 1.5 0 -1.5
v 1.5 1 2.5
v 1.5 1 1.5
v 1.5 1 -1.5
v 1.5 1 -2.5
v 1.5 2 2.5
v 1.5 2 1.5
v 1.5 2 -1.5
v 1.5 2 -2.5
v 1.5 3 -2.5
v 1.5 3 -3.5
v 1.5 5 3.5
v 1.5 5 2.5
v 1.5 5 -2.5
v 1.5 5 -3.5
v 1.5 7 3.5
v 1.5 7 2.5
v 1.5 7 -2.5
v 1.5 7 -3.5
v 1.5 9 3.5
v 1.5 9 2.5
v 1.5 9 -2.5
v 1.5 9 -3.5
v 1.5 10 1.5
v 1.5 10 -1.5
v 1.5 11 1.5
v 1.5 11 -1.5
v 2.5 1 1.5
v 2.5 1 -1.5
v 2.5 2 2.5
v 2.5 2 1.5
v 2.5 2 -1.5
v 2.5 2 -2.5
v 2.5 3 2.5
v 2.5 3 1.5
v 2.5 3 -1.5
v 2.5 3 -2.5
v 2.5 5 2.5
v 2.5 5 1.5
v 2.5 5 -1.5
v 2.5 5 -2.5
v 2.5 7 2.5
v 2.5 7 1.5
v 2.5 7 -1.5
v 2.5 7 -2.5
v 2.5 9 2.5
v 2.5 9 1.5
v 2.5 9 -1.5
v 2.5 9 -2.5
v 2.5 10 2.5
v 2.5 10 -2.5
v 3.5 3 1.5
v 3.5 3 -1.5
v 3.5 5 1.5
v 3.5 5 -1.5
v 3.5 7 1.5
v 3.5 7 -1.5
v 3.5 9 1.5
v 3.5 9 -1.5
v -1.5 5 3.5
v -1.5 7 3.5
v -1.5 9 3.5
v 1.5 5 3.5
v 1.5 7 3.5
v 1.5 9 3.5
v -2.5 2 2.5
v -2.5 3 2.5
v -2.5 5 2.5
v -2.5 7 2.5
v -2.5 9 2.5
v -2.5 10 2.5
v -1.5 1 2.5
v -1.5 2 2.5
v -1.5 5 2.5
v -1.5 7 2.5
v -1.5 9 2.5
v 1.5 1 2.5
v 1.5 2 2.5
v 1.5 5 2.5
v 1.5 7 2.5
v 1.5 9 2.5
v 2.5 2 2.5
v 2.5 3 2.5
v 2.5 5 2.5
v 2.5 7 2.5
v 2.5 9 2.5
v 2.5 10 2.5
v -3.5 3 1.5
v -3.5 5 1.5
v -3.5 7 1.5
v -3.5 9 1.5
v -2.5 1 1.5
v -2.5 2 1.5
v -2.5 3 1.5
v -2.5 5 1.5
v -2.5 7 1.5
v -2.5 9 1.5
v -1.5 0 1.5
v -1.5 1 1.5
v -1.5 2 1.5
v -1.5 10 1.5
v -1.5 11 1.5
v 1.5 0 1.5
v 1.5 1 1.5
v 1.5 2 1.5
v 1.5 10 1.5
v 1.5 11 1.5
v 2.5 1 1.5
v 2.5 2 1.5
v 2.5 3 1.5
v 2.5 5 1.5
v 2.5 7 1.5
v 2.5 9 1.5
v 3.5 3 1.5
v 3.5 5 1.5
v 3.5 7 1.5
v 3.5 9 1.5
v -3.5 3 -1.5
v -3.5 5 -1.5
v -3.5 7 -1.5
v -3.5 9 -1.5
v -2.5 1 -1.5
v -2.5 2 -1.5
v -2.5 3 -1.5
v -2.5 5 -1.5
v -2.5 7 -1.5
v -2.5 9 -1.5
v -1.5 0 -1.5
v -1.5 1 -1.5
v -1.5 2 -1.5
v -1.5 10 -1.5
v -1.5 11 -1.5
v 1.5 0 -1.5
v 1.5 1 -1.5
v 1.5 2 -1.5
v 1.5 10 -1.5
v 1.5 11 -1.5
v 2.5 1 -1.5
v 2.5 2 -1.5
v 2.5 3 -1.5
v 2.5 5 -1.5
v 2.5 7 -1.5
v 2.5 9 -1.5
v 3.5 3 -1.5
v 3.5 5 -1.5
v 3.5 7 -1.5
v 3.5 9 -1.5
v -2.5 2 -2.5
v -2.5 3 -2.5
v -2.5 5 -2.5
v -2.5 7 -2.5
v -2.5 9 -2.5
v -2.5 10 -2.5
v -1.5 1 -2.5
v -1.5 2 -2.5
v -1.5 3 -2.5
v -1.5 5 -2.5
v -1.5 7 -2.5
v -1.5 9 -2.5
v 1.5 1 -2.5
v 1.5 2 -2.5
v 1.5 3 -2.5
v 1.5 5 -2.5
v 1.5 7 -2.5
v 1.5 9 -2.5
v 2.5 2 -2.5
v 2.5 3 -2.5
v 2.5 5 -2.5
v 2.5 7 -2.5
v 2.5 9 -2.5
v 2.5 10 -2.5
v -1.5 3 -3.5
v -1.5 5 -3.5
v -1.5 7 -3.5
v -1.5 9 -3.5
v 1.5 3 -3.5
v 1.5 5 -3.5
v 1.5 7 -3.5
v 1.5 9 -3.5
v -1.5 0 1.5
v 1.5 0 1.5
v -1.5 0 -1.5
v 1.5 0 -1.5
v -1.5 1 2.5
v 1.5 1 2.5
v -2.5 1 1.5
v -1.5 1 1.5
v 1.5 1 1.5
v 2.5 1 1.5
v -2.5 1 -1.5
v -1.5 1 -1.5
v 1.5 1 -1.5
v 2.5 1 -1.5
v -1.5 1 -2.5
v 1.5 1 -2.5
v -2.5 2 2.5
v -1.5 2 2.5
v 1.5 2 2.5
v 2.5 2 2.5
v -2.5 2 1.5
v -1.5 2 1.5
v 1.5 2 1.5
v 2.5 2 1.5
v -2.5 2 -1.5
v -1.5 2 -1.5
v 1.5 2 -1.5
v 2.5 2 -1.5
v -2.5 2 -2.5
v -1.5 2 -2.5
v 1.5 2 -2.5
v 2.5 2 -2.5
v -3.5 3 1.5
v -2.5 3 1.5
v 2.5 3 1.5
v 3.5 3 1.5
v -3.5 3 -1.5
v -2.5 3 -1.5
v 2.5 3 -1.5
v 3.5 3 -1.5
v -1.5 3 -2.5
v 1.5 3 -2.5
v -1.5 3 -3.5
v 1.5 3 -3.5
v -1.5 5 3.5
v 1.5 5 3.5
v -1.5 5 2.5
v 1.5 5 2.5
v -1.5 9 3.5
v 1.5 9 3.5
v -1.5 9 2.5
v 1.5 9 2.5
v -3.5 9 1.5
v -2.5 9 1.5
v 2.5 9 1.5
v 3.5 9 1.5
v -3.5 9 -1.5
v -2.5 9 -1.5
v 2.5 9 -1.5
v 3.5 9 -1.5
v -1.5 9 -2.5
v 1.5 9 -2.5
v -1.5 9 -3.5
v 1.5 9 -3.5
v -2.5 10 2.5
v 2.5 10 2.5
v -1.5 10 1.5
v 1.5 10 1.5
v -1.5 10 -1.5
v 1.5 10 -1.5
v -2.5 10 -2.5
v 2.5 10 -2.5
v -1.5 11 1.5
v 1.5 11 1.5
v -1.5 11 -1.5
v 1.5 11 -1.5

# faces
f 3/2/1 2/2/1 1/2/1
f 4/2/1 2/2/1 3/2/1
f 5/3/1 4/3/1 3/3/1
f 6/3/1 4/3/1 5/3/1
f 7/1/1 6/1/1 5/1/1
f 8/1/1 6/1/1 7/1/1
f 12/3/1 10/3/1 9/3/1
f 13/3/1 10/3/1 12/3/1
f 15/3/1 12/3/1 11/3/1
f 15/3/1 14/3/1 13/3/1
f 15/3/1 13/3/1 12/3/1
f 16/3/1 14/3/1 15/3/1
f 17/3/1 14/3/1 16/3/1
f 18/3/1 14/3/1 17/3/1
f 19/2/1 16/2/1 15/2/1
f 20/2/1 16/2/1 19/2/1
f 21/2/1 18/2/1 17/2/1
f 22/2/1 18/2/1 21/2/1
f 23/3/1 20/3/1 19/3/1
f 24/3/1 20/3/1 23/3/1
f 25/3/1 22/3/1 21/3/1
f 26/3/1 22/3/1 25/3/1
f 27/1/1 24/1/1 23/1/1
f 28/1/1 24/1/1 27/1/1
f 29/1/1 26/1/1 25/1/1
f 30/1/1 26/1/1 29/1/1
f 31/3/1 28/3/1 27/3/1
f 31/3/1 29/3/1 28/3/1
f 31/3/1 30/3/1 29/3/1
f 32/3/1 30/3/1 31/3/1
f 36/2/1 34/2/1 33/2/1
f 37/2/1 34/2/1 36/2/1
f 39/3/1 36/3/1 35/3/1
f 40/3/1 36/3/1 39/3/1
f 41/3/1 38/3/1 37/3/1
f 42/3/1 38/3/1 41/3/1
f 47/2/1 44/2/1 43/2/1
f 48/2/1 44/2/1 47/2/1
f 49/3/1 46/3/1 45/3/1
f 50/3/1 46/3/1 49/3/1
f 51/3/1 48/3/1 47/3/1
f 52/3/1 48/3/1 51/3/1
f 53/1/1 50/1/1 49/1/1
f 54/1/1 50/1/1 53/1/1
f 55/1/1 52/1/1 51/1/1
f 56/1/1 52/1/1 55/1/1
f 59/3/1 58/3/1 57/3/1
f 60/3/1 58/3/1 59/3/1
f 61/2/2 62/2/2 64/2/2
f 64/2/2 62/2/2 65/2/2
f 63/3/2 64/3/2 67/3/2
f 67/3/2 64/3/2 68/3/2
f 65/3/2 66/3/2 69/3/2
f 69/3/2 66/3/2 70/3/2
f 71/2/2 72/2/2 75/2/2
f 75/2/2 72/2/2 76/2/2
f 73/3/2 74/3/2 77/3/2
f 77/3/2 74/3/2 78/3/2
f 75/3/2 76/3/2 79/3/2
f 79/3/2 76/3/2 80/3/2
f 77/1/2 78/1/2 81/1/2
f 81/1/2 78/1/2 82/1/2
f 79/1/2 80/1/2 83/1/2
f 83/1/2 80/1/2 84/1/2
f 85/3/2 86/3/2 87/3/2
f 87/3/2 86/3/2 88/3/2
f 89/3/2 90/3/2 92/3/2
f 92/3/2 90/3/2 93/3/2
f 91/3/2 92/3/2 95/3/2
f 93/3/2 94/3/2 95/3/2
f 92/3/2 93/3/2 95/3/2
f 95/3/2 94/3/2 96/3/2
f 96/3/2 94/3/2 97/3/2
f 97/3/2 94/3/2 98/3/2
f 95/2/2 96/2/2 99/2/2
f 99/2/2 96/2/2 100/2/2
f 97/2/2 98/2/2 101/2/2
f 101/2/2 98/2/2 102/2/2
f 99/3/2 100/3/2 103/3/2
f 103/3/2 100/3/2 104/3/2
f 101/3/2 102/3/2 105/3/2
f 105/3/2 102/3/2 106/3/2
f 103/1/2 104/1/2 107/1/2
f 107/1/2 104/1/2 108/1/2
f 105/1/2 106/1/2 109/1/2
f 109/1/2 106/1/2 110/1/2
f 107/3/2 108/3/2 111/3/2
f 108/3/2 109/3/2 111/3/2
f 109/3/2 110/3/2 111/3/2
f 111/3/2 110/3/2 112/3/2
f 113/2/2 114/2/2 115/2/2
f 115/2/2 114/2/2 116/2/2
f 115/3/2 116/3/2 117/3/2
f 117/3/2 116/3/2 118/3/2
f 117/1/2 118/1/2 119/1/2
f 119/1/2 118/1/2 120/1/2
f 124/3/3 122/3/3 121/3/3
f 125/1/3 123/1/3 122/1/3
f 125/3/3 122/3/3 124/3/3
f 126/1/3 123/1/3 125/1/3
f 134/3/3 128/3/3 127/3/3
f 135/2/3 129/2/3 128/2/3
f 135/3/3 130/3/3 129/3/3
f 136/1/3 131/1/3 130/1/3
f 136/3/3 130/3/3 135/3/3
f 137/3/3 132/3/3 131/3/3
f 137/1/3 131/1/3 136/1/3
f 138/3/3 134/3/3 133/3/3
f 139/3/3 128/3/3 134/3/3
f 139/3/3 134/3/3 138/3/3
f 140/2/3 135/2/3 128/2/3
f 142/3/3 132/3/3 137/3/3
f 143/3/3 128/3/3 139/3/3
f 144/2/3 140/2/3 128/2/3
f 144/3/3 128/3/3 143/3/3
f 145/3/3 141/3/3 140/3/3
f 145/2/3 140/2/3 144/2/3
f 146/1/3 142/1/3 141/1/3
f 146/3/3 141/3/3 145/3/3
f 147/3/3 132/3/3 142/3/3
f 147/1/3 142/1/3 146/1/3
f 148/3/3 132/3/3 147/3/3
f 155/2/3 150/2/3 149/2/3
f 156/3/3 151/3/3 150/3/3
f 156/2/3 150/2/3 155/2/3
f 157/1/3 152/1/3 151/1/3
f 157/3/3 151/3/3 156/3/3
f 158/1/3 152/1/3 157/1/3
f 160/3/3 154/3/3 153/3/3
f 161/3/3 154/3/3 160/3/3
f 164/2/3 160/2/3 159/2/3
f 165/2/3 160/2/3 164/2/3
f 167/3/3 163/3/3 162/3/3
f 168/3/3 163/3/3 167/3/3
f 169/3/3 166/3/3 165/3/3
f 170/3/3 166/3/3 169/3/3
f 175/2/3 172/2/3 171/2/3
f 176/3/3 173/3/3 172/3/3
f 176/2/3 172/2/3 175/2/3
f 177/1/3 174/1/3 173/1/3
f 177/3/3 173/3/3 176/3/3
f 178/1/3 174/1/3 177/1/3
f 179/2/4 180/2/4 185/2/4
f 180/3/4 181/3/4 186/3/4
f 185/2/4 180/2/4 186/2/4
f 181/1/4 182/1/4 187/1/4
f 186/3/4 181/3/4 187/3/4
f 187/1/4 182/1/4 188/1/4
f 183/3/4 184/3/4 190/3/4
f 190/3/4 184/3/4 191/3/4
f 189/2/4 190/2/4 194/2/4
f 194/2/4 190/2/4 195/2/4
f 192/3/4 193/3/4 197/3/4
f 197/3/4 193/3/4 198/3/4
f 195/3/4 196/3/4 199/3/4
f 199/3/4 196/3/4 200/3/4
f 201/2/4 202/2/4 205/2/4
f 202/3/4 203/3/4 206/3/4
f 205/2/4 202/2/4 206/2/4
f 203/1/4 204/1/4 207/1/4
f 206/3/4 203/3/4 207/3/4
f 207/1/4 204/1/4 208/1/4
f 209/3/4 210/3/4 216/3/4
f 210/2/4 211/2/4 217/2/4
f 216/3/4 210/3/4 217/3/4
f 211/3/4 212/3/4 218/3/4
f 217/2/4 211/2/4 218/2/4
f 212/1/4 213/1/4 219/1/4
f 218/3/4 212/3/4 219/3/4
f 213/3/4 214/3/4 220/3/4
f 219/1/4 213/1/4 220/1/4
f 215/3/4 216/3/4 221/3/4
f 216/3/4 217/3/4 221/3/4
f 221/3/4 217/3/4 222/3/4
f 222/3/4 217/3/4 223/3/4
f 220/3/4 214/3/4 226/3/4
f 222/3/4 223/3/4 227/3/4
f 223/2/4 224/2/4 228/2/4
f 227/3/4 223/3/4 228/3/4
f 224/3/4 225/3/4 229/3/4
f 228/2/4 224/2/4 229/2/4
f 225/1/4 226/1/4 230/1/4
f 229/3/4 225/3/4 230/3/4
f 226/3/4 214/3/4 231/3/4
f 230/1/4 226/1/4 231/1/4
f 231/3/4 214/3/4 232/3/4
f 233/2/4 234/2/4 237/2/4
f 234/3/4 235/3/4 238/3/4
f 237/2/4 234/2/4 238/2/4
f 235/1/4 236/1/4 239/1/4
f 238/3/4 235/3/4 239/3/4
f 239/1/4 236/1/4 240/1/4
f 243/2/5 242/2/5 241/2/5
f 244/2/5 242/2/5 243/2/5
f 248/3/5 246/3/5 245/3/5
f 249/3/5 246/3/5 248/3/5
f 251/3/5 248/3/5 247/3/5
f 252/3/5 248/3/5 251/3/5
f 253/3/5 250/3/5 249/3/5
f 254/3/5 250/3/5 253/3/5
f 255/3/5 253/3/5 252/3/5
f 256/3/5 253/3/5 255/3/5
f 261/3/5 258/3/5 257/3/5
f 262/3/5 258/3/5 261/3/5
f 263/3/5 260/3/5 259/3/5
f 264/3/5 260/3/5 263/3/5
f 269/3/5 266/3/5 265/3/5
f 270/3/5 266/3/5 269/3/5
f 271/3/5 268/3/5 267/3/5
f 272/3/5 268/3/5 271/3/5
f 277/2/5 274/2/5 273/2/5
f 278/2/5 274/2/5 277/2/5
f 279/2/5 276/2/5 275/2/5
f 280/2/5 276/2/5 279/2/5
f 283/2/5 282/2/5 281/2/5
f 284/2/5 282/2/5 283/2/5
f 287/3/5 286/3/5 285/3/5
f 288/3/5 286/3/5 287/3/5
f 289/1/6 290/1/6 291/1/6
f 291/1/6 290/1/6 292/1/6
f 293/1/6 294/1/6 297/1/6
f 297/1/6 294/1/6 298/1/6
f 295/1/6 296/1/6 299/1/6
f 299/1/6 296/1/6 300/1/6
f 301/1/6 302/1/6 303/1/6
f 303/1/6 302/1/6 304/1/6
f 305/3/6 306/3/6 307/3/6
f 307/3/6 306/3/6 308/3/6
f 305/3/6 307/3/6 309/3/6
f 308/3/6 306/3/6 310/3/6
f 305/3/6 309/3/6 311/3/6
f 309/3/6 310/3/6 311/3/6
f 310/3/6 306/3/6 312/3/6
f 311/3/6 310/3/6 312/3/6
f 313/3/6 314/3/6 315/3/6
f 315/3/6 314/3/6 316/3/6
