# MagicaVoxel @ ephtracy

# material
mtllib NAKED Mummy body.mtl
usemtl palette

# normals
vn -1 0 0
vn 1 0 0
vn 0 0 1
vn 0 0 -1
vn 0 -1 0
vn 0 1 0

# texcoords
vt 0.00585938 0.5
vt 0.00976562 0.5
vt 0.341797 0.5
vt 0.455078 0.5

# verts
v -3.5 3 1.5
v -3.5 3 -1.5
v -3.5 9 1.5
v -3.5 9 -1.5
v -2.5 1 1.5
v -2.5 1 -1.5
v -2.5 2 2.5
v -2.5 2 1.5
v -2.5 2 -1.5
v -2.5 2 -2.5
v -2.5 3 1.5
v -2.5 3 -1.5
v -2.5 4 2.5
v -2.5 4 1.5
v -2.5 4 -1.5
v -2.5 4 -2.5
v -2.5 9 1.5
v -2.5 9 -1.5
v -2.5 10 2.5
v -2.5 10 -2.5
v -1.5 0 1.5
v -1.5 0 0.5
v -1.5 0 -0.5
v -1.5 0 -1.5
v -1.5 1 2.5
v -1.5 1 1.5
v -1.5 1 0.5
v -1.5 1 -0.5
v -1.5 1 -1.5
v -1.5 1 -2.5
v -1.5 2 2.5
v -1.5 2 1.5
v -1.5 2 -1.5
v -1.5 2 -2.5
v -1.5 3 -2.5
v -1.5 3 -3.5
v -1.5 4 -2.5
v -1.5 4 -3.5
v -1.5 5 3.5
v -1.5 5 2.5
v -1.5 9 3.5
v -1.5 9 2.5
v -1.5 9 -2.5
v -1.5 9 -3.5
v -1.5 10 1.5
v -1.5 10 -1.5
v -1.5 11 1.5
v -1.5 11 -1.5
v 1.5 0 1.5
v 1.5 0 0.5
v 1.5 0 -0.5
v 1.5 0 -1.5
v 1.5 1 2.5
v 1.5 1 1.5
v 1.5 1 0.5
v 1.5 1 -0.5
v 1.5 1 -1.5
v 1.5 1 -2.5
v 1.5 2 2.5
v 1.5 2 1.5
v 1.5 2 -1.5
v 1.5 2 -2.5
v 1.5 3 -2.5
v 1.5 3 -3.5
v 1.5 4 -2.5
v 1.5 4 -3.5
v 1.5 5 3.5
v 1.5 5 2.5
v 1.5 9 3.5
v 1.5 9 2.5
v 1.5 9 -2.5
v 1.5 9 -3.5
v 1.5 10 1.5
v 1.5 10 -1.5
v 1.5 11 1.5
v 1.5 11 -1.5
v 2.5 1 1.5
v 2.5 1 -1.5
v 2.5 2 2.5
v 2.5 2 1.5
v 2.5 2 -1.5
v 2.5 2 -2.5
v 2.5 3 1.5
v 2.5 3 -1.5
v 2.5 4 2.5
v 2.5 4 1.5
v 2.5 4 -1.5
v 2.5 4 -2.5
v 2.5 9 1.5
v 2.5 9 -1.5
v 2.5 10 2.5
v 2.5 10 -2.5
v 3.5 3 1.5
v 3.5 3 -1.5
v 3.5 9 1.5
v 3.5 9 -1.5
v -1.5 5 3.5
v -1.5 9 3.5
v 1.5 5 3.5
v 1.5 9 3.5
v -2.5 2 2.5
v -2.5 4 2.5
v -2.5 10 2.5
v -1.5 1 2.5
v -1.5 2 2.5
v -1.5 4 2.5
v -1.5 5 2.5
v -1.5 9 2.5
v 1.5 1 2.5
v 1.5 2 2.5
v 1.5 4 2.5
v 1.5 5 2.5
v 1.5 9 2.5
v 2.5 2 2.5
v 2.5 4 2.5
v 2.5 10 2.5
v -3.5 3 1.5
v -3.5 9 1.5
v -2.5 1 1.5
v -2.5 2 1.5
v -2.5 3 1.5
v -2.5 4 1.5
v -2.5 9 1.5
v -1.5 0 1.5
v -1.5 1 1.5
v -1.5 2 1.5
v -1.5 10 1.5
v -1.5 11 1.5
v 1.5 0 1.5
v 1.5 1 1.5
v 1.5 2 1.5
v 1.5 10 1.5
v 1.5 11 1.5
v 2.5 1 1.5
v 2.5 2 1.5
v 2.5 3 1.5
v 2.5 4 1.5
v 2.5 9 1.5
v 3.5 3 1.5
v 3.5 9 1.5
v -3.5 3 -1.5
v -3.5 9 -1.5
v -2.5 1 -1.5
v -2.5 2 -1.5
v -2.5 3 -1.5
v -2.5 4 -1.5
v -2.5 9 -1.5
v -1.5 0 -1.5
v -1.5 1 -1.5
v -1.5 2 -1.5
v -1.5 10 -1.5
v -1.5 11 -1.5
v 1.5 0 -1.5
v 1.5 1 -1.5
v 1.5 2 -1.5
v 1.5 10 -1.5
v 1.5 11 -1.5
v 2.5 1 -1.5
v 2.5 2 -1.5
v 2.5 3 -1.5
v 2.5 4 -1.5
v 2.5 9 -1.5
v 3.5 3 -1.5
v 3.5 9 -1.5
v -2.5 2 -2.5
v -2.5 4 -2.5
v -2.5 10 -2.5
v -1.5 1 -2.5
v -1.5 2 -2.5
v -1.5 3 -2.5
v -1.5 4 -2.5
v -1.5 9 -2.5
v 1.5 1 -2.5
v 1.5 2 -2.5
v 1.5 3 -2.5
v 1.5 4 -2.5
v 1.5 9 -2.5
v 2.5 2 -2.5
v 2.5 4 -2.5
v 2.5 10 -2.5
v -1.5 3 -3.5
v -1.5 4 -3.5
v -1.5 9 -3.5
v 1.5 3 -3.5
v 1.5 4 -3.5
v 1.5 9 -3.5
v -1.5 0 1.5
v 1.5 0 1.5
v -1.5 0 0.5
v 1.5 0 0.5
v -1.5 0 -0.5
v 1.5 0 -0.5
v -1.5 0 -1.5
v 1.5 0 -1.5
v -1.5 1 2.5
v 1.5 1 2.5
v -2.5 1 1.5
v -1.5 1 1.5
v 1.5 1 1.5
v 2.5 1 1.5
v -1.5 1 0.5
v 1.5 1 0.5
v -1.5 1 -0.5
v 1.5 1 -0.5
v -2.5 1 -1.5
v -1.5 1 -1.5
v 1.5 1 -1.5
v 2.5 1 -1.5
v -1.5 1 -2.5
v 1.5 1 -2.5
v -2.5 2 2.5
v -1.5 2 2.5
v 1.5 2 2.5
v 2.5 2 2.5
v -2.5 2 1.5
v -1.5 2 1.5
v 1.5 2 1.5
v 2.5 2 1.5
v -2.5 2 -1.5
v -1.5 2 -1.5
v 1.5 2 -1.5
v 2.5 2 -1.5
v -2.5 2 -2.5
v -1.5 2 -2.5
v 1.5 2 -2.5
v 2.5 2 -2.5
v -3.5 3 1.5
v -2.5 3 1.5
v 2.5 3 1.5
v 3.5 3 1.5
v -3.5 3 -1.5
v -2.5 3 -1.5
v 2.5 3 -1.5
v 3.5 3 -1.5
v -1.5 3 -2.5
v 1.5 3 -2.5
v -1.5 3 -3.5
v 1.5 3 -3.5
v -1.5 5 3.5
v 1.5 5 3.5
v -1.5 5 2.5
v 1.5 5 2.5
v -1.5 9 3.5
v 1.5 9 3.5
v -1.5 9 2.5
v 1.5 9 2.5
v -3.5 9 1.5
v -2.5 9 1.5
v 2.5 9 1.5
v 3.5 9 1.5
v -3.5 9 -1.5
v -2.5 9 -1.5
v 2.5 9 -1.5
v 3.5 9 -1.5
v -1.5 9 -2.5
v 1.5 9 -2.5
v -1.5 9 -3.5
v 1.5 9 -3.5
v -2.5 10 2.5
v 2.5 10 2.5
v -1.5 10 1.5
v 1.5 10 1.5
v -1.5 10 -1.5
v 1.5 10 -1.5
v -2.5 10 -2.5
v 2.5 10 -2.5
v -1.5 11 1.5
v 1.5 11 1.5
v -1.5 11 -1.5
v 1.5 11 -1.5

# faces
f 3/4/1 2/4/1 1/4/1
f 4/4/1 2/4/1 3/4/1
f 8/3/1 6/3/1 5/3/1
f 9/3/1 6/3/1 8/3/1
f 11/1/1 8/1/1 7/1/1
f 11/1/1 10/1/1 9/1/1
f 11/1/1 9/1/1 8/1/1
f 12/1/1 10/1/1 11/1/1
f 13/1/1 11/1/1 7/1/1
f 14/1/1 11/1/1 13/1/1
f 15/1/1 10/1/1 12/1/1
f 16/1/1 10/1/1 15/1/1
f 17/4/1 14/4/1 13/4/1
f 18/4/1 16/4/1 15/4/1
f 19/4/1 17/4/1 13/4/1
f 19/4/1 18/4/1 17/4/1
f 20/4/1 16/4/1 18/4/1
f 20/4/1 18/4/1 19/4/1
f 26/2/1 22/2/1 21/2/1
f 27/3/1 23/3/1 22/3/1
f 27/2/1 22/2/1 26/2/1
f 28/2/1 24/2/1 23/2/1
f 28/3/1 23/3/1 27/3/1
f 29/2/1 24/2/1 28/2/1
f 31/2/1 26/2/1 25/2/1
f 32/2/1 26/2/1 31/2/1
f 33/2/1 30/2/1 29/2/1
f 34/2/1 30/2/1 33/2/1
f 37/2/1 36/2/1 35/2/1
f 38/2/1 36/2/1 37/2/1
f 41/4/1 40/4/1 39/4/1
f 42/4/1 40/4/1 41/4/1
f 43/4/1 38/4/1 37/4/1
f 44/4/1 38/4/1 43/4/1
f 47/4/1 46/4/1 45/4/1
f 48/4/1 46/4/1 47/4/1
f 49/2/2 50/2/2 54/2/2
f 50/3/2 51/3/2 55/3/2
f 54/2/2 50/2/2 55/2/2
f 51/2/2 52/2/2 56/2/2
f 55/3/2 51/3/2 56/3/2
f 56/2/2 52/2/2 57/2/2
f 53/2/2 54/2/2 59/2/2
f 59/2/2 54/2/2 60/2/2
f 57/2/2 58/2/2 61/2/2
f 61/2/2 58/2/2 62/2/2
f 63/2/2 64/2/2 65/2/2
f 65/2/2 64/2/2 66/2/2
f 67/4/2 68/4/2 69/4/2
f 69/4/2 68/4/2 70/4/2
f 65/4/2 66/4/2 71/4/2
f 71/4/2 66/4/2 72/4/2
f 73/4/2 74/4/2 75/4/2
f 75/4/2 74/4/2 76/4/2
f 77/3/2 78/3/2 80/3/2
f 80/3/2 78/3/2 81/3/2
f 79/1/2 80/1/2 83/1/2
f 81/1/2 82/1/2 83/1/2
f 80/1/2 81/1/2 83/1/2
f 83/1/2 82/1/2 84/1/2
f 79/1/2 83/1/2 85/1/2
f 85/1/2 83/1/2 86/1/2
f 84/1/2 82/1/2 87/1/2
f 87/1/2 82/1/2 88/1/2
f 85/4/2 86/4/2 89/4/2
f 87/4/2 88/4/2 90/4/2
f 85/4/2 89/4/2 91/4/2
f 89/4/2 90/4/2 91/4/2
f 90/4/2 88/4/2 92/4/2
f 91/4/2 90/4/2 92/4/2
f 93/4/2 94/4/2 95/4/2
f 95/4/2 94/4/2 96/4/2
f 99/4/3 98/4/3 97/4/3
f 100/4/3 98/4/3 99/4/3
f 105/1/3 102/1/3 101/1/3
f 106/4/3 103/4/3 102/4/3
f 106/1/3 102/1/3 105/1/3
f 107/4/3 103/4/3 106/4/3
f 108/4/3 103/4/3 107/4/3
f 109/2/3 105/2/3 104/2/3
f 109/2/3 106/2/3 105/2/3
f 110/2/3 106/2/3 109/2/3
f 111/4/3 107/4/3 106/4/3
f 111/2/3 106/2/3 110/2/3
f 112/4/3 107/4/3 111/4/3
f 113/4/3 103/4/3 108/4/3
f 114/1/3 111/1/3 110/1/3
f 115/4/3 112/4/3 111/4/3
f 115/1/3 111/1/3 114/1/3
f 115/4/3 113/4/3 112/4/3
f 116/4/3 103/4/3 113/4/3
f 116/4/3 113/4/3 115/4/3
f 121/4/3 118/4/3 117/4/3
f 122/4/3 118/4/3 121/4/3
f 123/4/3 118/4/3 122/4/3
f 125/3/3 120/3/3 119/3/3
f 126/3/3 120/3/3 125/3/3
f 129/2/3 125/2/3 124/2/3
f 130/2/3 125/2/3 129/2/3
f 132/4/3 128/4/3 127/4/3
f 133/4/3 128/4/3 132/4/3
f 134/3/3 131/3/3 130/3/3
f 135/3/3 131/3/3 134/3/3
f 139/4/3 138/4/3 137/4/3
f 139/4/3 137/4/3 136/4/3
f 140/4/3 138/4/3 139/4/3
f 141/4/4 142/4/4 145/4/4
f 145/4/4 142/4/4 146/4/4
f 146/4/4 142/4/4 147/4/4
f 143/3/4 144/3/4 149/3/4
f 149/3/4 144/3/4 150/3/4
f 148/2/4 149/2/4 153/2/4
f 153/2/4 149/2/4 154/2/4
f 151/4/4 152/4/4 156/4/4
f 156/4/4 152/4/4 157/4/4
f 154/3/4 155/3/4 158/3/4
f 158/3/4 155/3/4 159/3/4
f 161/4/4 162/4/4 163/4/4
f 160/4/4 161/4/4 163/4/4
f 163/4/4 162/4/4 164/4/4
f 165/1/4 166/1/4 169/1/4
f 169/1/4 166/1/4 170/1/4
f 166/4/4 167/4/4 171/4/4
f 170/1/4 166/1/4 171/1/4
f 171/4/4 167/4/4 172/4/4
f 169/2/4 170/2/4 173/2/4
f 168/2/4 169/2/4 173/2/4
f 173/2/4 170/2/4 174/2/4
f 174/2/4 170/2/4 175/2/4
f 172/4/4 167/4/4 177/4/4
f 175/1/4 176/1/4 178/1/4
f 174/1/4 175/1/4 178/1/4
f 176/4/4 177/4/4 179/4/4
f 178/1/4 176/1/4 179/1/4
f 177/4/4 167/4/4 180/4/4
f 179/4/4 177/4/4 180/4/4
f 181/2/4 182/2/4 184/2/4
f 182/4/4 183/4/4 185/4/4
f 184/2/4 182/2/4 185/2/4
f 185/4/4 183/4/4 186/4/4
f 189/2/5 188/2/5 187/2/5
f 190/2/5 188/2/5 189/2/5
f 191/3/5 190/3/5 189/3/5
f 192/3/5 190/3/5 191/3/5
f 193/2/5 192/2/5 191/2/5
f 194/2/5 192/2/5 193/2/5
f 198/2/5 196/2/5 195/2/5
f 199/2/5 196/2/5 198/2/5
f 201/3/5 198/3/5 197/3/5
f 202/3/5 200/3/5 199/3/5
f 203/3/5 201/3/5 197/3/5
f 204/3/5 200/3/5 202/3/5
f 205/3/5 203/3/5 197/3/5
f 206/3/5 203/3/5 205/3/5
f 207/3/5 200/3/5 204/3/5
f 208/3/5 200/3/5 207/3/5
f 209/2/5 207/2/5 206/2/5
f 210/2/5 207/2/5 209/2/5
f 215/1/5 212/1/5 211/1/5
f 216/1/5 212/1/5 215/1/5
f 217/1/5 214/1/5 213/1/5
f 218/1/5 214/1/5 217/1/5
f 223/1/5 220/1/5 219/1/5
f 224/1/5 220/1/5 223/1/5
f 225/1/5 222/1/5 221/1/5
f 226/1/5 222/1/5 225/1/5
f 231/4/5 228/4/5 227/4/5
f 232/4/5 228/4/5 231/4/5
f 233/4/5 230/4/5 229/4/5
f 234/4/5 230/4/5 233/4/5
f 237/2/5 236/2/5 235/2/5
f 238/2/5 236/2/5 237/2/5
f 241/4/5 240/4/5 239/4/5
f 242/4/5 240/4/5 241/4/5
f 243/4/6 244/4/6 245/4/6
f 245/4/6 244/4/6 246/4/6
f 247/4/6 248/4/6 251/4/6
f 251/4/6 248/4/6 252/4/6
f 249/4/6 250/4/6 253/4/6
f 253/4/6 250/4/6 254/4/6
f 255/4/6 256/4/6 257/4/6
f 257/4/6 256/4/6 258/4/6
f 259/4/6 260/4/6 261/4/6
f 261/4/6 260/4/6 262/4/6
f 259/4/6 261/4/6 263/4/6
f 262/4/6 260/4/6 264/4/6
f 259/4/6 263/4/6 265/4/6
f 263/4/6 264/4/6 265/4/6
f 264/4/6 260/4/6 266/4/6
f 265/4/6 264/4/6 266/4/6
f 267/4/6 268/4/6 269/4/6
f 269/4/6 268/4/6 270/4/6
