# MagicaVoxel @ ephtracy

# material
mtllib NAKED Mummy body.mtl
usemtl palette

# normals
vn -1 0 0
vn 1 0 0
vn 0 0 1
vn 0 0 -1
vn 0 -1 0
vn 0 1 0

# texcoords
vt 0.00585938 0.5
vt 0.00976562 0.5
vt 0.341797 0.5
vt 0.369141 0.5
vt 0.455078 0.5
vt 0.509766 0.5

# verts
v -3.5 3 1.5
v -3.5 3 0.5
v -3.5 3 -1.5
v -3.5 5 1.5
v -3.5 5 0.5
v -3.5 5 -1.5
v -3.5 7 0.5
v -3.5 7 -0.5
v -3.5 7 -1.5
v -3.5 8 0.5
v -3.5 8 -0.5
v -3.5 9 1.5
v -3.5 9 -1.5
v -2.5 1 1.5
v -2.5 1 -1.5
v -2.5 2 2.5
v -2.5 2 1.5
v -2.5 2 -1.5
v -2.5 2 -2.5
v -2.5 3 1.5
v -2.5 3 0.5
v -2.5 3 -1.5
v -2.5 4 2.5
v -2.5 4 1.5
v -2.5 4 -1.5
v -2.5 4 -2.5
v -2.5 5 1.5
v -2.5 5 -1.5
v -2.5 7 2.5
v -2.5 7 1.5
v -2.5 7 -1.5
v -2.5 9 2.5
v -2.5 9 1.5
v -2.5 9 -1.5
v -2.5 10 2.5
v -2.5 10 1.5
v -2.5 10 -2.5
v -1.5 0 1.5
v -1.5 0 0.5
v -1.5 0 -0.5
v -1.5 0 -1.5
v -1.5 1 2.5
v -1.5 1 1.5
v -1.5 1 0.5
v -1.5 1 -0.5
v -1.5 1 -1.5
v -1.5 1 -2.5
v -1.5 2 2.5
v -1.5 2 1.5
v -1.5 2 -1.5
v -1.5 2 -2.5
v -1.5 3 -2.5
v -1.5 3 -3.5
v -1.5 4 -2.5
v -1.5 4 -3.5
v -1.5 5 3.5
v -1.5 5 2.5
v -1.5 6 -2.5
v -1.5 6 -3.5
v -1.5 7 3.5
v -1.5 7 2.5
v -1.5 9 3.5
v -1.5 9 2.5
v -1.5 9 -2.5
v -1.5 9 -3.5
v -1.5 10 1.5
v -1.5 10 -1.5
v -1.5 11 1.5
v -1.5 11 -1.5
v 1.5 0 1.5
v 1.5 0 0.5
v 1.5 0 -0.5
v 1.5 0 -1.5
v 1.5 1 2.5
v 1.5 1 1.5
v 1.5 1 0.5
v 1.5 1 -0.5
v 1.5 1 -1.5
v 1.5 1 -2.5
v 1.5 2 2.5
v 1.5 2 1.5
v 1.5 2 -1.5
v 1.5 2 -2.5
v 1.5 3 -2.5
v 1.5 3 -3.5
v 1.5 4 -2.5
v 1.5 4 -3.5
v 1.5 5 3.5
v 1.5 5 2.5
v 1.5 6 3.5
v 1.5 6 2.5
v 1.5 7 3.5
v 1.5 7 2.5
v 1.5 7 -2.5
v 1.5 7 -3.5
v 1.5 9 3.5
v 1.5 9 2.5
v 1.5 9 -2.5
v 1.5 9 -3.5
v 1.5 10 1.5
v 1.5 10 0.5
v 1.5 10 -0.5
v 1.5 10 -1.5
v 1.5 11 1.5
v 1.5 11 0.5
v 1.5 11 -0.5
v 1.5 11 -1.5
v 2.5 1 1.5
v 2.5 1 -1.5
v 2.5 2 2.5
v 2.5 2 1.5
v 2.5 2 -1.5
v 2.5 2 -2.5
v 2.5 3 1.5
v 2.5 3 -1.5
v 2.5 4 2.5
v 2.5 4 1.5
v 2.5 4 -1.5
v 2.5 4 -2.5
v 2.5 5 1.5
v 2.5 6 2.5
v 2.5 6 1.5
v 2.5 7 2.5
v 2.5 7 1.5
v 2.5 8 -1.5
v 2.5 9 1.5
v 2.5 9 -0.5
v 2.5 9 -1.5
v 2.5 10 2.5
v 2.5 10 -2.5
v 3.5 3 1.5
v 3.5 3 -1.5
v 3.5 4 1.5
v 3.5 4 -0.5
v 3.5 5 1.5
v 3.5 5 0.5
v 3.5 6 0.5
v 3.5 6 -0.5
v 3.5 7 1.5
v 3.5 7 0.5
v 3.5 8 -0.5
v 3.5 8 -1.5
v 3.5 9 1.5
v 3.5 9 -0.5
v 3.5 9 -1.5
v -1.5 5 3.5
v -1.5 7 3.5
v -1.5 9 3.5
v -0.5 7 3.5
v -0.5 9 3.5
v 0.5 6 3.5
v 0.5 7 3.5
v 1.5 5 3.5
v 1.5 6 3.5
v 1.5 7 3.5
v 1.5 9 3.5
v -2.5 2 2.5
v -2.5 4 2.5
v -2.5 7 2.5
v -2.5 9 2.5
v -2.5 10 2.5
v -1.5 1 2.5
v -1.5 2 2.5
v -1.5 4 2.5
v -1.5 5 2.5
v -1.5 7 2.5
v -1.5 9 2.5
v -1.5 10 2.5
v -0.5 9 2.5
v 1.5 1 2.5
v 1.5 2 2.5
v 1.5 4 2.5
v 1.5 5 2.5
v 1.5 6 2.5
v 1.5 7 2.5
v 1.5 9 2.5
v 2.5 2 2.5
v 2.5 4 2.5
v 2.5 6 2.5
v 2.5 7 2.5
v 2.5 10 2.5
v -3.5 3 1.5
v -3.5 5 1.5
v -3.5 9 1.5
v -2.5 1 1.5
v -2.5 2 1.5
v -2.5 3 1.5
v -2.5 4 1.5
v -2.5 5 1.5
v -2.5 7 1.5
v -2.5 9 1.5
v -1.5 0 1.5
v -1.5 1 1.5
v -1.5 2 1.5
v -1.5 10 1.5
v -1.5 11 1.5
v 1.5 0 1.5
v 1.5 1 1.5
v 1.5 2 1.5
v 1.5 10 1.5
v 1.5 11 1.5
v 2.5 1 1.5
v 2.5 2 1.5
v 2.5 3 1.5
v 2.5 4 1.5
v 2.5 5 1.5
v 2.5 6 1.5
v 2.5 7 1.5
v 2.5 9 1.5
v 3.5 3 1.5
v 3.5 4 1.5
v 3.5 5 1.5
v 3.5 7 1.5
v 3.5 9 1.5
v -3.5 3 -1.5
v -3.5 5 -1.5
v -3.5 7 -1.5
v -3.5 9 -1.5
v -2.5 1 -1.5
v -2.5 2 -1.5
v -2.5 3 -1.5
v -2.5 4 -1.5
v -2.5 5 -1.5
v -2.5 7 -1.5
v -2.5 9 -1.5
v -1.5 0 -1.5
v -1.5 1 -1.5
v -1.5 2 -1.5
v -1.5 10 -1.5
v -1.5 11 -1.5
v 1.5 0 -1.5
v 1.5 1 -1.5
v 1.5 2 -1.5
v 1.5 10 -1.5
v 1.5 11 -1.5
v 2.5 1 -1.5
v 2.5 2 -1.5
v 2.5 3 -1.5
v 2.5 4 -1.5
v 2.5 8 -1.5
v 2.5 9 -1.5
v 3.5 3 -1.5
v 3.5 8 -1.5
v 3.5 9 -1.5
v -2.5 2 -2.5
v -2.5 4 -2.5
v -2.5 10 -2.5
v -1.5 1 -2.5
v -1.5 2 -2.5
v -1.5 3 -2.5
v -1.5 4 -2.5
v -1.5 6 -2.5
v -1.5 9 -2.5
v 0.5 9 -2.5
v 1.5 1 -2.5
v 1.5 2 -2.5
v 1.5 3 -2.5
v 1.5 4 -2.5
v 1.5 7 -2.5
v 1.5 9 -2.5
v 2.5 2 -2.5
v 2.5 4 -2.5
v 2.5 10 -2.5
v -1.5 3 -3.5
v -1.5 4 -3.5
v -1.5 6 -3.5
v -1.5 9 -3.5
v -0.5 5 -3.5
v -0.5 6 -3.5
v 0.5 4 -3.5
v 0.5 5 -3.5
v 0.5 7 -3.5
v 0.5 9 -3.5
v 1.5 3 -3.5
v 1.5 4 -3.5
v 1.5 7 -3.5
v 1.5 9 -3.5
v -1.5 0 1.5
v 1.5 0 1.5
v -1.5 0 0.5
v 1.5 0 0.5
v -1.5 0 -0.5
v 1.5 0 -0.5
v -1.5 0 -1.5
v 1.5 0 -1.5
v -1.5 1 2.5
v 1.5 1 2.5
v -2.5 1 1.5
v -1.5 1 1.5
v 1.5 1 1.5
v 2.5 1 1.5
v -1.5 1 0.5
v 1.5 1 0.5
v -1.5 1 -0.5
v 1.5 1 -0.5
v -2.5 1 -1.5
v -1.5 1 -1.5
v 1.5 1 -1.5
v 2.5 1 -1.5
v -1.5 1 -2.5
v 1.5 1 -2.5
v -2.5 2 2.5
v -1.5 2 2.5
v 1.5 2 2.5
v 2.5 2 2.5
v -2.5 2 1.5
v -1.5 2 1.5
v 1.5 2 1.5
v 2.5 2 1.5
v -2.5 2 -1.5
v -1.5 2 -1.5
v 1.5 2 -1.5
v 2.5 2 -1.5
v -2.5 2 -2.5
v -1.5 2 -2.5
v 1.5 2 -2.5
v 2.5 2 -2.5
v -3.5 3 1.5
v -2.5 3 1.5
v 2.5 3 1.5
v 3.5 3 1.5
v -3.5 3 0.5
v -2.5 3 0.5
v -3.5 3 -1.5
v -2.5 3 -1.5
v 2.5 3 -1.5
v 3.5 3 -1.5
v -1.5 3 -2.5
v 1.5 3 -2.5
v -1.5 3 -3.5
v 1.5 3 -3.5
v -1.5 5 3.5
v 1.5 5 3.5
v -1.5 5 2.5
v 1.5 5 2.5
v -1.5 9 3.5
v -0.5 9 3.5
v 1.5 9 3.5
v -1.5 9 2.5
v -0.5 9 2.5
v 1.5 9 2.5
v -3.5 9 1.5
v -2.5 9 1.5
v 2.5 9 1.5
v 3.5 9 1.5
v 2.5 9 -0.5
v 3.5 9 -0.5
v -3.5 9 -1.5
v -2.5 9 -1.5
v 2.5 9 -1.5
v 3.5 9 -1.5
v -1.5 9 -2.5
v 0.5 9 -2.5
v 1.5 9 -2.5
v -1.5 9 -3.5
v 0.5 9 -3.5
v 1.5 9 -3.5
v -2.5 10 2.5
v -1.5 10 2.5
v 2.5 10 2.5
v -2.5 10 1.5
v -1.5 10 1.5
v 1.5 10 1.5
v 1.5 10 0.5
v 1.5 10 -0.5
v -1.5 10 -1.5
v 1.5 10 -1.5
v -2.5 10 -2.5
v 2.5 10 -2.5
v -1.5 11 1.5
v 1.5 11 1.5
v 0.5 11 0.5
v 1.5 11 0.5
v 0.5 11 -0.5
v 1.5 11 -0.5
v -1.5 11 -1.5
v 1.5 11 -1.5

# faces
f 4/4/1 2/4/1 1/4/1
f 5/3/1 3/3/1 2/3/1
f 5/4/1 2/4/1 4/4/1
f 6/3/1 3/3/1 5/3/1
f 7/3/1 5/3/1 4/3/1
f 7/6/1 6/6/1 5/6/1
f 8/6/1 6/6/1 7/6/1
f 9/6/1 6/6/1 8/6/1
f 10/3/1 7/3/1 4/3/1
f 10/4/1 8/4/1 7/4/1
f 11/3/1 9/3/1 8/3/1
f 11/4/1 8/4/1 10/4/1
f 12/3/1 10/3/1 4/3/1
f 12/3/1 11/3/1 10/3/1
f 13/3/1 9/3/1 11/3/1
f 13/3/1 11/3/1 12/3/1
f 17/3/1 15/3/1 14/3/1
f 18/3/1 15/3/1 17/3/1
f 20/1/1 17/1/1 16/1/1
f 20/1/1 19/1/1 18/1/1
f 20/1/1 18/1/1 17/1/1
f 21/1/1 19/1/1 20/1/1
f 22/1/1 19/1/1 21/1/1
f 23/1/1 20/1/1 16/1/1
f 24/1/1 20/1/1 23/1/1
f 25/1/1 19/1/1 22/1/1
f 26/1/1 19/1/1 25/1/1
f 27/3/1 24/3/1 23/3/1
f 28/3/1 26/3/1 25/3/1
f 29/3/1 27/3/1 23/3/1
f 30/3/1 27/3/1 29/3/1
f 31/3/1 26/3/1 28/3/1
f 32/6/1 30/6/1 29/6/1
f 33/6/1 30/6/1 32/6/1
f 34/3/1 26/3/1 31/3/1
f 35/4/1 33/4/1 32/4/1
f 36/3/1 34/3/1 33/3/1
f 36/4/1 33/4/1 35/4/1
f 37/3/1 26/3/1 34/3/1
f 37/3/1 34/3/1 36/3/1
f 43/2/1 39/2/1 38/2/1
f 44/3/1 40/3/1 39/3/1
f 44/2/1 39/2/1 43/2/1
f 45/2/1 41/2/1 40/2/1
f 45/3/1 40/3/1 44/3/1
f 46/2/1 41/2/1 45/2/1
f 48/2/1 43/2/1 42/2/1
f 49/2/1 43/2/1 48/2/1
f 50/2/1 47/2/1 46/2/1
f 51/2/1 47/2/1 50/2/1
f 54/2/1 53/2/1 52/2/1
f 55/2/1 53/2/1 54/2/1
f 58/4/1 55/4/1 54/4/1
f 59/4/1 55/4/1 58/4/1
f 60/3/1 57/3/1 56/3/1
f 61/3/1 57/3/1 60/3/1
f 62/6/1 61/6/1 60/6/1
f 63/6/1 61/6/1 62/6/1
f 64/3/1 59/3/1 58/3/1
f 65/3/1 59/3/1 64/3/1
f 68/3/1 67/3/1 66/3/1
f 69/3/1 67/3/1 68/3/1
f 70/2/2 71/2/2 75/2/2
f 71/3/2 72/3/2 76/3/2
f 75/2/2 71/2/2 76/2/2
f 72/2/2 73/2/2 77/2/2
f 76/3/2 72/3/2 77/3/2
f 77/2/2 73/2/2 78/2/2
f 74/2/2 75/2/2 80/2/2
f 80/2/2 75/2/2 81/2/2
f 78/2/2 79/2/2 82/2/2
f 82/2/2 79/2/2 83/2/2
f 84/2/2 85/2/2 86/2/2
f 86/2/2 85/2/2 87/2/2
f 88/3/2 89/3/2 90/3/2
f 90/3/2 89/3/2 91/3/2
f 90/6/2 91/6/2 92/6/2
f 92/6/2 91/6/2 93/6/2
f 86/3/2 87/3/2 94/3/2
f 94/3/2 87/3/2 95/3/2
f 92/3/2 93/3/2 96/3/2
f 96/3/2 93/3/2 97/3/2
f 94/6/2 95/6/2 98/6/2
f 98/6/2 95/6/2 99/6/2
f 100/3/2 101/3/2 104/3/2
f 101/4/2 102/4/2 105/4/2
f 104/3/2 101/3/2 105/3/2
f 102/3/2 103/3/2 106/3/2
f 105/4/2 102/4/2 106/4/2
f 106/3/2 103/3/2 107/3/2
f 108/3/2 109/3/2 111/3/2
f 111/3/2 109/3/2 112/3/2
f 110/1/2 111/1/2 114/1/2
f 112/1/2 113/1/2 114/1/2
f 111/1/2 112/1/2 114/1/2
f 114/1/2 113/1/2 115/1/2
f 110/1/2 114/1/2 116/1/2
f 116/1/2 114/1/2 117/1/2
f 115/1/2 113/1/2 118/1/2
f 118/1/2 113/1/2 119/1/2
f 116/3/2 117/3/2 120/3/2
f 116/3/2 120/3/2 121/3/2
f 121/3/2 120/3/2 122/3/2
f 121/6/2 122/6/2 123/6/2
f 123/6/2 122/6/2 124/6/2
f 118/3/2 119/3/2 125/3/2
f 123/3/2 124/3/2 126/3/2
f 125/3/2 119/3/2 128/3/2
f 126/3/2 127/3/2 129/3/2
f 127/3/2 128/3/2 129/3/2
f 123/3/2 126/3/2 129/3/2
f 128/3/2 119/3/2 130/3/2
f 129/3/2 128/3/2 130/3/2
f 131/3/2 132/3/2 133/3/2
f 133/3/2 132/3/2 134/3/2
f 133/4/2 134/4/2 135/4/2
f 135/4/2 134/4/2 136/4/2
f 135/6/2 136/6/2 137/6/2
f 136/4/2 134/4/2 137/4/2
f 134/3/2 132/3/2 138/3/2
f 137/4/2 134/4/2 138/4/2
f 135/6/2 137/6/2 139/6/2
f 137/3/2 138/3/2 140/3/2
f 139/6/2 137/6/2 140/6/2
f 138/3/2 132/3/2 141/3/2
f 140/3/2 138/3/2 141/3/2
f 139/3/2 140/3/2 141/3/2
f 141/3/2 132/3/2 142/3/2
f 139/3/2 141/3/2 143/3/2
f 141/4/2 142/4/2 144/4/2
f 143/3/2 141/3/2 144/3/2
f 144/4/2 142/4/2 145/4/2
f 149/3/3 147/3/3 146/3/3
f 149/6/3 148/6/3 147/6/3
f 150/6/3 148/6/3 149/6/3
f 151/3/3 149/3/3 146/3/3
f 151/3/3 150/3/3 149/3/3
f 152/3/3 150/3/3 151/3/3
f 153/3/3 151/3/3 146/3/3
f 154/6/3 152/6/3 151/6/3
f 154/3/3 151/3/3 153/3/3
f 155/3/3 150/3/3 152/3/3
f 155/6/3 152/6/3 154/6/3
f 156/3/3 150/3/3 155/3/3
f 163/1/3 158/1/3 157/1/3
f 164/3/3 159/3/3 158/3/3
f 164/1/3 158/1/3 163/1/3
f 165/3/3 159/3/3 164/3/3
f 166/6/3 160/6/3 159/6/3
f 166/3/3 159/3/3 165/3/3
f 167/4/3 161/4/3 160/4/3
f 167/6/3 160/6/3 166/6/3
f 168/4/3 161/4/3 167/4/3
f 169/3/3 168/3/3 167/3/3
f 170/2/3 163/2/3 162/2/3
f 170/2/3 164/2/3 163/2/3
f 171/2/3 164/2/3 170/2/3
f 172/3/3 165/3/3 164/3/3
f 172/2/3 164/2/3 171/2/3
f 173/3/3 165/3/3 172/3/3
f 176/3/3 168/3/3 169/3/3
f 177/1/3 172/1/3 171/1/3
f 178/3/3 173/3/3 172/3/3
f 178/1/3 172/1/3 177/1/3
f 178/3/3 174/3/3 173/3/3
f 179/6/3 175/6/3 174/6/3
f 179/3/3 174/3/3 178/3/3
f 180/3/3 176/3/3 175/3/3
f 180/6/3 175/6/3 179/6/3
f 181/3/3 168/3/3 176/3/3
f 181/3/3 176/3/3 180/3/3
f 187/4/3 183/4/3 182/4/3
f 188/4/3 183/4/3 187/4/3
f 189/3/3 184/3/3 183/3/3
f 189/4/3 183/4/3 188/4/3
f 190/3/3 184/3/3 189/3/3
f 191/3/3 184/3/3 190/3/3
f 193/3/3 186/3/3 185/3/3
f 194/3/3 186/3/3 193/3/3
f 197/2/3 193/2/3 192/2/3
f 198/2/3 193/2/3 197/2/3
f 200/3/3 196/3/3 195/3/3
f 201/3/3 196/3/3 200/3/3
f 202/3/3 199/3/3 198/3/3
f 203/3/3 199/3/3 202/3/3
f 210/3/3 205/3/3 204/3/3
f 211/4/3 206/4/3 205/4/3
f 211/3/3 205/3/3 210/3/3
f 212/6/3 208/6/3 207/6/3
f 212/4/3 206/4/3 211/4/3
f 212/6/3 207/6/3 206/6/3
f 213/3/3 209/3/3 208/3/3
f 213/6/3 208/6/3 212/6/3
f 214/3/3 209/3/3 213/3/3
f 215/3/4 216/3/4 221/3/4
f 221/3/4 216/3/4 222/3/4
f 216/6/4 217/6/4 223/6/4
f 222/3/4 216/3/4 223/3/4
f 217/3/4 218/3/4 224/3/4
f 223/6/4 217/6/4 224/6/4
f 224/3/4 218/3/4 225/3/4
f 219/3/4 220/3/4 227/3/4
f 227/3/4 220/3/4 228/3/4
f 226/2/4 227/2/4 231/2/4
f 231/2/4 227/2/4 232/2/4
f 229/3/4 230/3/4 234/3/4
f 234/3/4 230/3/4 235/3/4
f 232/3/4 233/3/4 236/3/4
f 236/3/4 233/3/4 237/3/4
f 238/3/4 239/3/4 242/3/4
f 239/3/4 240/3/4 242/3/4
f 240/4/4 241/4/4 243/4/4
f 242/3/4 240/3/4 243/3/4
f 243/4/4 241/4/4 244/4/4
f 245/1/4 246/1/4 249/1/4
f 249/1/4 246/1/4 250/1/4
f 246/3/4 247/3/4 251/3/4
f 250/1/4 246/1/4 251/1/4
f 251/3/4 247/3/4 252/3/4
f 252/3/4 247/3/4 253/3/4
f 253/3/4 247/3/4 254/3/4
f 249/2/4 250/2/4 255/2/4
f 248/2/4 249/2/4 255/2/4
f 255/2/4 250/2/4 256/2/4
f 256/2/4 250/2/4 257/2/4
f 254/3/4 247/3/4 260/3/4
f 256/1/4 257/1/4 261/1/4
f 257/1/4 258/1/4 261/1/4
f 258/3/4 259/3/4 262/3/4
f 261/1/4 258/1/4 262/1/4
f 259/3/4 260/3/4 262/3/4
f 260/3/4 247/3/4 263/3/4
f 262/3/4 260/3/4 263/3/4
f 265/4/4 266/4/4 268/4/4
f 266/3/4 267/3/4 269/3/4
f 268/4/4 266/4/4 269/4/4
f 264/2/4 265/2/4 270/2/4
f 265/4/4 268/4/4 270/4/4
f 268/3/4 269/3/4 271/3/4
f 270/4/4 268/4/4 271/4/4
f 269/3/4 267/3/4 272/3/4
f 271/3/4 269/3/4 272/3/4
f 272/3/4 267/3/4 273/3/4
f 264/2/4 270/2/4 274/2/4
f 270/3/4 271/3/4 275/3/4
f 274/2/4 270/2/4 275/2/4
f 271/3/4 272/3/4 275/3/4
f 272/6/4 273/6/4 276/6/4
f 275/3/4 272/3/4 276/3/4
f 276/6/4 273/6/4 277/6/4
f 280/2/5 279/2/5 278/2/5
f 281/2/5 279/2/5 280/2/5
f 282/3/5 281/3/5 280/3/5
f 283/3/5 281/3/5 282/3/5
f 284/2/5 283/2/5 282/2/5
f 285/2/5 283/2/5 284/2/5
f 289/2/5 287/2/5 286/2/5
f 290/2/5 287/2/5 289/2/5
f 292/3/5 289/3/5 288/3/5
f 293/3/5 291/3/5 290/3/5
f 294/3/5 292/3/5 288/3/5
f 295/3/5 291/3/5 293/3/5
f 296/3/5 294/3/5 288/3/5
f 297/3/5 294/3/5 296/3/5
f 298/3/5 291/3/5 295/3/5
f 299/3/5 291/3/5 298/3/5
f 300/2/5 298/2/5 297/2/5
f 301/2/5 298/2/5 300/2/5
f 306/1/5 303/1/5 302/1/5
f 307/1/5 303/1/5 306/1/5
f 308/1/5 305/1/5 304/1/5
f 309/1/5 305/1/5 308/1/5
f 314/1/5 311/1/5 310/1/5
f 315/1/5 311/1/5 314/1/5
f 316/1/5 313/1/5 312/1/5
f 317/1/5 313/1/5 316/1/5
f 322/4/5 319/4/5 318/4/5
f 323/4/5 319/4/5 322/4/5
f 324/3/5 323/3/5 322/3/5
f 325/3/5 323/3/5 324/3/5
f 326/3/5 321/3/5 320/3/5
f 327/3/5 321/3/5 326/3/5
f 330/2/5 329/2/5 328/2/5
f 331/2/5 329/2/5 330/2/5
f 334/3/5 333/3/5 332/3/5
f 335/3/5 333/3/5 334/3/5
f 336/6/6 337/6/6 339/6/6
f 337/3/6 338/3/6 340/3/6
f 339/6/6 337/6/6 340/6/6
f 340/3/6 338/3/6 341/3/6
f 344/3/6 345/3/6 346/3/6
f 346/3/6 345/3/6 347/3/6
f 342/3/6 343/3/6 348/3/6
f 348/3/6 343/3/6 349/3/6
f 346/4/6 347/4/6 350/4/6
f 350/4/6 347/4/6 351/4/6
f 352/3/6 353/3/6 355/3/6
f 353/6/6 354/6/6 356/6/6
f 355/3/6 353/3/6 356/3/6
f 356/6/6 354/6/6 357/6/6
f 358/4/6 359/4/6 361/4/6
f 359/3/6 360/3/6 362/3/6
f 361/4/6 359/4/6 362/4/6
f 362/3/6 360/3/6 363/3/6
f 363/3/6 360/3/6 364/3/6
f 364/3/6 360/3/6 365/3/6
f 361/3/6 362/3/6 366/3/6
f 365/3/6 360/3/6 367/3/6
f 361/3/6 366/3/6 368/3/6
f 366/3/6 367/3/6 368/3/6
f 367/3/6 360/3/6 369/3/6
f 368/3/6 367/3/6 369/3/6
f 370/3/6 371/3/6 372/3/6
f 372/3/6 371/3/6 373/3/6
f 370/3/6 372/3/6 374/3/6
f 372/4/6 373/4/6 374/4/6
f 374/4/6 373/4/6 375/4/6
f 370/3/6 374/3/6 376/3/6
f 374/3/6 375/3/6 376/3/6
f 376/3/6 375/3/6 377/3/6
