# MagicaVoxel @ ephtracy

# material
mtllib NAKED Mummy legs right.mtl
usemtl palette

# normals
vn -1 0 0
vn 1 0 0
vn 0 0 1
vn 0 0 -1
vn 0 -1 0
vn 0 1 0

# texcoords
vt 0.455078 0.5

# verts
v -5 0 5
v -5 0 -2
v -5 2 5
v -5 2 4
v -5 3 4
v -5 3 3
v -5 4 3
v -5 4 -2
v -4 0 6
v -4 0 5
v -4 0 -2
v -4 0 -6
v -4 2 6
v -4 2 5
v -4 2 4
v -4 3 4
v -4 3 3
v -4 4 5
v -4 4 4
v -4 4 3
v -4 4 -2
v -4 5 4
v -4 5 -2
v -4 5 -5
v -4 5 -6
v -4 6 -2
v -4 6 -5
v -3 0 7
v -3 0 6
v -3 0 -6
v -3 0 -7
v -3 2 7
v -3 2 6
v -3 2 5
v -3 4 6
v -3 4 5
v -3 4 4
v -3 5 5
v -3 5 4
v -3 5 -0
v -3 5 -2
v -3 5 -5
v -3 5 -6
v -3 5 -7
v -3 6 -0
v -3 6 -1
v -3 6 -2
v -3 6 -5
v -3 6 -6
v -3 8 -4
v -3 8 -5
v -3 13 -1
v -3 13 -4
v -2 0 8
v -2 0 7
v -2 0 -7
v -2 0 -8
v -2 2 8
v -2 2 7
v -2 2 6
v -2 3 7
v -2 3 6
v -2 4 -7
v -2 4 -8
v -2 6 -0
v -2 6 -1
v -2 6 -5
v -2 6 -6
v -2 7 -5
v -2 7 -6
v -2 8 -4
v -2 8 -5
v -2 13 -0
v -2 13 -1
v -2 13 -2
v -2 13 -4
v -2 15 -2
v -2 15 -5
v -1 3 7
v -1 3 6
v -1 4 7
v -1 4 6
v -1 12 -5
v -1 12 -6
v -1 13 -1
v -1 13 -2
v -1 15 -1
v -1 15 -2
v -1 15 -5
v -1 16 -2
v -1 16 -3
v -1 16 -5
v -1 16 -6
v -1 17 -3
v -1 17 -5
v 0 15 -6
v 0 15 -7
v 0 16 -5
v 0 16 -6
v 0 17 -4
v 0 17 -5
v 0 17 -7
v 0 17 -9
v 0 18 -4
v 0 18 -9
v 1 2 8
v 1 2 7
v 1 3 8
v 1 3 7
v 1 16 -7
v 1 16 -9
v 1 17 -7
v 1 17 -9
v 1 18 -5
v 1 18 -9
v 1 19 -5
v 1 19 -9
v 2 0 9
v 2 0 8
v 2 3 9
v 2 3 8
v 2 3 6
v 2 4 8
v 2 4 6
v 1 0 -7
v 1 0 -8
v 1 3 7
v 1 3 6
v 1 4 7
v 1 4 6
v 1 4 -7
v 1 4 -8
v 1 5 -0
v 1 5 -1
v 1 6 -5
v 1 6 -6
v 1 7 -4
v 1 7 -5
v 1 7 -6
v 1 12 -5
v 1 12 -6
v 1 13 -0
v 1 13 -1
v 1 13 -2
v 1 13 -4
v 1 13 -5
v 1 15 -1
v 1 15 -2
v 1 15 -4
v 1 15 -5
v 1 15 -6
v 1 16 -2
v 1 16 -3
v 1 17 -3
v 1 17 -4
v 2 0 -1
v 2 0 -3
v 2 0 -6
v 2 0 -7
v 2 3 6
v 2 3 5
v 2 4 6
v 2 4 5
v 2 4 4
v 2 4 -0
v 2 4 -1
v 2 4 -3
v 2 4 -4
v 2 5 5
v 2 5 4
v 2 5 -0
v 2 5 -1
v 2 5 -5
v 2 5 -6
v 2 5 -7
v 2 6 -4
v 2 6 -5
v 2 6 -6
v 2 7 -4
v 2 7 -5
v 2 13 -1
v 2 13 -2
v 2 13 -4
v 2 13 -5
v 2 15 -2
v 2 15 -4
v 2 15 -5
v 2 15 -7
v 2 16 -7
v 2 17 -5
v 2 17 -7
v 2 18 -4
v 2 18 -5
v 2 18 -8
v 2 18 -9
v 2 19 -8
v 2 19 -9
v 3 0 -0
v 3 0 -1
v 3 0 -3
v 3 0 -6
v 3 3 1
v 3 3 -0
v 3 4 4
v 3 4 1
v 3 4 -0
v 3 4 -1
v 3 4 -3
v 3 4 -4
v 3 5 4
v 3 5 -0
v 3 5 -5
v 3 5 -6
v 3 6 -4
v 3 6 -5
v 3 16 -7
v 3 16 -9
v 3 17 -5
v 3 17 -7
v 3 18 -8
v 3 18 -9
v 3 19 -5
v 3 19 -8
v 4 0 9
v 4 0 8
v 4 0 5
v 4 0 -0
v 4 2 6
v 4 2 5
v 4 3 9
v 4 3 8
v 4 3 6
v 4 3 5
v 4 3 1
v 4 3 -0
v 4 4 8
v 4 4 6
v 4 4 5
v 4 4 1
v 5 0 8
v 5 0 5
v 5 2 6
v 5 2 5
v 5 3 8
v 5 3 6
v 2 0 9
v 2 3 9
v 4 0 9
v 4 3 9
v -2 0 8
v -2 2 8
v 1 2 8
v 1 3 8
v 2 0 8
v 2 3 8
v 2 4 8
v 4 0 8
v 4 3 8
v 4 4 8
v 5 0 8
v 5 3 8
v -3 0 7
v -3 2 7
v -2 0 7
v -2 2 7
v -2 3 7
v -1 3 7
v -1 4 7
v 1 2 7
v 1 3 7
v 1 4 7
v -4 0 6
v -4 2 6
v -3 0 6
v -3 2 6
v -3 4 6
v -2 2 6
v -2 3 6
v -1 3 6
v -1 4 6
v 1 3 6
v 1 4 6
v 2 3 6
v 2 4 6
v -5 0 5
v -5 2 5
v -4 0 5
v -4 2 5
v -4 4 5
v -3 2 5
v -3 4 5
v -3 5 5
v 2 3 5
v 2 4 5
v 2 5 5
v 4 3 5
v 4 4 5
v -5 2 4
v -5 3 4
v -4 2 4
v -4 3 4
v -4 4 4
v -4 5 4
v -3 4 4
v -3 5 4
v 2 4 4
v 2 5 4
v 3 4 4
v 3 5 4
v -5 3 3
v -5 4 3
v -4 3 3
v -4 4 3
v -3 5 -0
v -3 6 -0
v -2 6 -0
v -2 13 -0
v 1 5 -0
v 1 13 -0
v -3 6 -1
v -3 13 -1
v -2 6 -1
v -2 13 -1
v -1 13 -1
v -1 15 -1
v 1 5 -1
v 1 13 -1
v 1 15 -1
v 2 5 -1
v 2 13 -1
v -4 5 -2
v -4 6 -2
v -3 5 -2
v -3 6 -2
v -2 13 -2
v -2 15 -2
v -1 13 -2
v -1 15 -2
v -1 16 -2
v 1 13 -2
v 1 15 -2
v 1 16 -2
v 2 13 -2
v 2 15 -2
v -1 16 -3
v -1 17 -3
v 1 16 -3
v 1 17 -3
v 2 0 -3
v 2 4 -3
v 3 0 -3
v 3 4 -3
v 0 17 -4
v 0 18 -4
v 1 15 -4
v 1 17 -4
v 2 4 -4
v 2 6 -4
v 2 15 -4
v 2 18 -4
v 3 4 -4
v 3 6 -4
v 1 18 -5
v 1 19 -5
v 2 17 -5
v 2 18 -5
v 3 17 -5
v 3 19 -5
v 2 16 -7
v 2 17 -7
v 3 16 -7
v 3 17 -7
v 2 3 6
v 2 4 6
v 4 2 6
v 4 3 6
v 4 4 6
v 5 2 6
v 5 3 6
v 4 0 5
v 4 2 5
v 5 0 5
v 5 2 5
v 3 3 1
v 3 4 1
v 4 3 1
v 4 4 1
v 2 4 -0
v 2 5 -0
v 3 0 -0
v 3 3 -0
v 3 4 -0
v 3 5 -0
v 4 0 -0
v 4 3 -0
v 2 0 -1
v 2 4 -1
v 3 0 -1
v 3 4 -1
v -5 0 -2
v -5 4 -2
v -4 0 -2
v -4 4 -2
v -3 8 -4
v -3 13 -4
v -2 8 -4
v -2 13 -4
v 1 7 -4
v 1 13 -4
v 2 7 -4
v 2 13 -4
v -4 5 -5
v -4 6 -5
v -3 5 -5
v -3 6 -5
v -3 8 -5
v -2 6 -5
v -2 7 -5
v -2 8 -5
v -2 15 -5
v -1 12 -5
v -1 15 -5
v -1 16 -5
v -1 17 -5
v 0 16 -5
v 0 17 -5
v 1 6 -5
v 1 7 -5
v 1 12 -5
v 1 13 -5
v 1 15 -5
v 2 5 -5
v 2 6 -5
v 2 7 -5
v 2 13 -5
v 2 15 -5
v 3 5 -5
v 3 6 -5
v -4 0 -6
v -4 5 -6
v -3 0 -6
v -3 5 -6
v -3 6 -6
v -2 6 -6
v -2 7 -6
v -1 12 -6
v -1 16 -6
v 0 15 -6
v 0 16 -6
v 1 6 -6
v 1 7 -6
v 1 12 -6
v 1 15 -6
v 2 0 -6
v 2 5 -6
v 2 6 -6
v 3 0 -6
v 3 5 -6
v -3 0 -7
v -3 5 -7
v -2 0 -7
v -2 4 -7
v 0 15 -7
v 0 17 -7
v 1 0 -7
v 1 4 -7
v 1 16 -7
v 1 17 -7
v 2 0 -7
v 2 5 -7
v 2 15 -7
v 2 16 -7
v -2 0 -8
v -2 4 -8
v 1 0 -8
v 1 4 -8
v 2 18 -8
v 2 19 -8
v 3 18 -8
v 3 19 -8
v 0 17 -9
v 0 18 -9
v 1 16 -9
v 1 17 -9
v 1 18 -9
v 1 19 -9
v 2 18 -9
v 2 19 -9
v 3 16 -9
v 3 18 -9
v 2 0 9
v 4 0 9
v -2 0 8
v 2 0 8
v 4 0 8
v 5 0 8
v -3 0 7
v -2 0 7
v -4 0 6
v -3 0 6
v -5 0 5
v -4 0 5
v 4 0 5
v 5 0 5
v 3 0 -0
v 4 0 -0
v 2 0 -1
v 3 0 -1
v -5 0 -2
v -4 0 -2
v 2 0 -3
v 3 0 -3
v -4 0 -6
v -3 0 -6
v 2 0 -6
v 3 0 -6
v -3 0 -7
v -2 0 -7
v 1 0 -7
v 2 0 -7
v -2 0 -8
v 1 0 -8
v -1 12 -5
v 1 12 -5
v -1 12 -6
v 1 12 -6
v 1 13 -4
v 2 13 -4
v 1 13 -5
v 2 13 -5
v 1 15 -5
v 2 15 -5
v 0 15 -6
v 1 15 -6
v 0 15 -7
v 2 15 -7
v 1 16 -7
v 2 16 -7
v 3 16 -7
v 1 16 -9
v 3 16 -9
v 2 17 -5
v 3 17 -5
v 0 17 -7
v 1 17 -7
v 2 17 -7
v 3 17 -7
v 0 17 -9
v 1 17 -9
v -2 2 8
v 1 2 8
v -3 2 7
v -2 2 7
v 1 2 7
v -4 2 6
v -3 2 6
v -2 2 6
v 4 2 6
v 5 2 6
v -5 2 5
v -4 2 5
v -3 2 5
v 4 2 5
v 5 2 5
v -5 2 4
v -4 2 4
v 2 3 9
v 4 3 9
v 1 3 8
v 2 3 8
v 4 3 8
v 5 3 8
v -2 3 7
v -1 3 7
v 1 3 7
v -2 3 6
v -1 3 6
v 1 3 6
v 2 3 6
v 4 3 6
v 5 3 6
v 2 3 5
v 4 3 5
v -5 3 4
v -4 3 4
v -5 3 3
v -4 3 3
v 3 3 1
v 4 3 1
v 3 3 -0
v 4 3 -0
v 2 4 8
v 4 4 8
v -1 4 7
v 1 4 7
v -3 4 6
v -1 4 6
v 1 4 6
v 2 4 6
v 4 4 6
v -4 4 5
v -3 4 5
v 2 4 5
v 4 4 5
v -4 4 4
v -3 4 4
v 2 4 4
v 3 4 4
v -5 4 3
v -4 4 3
v 3 4 1
v 4 4 1
v 2 4 -0
v 3 4 -0
v 2 4 -1
v 3 4 -1
v -5 4 -2
v -4 4 -2
v 2 4 -3
v 3 4 -3
v 2 4 -4
v 3 4 -4
v -2 4 -7
v 1 4 -7
v -2 4 -8
v 1 4 -8
v -3 5 5
v 2 5 5
v -4 5 4
v -3 5 4
v 2 5 4
v 3 5 4
v -3 5 -0
v 1 5 -0
v 2 5 -0
v 3 5 -0
v 1 5 -1
v 2 5 -1
v -4 5 -2
v -3 5 -2
v -4 5 -5
v -3 5 -5
v 2 5 -5
v 3 5 -5
v -4 5 -6
v -3 5 -6
v 2 5 -6
v 3 5 -6
v -3 5 -7
v 2 5 -7
v -3 6 -0
v -2 6 -0
v -3 6 -1
v -2 6 -1
v -4 6 -2
v -3 6 -2
v 2 6 -4
v 3 6 -4
v -4 6 -5
v -3 6 -5
v -2 6 -5
v 1 6 -5
v 2 6 -5
v 3 6 -5
v -3 6 -6
v -2 6 -6
v 1 6 -6
v 2 6 -6
v 1 7 -4
v 2 7 -4
v -2 7 -5
v 1 7 -5
v 2 7 -5
v -2 7 -6
v 1 7 -6
v -3 8 -4
v -2 8 -4
v -3 8 -5
v -2 8 -5
v -2 13 -0
v 1 13 -0
v -3 13 -1
v -2 13 -1
v -1 13 -1
v 1 13 -1
v 2 13 -1
v -2 13 -2
v -1 13 -2
v 1 13 -2
v 2 13 -2
v -3 13 -4
v -2 13 -4
v -1 15 -1
v 1 15 -1
v -2 15 -2
v -1 15 -2
v 1 15 -2
v 2 15 -2
v 1 15 -4
v 2 15 -4
v -2 15 -5
v -1 15 -5
v -1 16 -2
v 1 16 -2
v -1 16 -3
v 1 16 -3
v -1 16 -5
v 0 16 -5
v -1 16 -6
v 0 16 -6
v -1 17 -3
v 1 17 -3
v 0 17 -4
v 1 17 -4
v -1 17 -5
v 0 17 -5
v 0 18 -4
v 2 18 -4
v 1 18 -5
v 2 18 -5
v 2 18 -8
v 3 18 -8
v 0 18 -9
v 1 18 -9
v 2 18 -9
v 3 18 -9
v 1 19 -5
v 3 19 -5
v 2 19 -8
v 3 19 -8
v 1 19 -9
v 2 19 -9

# faces
f 3/1/1 2/1/1 1/1/1
f 4/1/1 2/1/1 3/1/1
f 5/1/1 2/1/1 4/1/1
f 6/1/1 2/1/1 5/1/1
f 7/1/1 2/1/1 6/1/1
f 8/1/1 2/1/1 7/1/1
f 13/1/1 10/1/1 9/1/1
f 14/1/1 10/1/1 13/1/1
f 16/1/1 15/1/1 14/1/1
f 18/1/1 16/1/1 14/1/1
f 18/1/1 17/1/1 16/1/1
f 19/1/1 17/1/1 18/1/1
f 20/1/1 17/1/1 19/1/1
f 21/1/1 12/1/1 11/1/1
f 22/1/1 20/1/1 19/1/1
f 22/1/1 21/1/1 20/1/1
f 23/1/1 12/1/1 21/1/1
f 23/1/1 21/1/1 22/1/1
f 24/1/1 12/1/1 23/1/1
f 25/1/1 12/1/1 24/1/1
f 26/1/1 24/1/1 23/1/1
f 27/1/1 24/1/1 26/1/1
f 32/1/1 29/1/1 28/1/1
f 33/1/1 29/1/1 32/1/1
f 35/1/1 34/1/1 33/1/1
f 36/1/1 34/1/1 35/1/1
f 38/1/1 37/1/1 36/1/1
f 39/1/1 37/1/1 38/1/1
f 43/1/1 31/1/1 30/1/1
f 44/1/1 31/1/1 43/1/1
f 45/1/1 41/1/1 40/1/1
f 46/1/1 41/1/1 45/1/1
f 47/1/1 41/1/1 46/1/1
f 48/1/1 43/1/1 42/1/1
f 49/1/1 43/1/1 48/1/1
f 50/1/1 47/1/1 46/1/1
f 50/1/1 48/1/1 47/1/1
f 51/1/1 48/1/1 50/1/1
f 52/1/1 50/1/1 46/1/1
f 53/1/1 50/1/1 52/1/1
f 58/1/1 55/1/1 54/1/1
f 59/1/1 55/1/1 58/1/1
f 61/1/1 60/1/1 59/1/1
f 62/1/1 60/1/1 61/1/1
f 63/1/1 57/1/1 56/1/1
f 64/1/1 57/1/1 63/1/1
f 69/1/1 68/1/1 67/1/1
f 70/1/1 68/1/1 69/1/1
f 73/1/1 66/1/1 65/1/1
f 74/1/1 66/1/1 73/1/1
f 76/1/1 72/1/1 71/1/1
f 77/1/1 76/1/1 75/1/1
f 78/1/1 72/1/1 76/1/1
f 78/1/1 76/1/1 77/1/1
f 81/1/1 80/1/1 79/1/1
f 82/1/1 80/1/1 81/1/1
f 87/1/1 86/1/1 85/1/1
f 88/1/1 86/1/1 87/1/1
f 89/1/1 84/1/1 83/1/1
f 90/1/1 89/1/1 88/1/1
f 91/1/1 89/1/1 90/1/1
f 92/1/1 84/1/1 89/1/1
f 92/1/1 89/1/1 91/1/1
f 93/1/1 84/1/1 92/1/1
f 94/1/1 92/1/1 91/1/1
f 95/1/1 92/1/1 94/1/1
f 99/1/1 97/1/1 96/1/1
f 101/1/1 99/1/1 98/1/1
f 102/1/1 97/1/1 99/1/1
f 102/1/1 99/1/1 101/1/1
f 104/1/1 101/1/1 100/1/1
f 104/1/1 103/1/1 102/1/1
f 104/1/1 102/1/1 101/1/1
f 105/1/1 103/1/1 104/1/1
f 108/1/1 107/1/1 106/1/1
f 109/1/1 107/1/1 108/1/1
f 112/1/1 111/1/1 110/1/1
f 113/1/1 111/1/1 112/1/1
f 116/1/1 115/1/1 114/1/1
f 117/1/1 115/1/1 116/1/1
f 120/1/1 119/1/1 118/1/1
f 121/1/1 119/1/1 120/1/1
f 123/1/1 122/1/1 121/1/1
f 124/1/1 122/1/1 123/1/1
f 127/1/2 128/1/2 129/1/2
f 129/1/2 128/1/2 130/1/2
f 125/1/2 126/1/2 131/1/2
f 131/1/2 126/1/2 132/1/2
f 135/1/2 136/1/2 138/1/2
f 138/1/2 136/1/2 139/1/2
f 137/1/2 138/1/2 140/1/2
f 133/1/2 134/1/2 142/1/2
f 142/1/2 134/1/2 143/1/2
f 140/1/2 141/1/2 145/1/2
f 137/1/2 140/1/2 145/1/2
f 145/1/2 141/1/2 146/1/2
f 143/1/2 144/1/2 147/1/2
f 147/1/2 144/1/2 148/1/2
f 146/1/2 141/1/2 150/1/2
f 150/1/2 141/1/2 151/1/2
f 148/1/2 149/1/2 152/1/2
f 152/1/2 149/1/2 153/1/2
f 153/1/2 149/1/2 154/1/2
f 154/1/2 149/1/2 155/1/2
f 160/1/2 161/1/2 162/1/2
f 162/1/2 161/1/2 163/1/2
f 156/1/2 157/1/2 166/1/2
f 166/1/2 157/1/2 167/1/2
f 163/1/2 164/1/2 169/1/2
f 169/1/2 164/1/2 170/1/2
f 167/1/2 168/1/2 171/1/2
f 166/1/2 167/1/2 171/1/2
f 165/1/2 166/1/2 171/1/2
f 171/1/2 168/1/2 172/1/2
f 158/1/2 159/1/2 174/1/2
f 174/1/2 159/1/2 175/1/2
f 172/1/2 168/1/2 176/1/2
f 173/1/2 174/1/2 177/1/2
f 177/1/2 174/1/2 178/1/2
f 172/1/2 176/1/2 179/1/2
f 176/1/2 177/1/2 179/1/2
f 179/1/2 177/1/2 180/1/2
f 172/1/2 179/1/2 181/1/2
f 181/1/2 179/1/2 182/1/2
f 182/1/2 179/1/2 183/1/2
f 183/1/2 184/1/2 185/1/2
f 182/1/2 183/1/2 185/1/2
f 185/1/2 184/1/2 186/1/2
f 186/1/2 184/1/2 187/1/2
f 186/1/2 187/1/2 189/1/2
f 187/1/2 188/1/2 189/1/2
f 186/1/2 189/1/2 190/1/2
f 190/1/2 189/1/2 191/1/2
f 186/1/2 190/1/2 192/1/2
f 192/1/2 190/1/2 193/1/2
f 194/1/2 195/1/2 196/1/2
f 196/1/2 195/1/2 197/1/2
f 198/1/2 199/1/2 203/1/2
f 202/1/2 203/1/2 205/1/2
f 203/1/2 199/1/2 206/1/2
f 205/1/2 203/1/2 206/1/2
f 206/1/2 199/1/2 207/1/2
f 200/1/2 201/1/2 208/1/2
f 208/1/2 201/1/2 209/1/2
f 204/1/2 205/1/2 210/1/2
f 205/1/2 206/1/2 210/1/2
f 210/1/2 206/1/2 211/1/2
f 209/1/2 201/1/2 212/1/2
f 212/1/2 201/1/2 213/1/2
f 209/1/2 212/1/2 214/1/2
f 214/1/2 212/1/2 215/1/2
f 216/1/2 217/1/2 219/1/2
f 219/1/2 217/1/2 220/1/2
f 218/1/2 219/1/2 220/1/2
f 220/1/2 217/1/2 221/1/2
f 218/1/2 220/1/2 222/1/2
f 222/1/2 220/1/2 223/1/2
f 226/1/2 227/1/2 229/1/2
f 224/1/2 225/1/2 230/1/2
f 230/1/2 225/1/2 231/1/2
f 228/1/2 229/1/2 232/1/2
f 229/1/2 227/1/2 233/1/2
f 232/1/2 229/1/2 233/1/2
f 233/1/2 227/1/2 234/1/2
f 234/1/2 227/1/2 235/1/2
f 231/1/2 232/1/2 236/1/2
f 236/1/2 232/1/2 237/1/2
f 233/1/2 234/1/2 238/1/2
f 238/1/2 234/1/2 239/1/2
f 240/1/2 241/1/2 242/1/2
f 242/1/2 241/1/2 243/1/2
f 240/1/2 242/1/2 244/1/2
f 244/1/2 242/1/2 245/1/2
f 248/1/3 247/1/3 246/1/3
f 249/1/3 247/1/3 248/1/3
f 252/1/3 251/1/3 250/1/3
f 254/1/3 252/1/3 250/1/3
f 254/1/3 253/1/3 252/1/3
f 255/1/3 253/1/3 254/1/3
f 258/1/3 256/1/3 255/1/3
f 259/1/3 256/1/3 258/1/3
f 260/1/3 258/1/3 257/1/3
f 261/1/3 258/1/3 260/1/3
f 264/1/3 263/1/3 262/1/3
f 265/1/3 263/1/3 264/1/3
f 267/1/3 266/1/3 265/1/3
f 269/1/3 267/1/3 265/1/3
f 269/1/3 268/1/3 267/1/3
f 270/1/3 268/1/3 269/1/3
f 271/1/3 268/1/3 270/1/3
f 274/1/3 273/1/3 272/1/3
f 275/1/3 273/1/3 274/1/3
f 277/1/3 276/1/3 275/1/3
f 278/1/3 276/1/3 277/1/3
f 279/1/3 276/1/3 278/1/3
f 280/1/3 276/1/3 279/1/3
f 283/1/3 282/1/3 281/1/3
f 284/1/3 282/1/3 283/1/3
f 287/1/3 286/1/3 285/1/3
f 288/1/3 286/1/3 287/1/3
f 290/1/3 289/1/3 288/1/3
f 291/1/3 289/1/3 290/1/3
f 294/1/3 292/1/3 291/1/3
f 295/1/3 292/1/3 294/1/3
f 296/1/3 294/1/3 293/1/3
f 297/1/3 294/1/3 296/1/3
f 300/1/3 299/1/3 298/1/3
f 301/1/3 299/1/3 300/1/3
f 304/1/3 303/1/3 302/1/3
f 305/1/3 303/1/3 304/1/3
f 308/1/3 307/1/3 306/1/3
f 309/1/3 307/1/3 308/1/3
f 312/1/3 311/1/3 310/1/3
f 313/1/3 311/1/3 312/1/3
f 316/1/3 315/1/3 314/1/3
f 318/1/3 316/1/3 314/1/3
f 318/1/3 317/1/3 316/1/3
f 319/1/3 317/1/3 318/1/3
f 322/1/3 321/1/3 320/1/3
f 323/1/3 321/1/3 322/1/3
f 327/1/3 325/1/3 324/1/3
f 328/1/3 325/1/3 327/1/3
f 329/1/3 327/1/3 326/1/3
f 330/1/3 327/1/3 329/1/3
f 333/1/3 332/1/3 331/1/3
f 334/1/3 332/1/3 333/1/3
f 337/1/3 336/1/3 335/1/3
f 338/1/3 336/1/3 337/1/3
f 341/1/3 339/1/3 338/1/3
f 342/1/3 339/1/3 341/1/3
f 343/1/3 341/1/3 340/1/3
f 344/1/3 341/1/3 343/1/3
f 347/1/3 346/1/3 345/1/3
f 348/1/3 346/1/3 347/1/3
f 351/1/3 350/1/3 349/1/3
f 352/1/3 350/1/3 351/1/3
f 356/1/3 354/1/3 353/1/3
f 359/1/3 356/1/3 355/1/3
f 360/1/3 354/1/3 356/1/3
f 360/1/3 356/1/3 359/1/3
f 361/1/3 358/1/3 357/1/3
f 362/1/3 358/1/3 361/1/3
f 366/1/3 364/1/3 363/1/3
f 367/1/3 366/1/3 365/1/3
f 368/1/3 364/1/3 366/1/3
f 368/1/3 366/1/3 367/1/3
f 371/1/3 370/1/3 369/1/3
f 372/1/3 370/1/3 371/1/3
f 373/1/4 374/1/4 376/1/4
f 376/1/4 374/1/4 377/1/4
f 375/1/4 376/1/4 378/1/4
f 378/1/4 376/1/4 379/1/4
f 380/1/4 381/1/4 382/1/4
f 382/1/4 381/1/4 383/1/4
f 384/1/4 385/1/4 386/1/4
f 386/1/4 385/1/4 387/1/4
f 388/1/4 389/1/4 392/1/4
f 392/1/4 389/1/4 393/1/4
f 390/1/4 391/1/4 394/1/4
f 394/1/4 391/1/4 395/1/4
f 396/1/4 397/1/4 398/1/4
f 398/1/4 397/1/4 399/1/4
f 400/1/4 401/1/4 402/1/4
f 402/1/4 401/1/4 403/1/4
f 404/1/4 405/1/4 406/1/4
f 406/1/4 405/1/4 407/1/4
f 408/1/4 409/1/4 410/1/4
f 410/1/4 409/1/4 411/1/4
f 412/1/4 413/1/4 414/1/4
f 414/1/4 413/1/4 415/1/4
f 415/1/4 416/1/4 417/1/4
f 417/1/4 416/1/4 418/1/4
f 418/1/4 416/1/4 419/1/4
f 419/1/4 420/1/4 421/1/4
f 418/1/4 419/1/4 421/1/4
f 421/1/4 420/1/4 422/1/4
f 423/1/4 424/1/4 425/1/4
f 425/1/4 424/1/4 426/1/4
f 418/1/4 421/1/4 428/1/4
f 428/1/4 421/1/4 429/1/4
f 427/1/4 428/1/4 433/1/4
f 433/1/4 428/1/4 434/1/4
f 430/1/4 431/1/4 435/1/4
f 435/1/4 431/1/4 436/1/4
f 432/1/4 433/1/4 437/1/4
f 437/1/4 433/1/4 438/1/4
f 439/1/4 440/1/4 441/1/4
f 441/1/4 440/1/4 442/1/4
f 442/1/4 443/1/4 444/1/4
f 446/1/4 447/1/4 448/1/4
f 448/1/4 447/1/4 449/1/4
f 442/1/4 444/1/4 450/1/4
f 444/1/4 445/1/4 450/1/4
f 450/1/4 445/1/4 451/1/4
f 446/1/4 448/1/4 452/1/4
f 452/1/4 448/1/4 453/1/4
f 442/1/4 450/1/4 455/1/4
f 455/1/4 450/1/4 456/1/4
f 454/1/4 455/1/4 457/1/4
f 457/1/4 455/1/4 458/1/4
f 459/1/4 460/1/4 461/1/4
f 461/1/4 460/1/4 462/1/4
f 462/1/4 460/1/4 466/1/4
f 463/1/4 464/1/4 467/1/4
f 467/1/4 464/1/4 468/1/4
f 465/1/4 466/1/4 469/1/4
f 466/1/4 460/1/4 470/1/4
f 469/1/4 466/1/4 470/1/4
f 463/1/4 467/1/4 471/1/4
f 471/1/4 467/1/4 472/1/4
f 473/1/4 474/1/4 475/1/4
f 475/1/4 474/1/4 476/1/4
f 477/1/4 478/1/4 479/1/4
f 479/1/4 478/1/4 480/1/4
f 481/1/4 482/1/4 484/1/4
f 484/1/4 482/1/4 485/1/4
f 483/1/4 484/1/4 487/1/4
f 485/1/4 486/1/4 487/1/4
f 484/1/4 485/1/4 487/1/4
f 487/1/4 486/1/4 488/1/4
f 483/1/4 487/1/4 489/1/4
f 489/1/4 487/1/4 490/1/4
f 494/1/5 492/1/5 491/1/5
f 495/1/5 492/1/5 494/1/5
f 498/1/5 494/1/5 493/1/5
f 498/1/5 496/1/5 495/1/5
f 498/1/5 495/1/5 494/1/5
f 500/1/5 498/1/5 497/1/5
f 502/1/5 500/1/5 499/1/5
f 503/1/5 496/1/5 498/1/5
f 503/1/5 498/1/5 500/1/5
f 503/1/5 500/1/5 502/1/5
f 504/1/5 496/1/5 503/1/5
f 505/1/5 502/1/5 501/1/5
f 505/1/5 503/1/5 502/1/5
f 506/1/5 503/1/5 505/1/5
f 507/1/5 505/1/5 501/1/5
f 508/1/5 505/1/5 507/1/5
f 509/1/5 507/1/5 501/1/5
f 510/1/5 507/1/5 509/1/5
f 511/1/5 507/1/5 510/1/5
f 513/1/5 511/1/5 510/1/5
f 513/1/5 512/1/5 511/1/5
f 514/1/5 512/1/5 513/1/5
f 515/1/5 512/1/5 514/1/5
f 516/1/5 512/1/5 515/1/5
f 517/1/5 515/1/5 514/1/5
f 518/1/5 515/1/5 517/1/5
f 519/1/5 515/1/5 518/1/5
f 520/1/5 515/1/5 519/1/5
f 521/1/5 519/1/5 518/1/5
f 522/1/5 519/1/5 521/1/5
f 525/1/5 524/1/5 523/1/5
f 526/1/5 524/1/5 525/1/5
f 529/1/5 528/1/5 527/1/5
f 530/1/5 528/1/5 529/1/5
f 534/1/5 532/1/5 531/1/5
f 535/1/5 534/1/5 533/1/5
f 536/1/5 532/1/5 534/1/5
f 536/1/5 534/1/5 535/1/5
f 540/1/5 538/1/5 537/1/5
f 540/1/5 539/1/5 538/1/5
f 541/1/5 539/1/5 540/1/5
f 546/1/5 543/1/5 542/1/5
f 547/1/5 543/1/5 546/1/5
f 548/1/5 545/1/5 544/1/5
f 549/1/5 545/1/5 548/1/5
f 550/1/6 551/1/6 553/1/6
f 553/1/6 551/1/6 554/1/6
f 552/1/6 553/1/6 556/1/6
f 556/1/6 553/1/6 557/1/6
f 555/1/6 556/1/6 561/1/6
f 561/1/6 556/1/6 562/1/6
f 558/1/6 559/1/6 563/1/6
f 563/1/6 559/1/6 564/1/6
f 560/1/6 561/1/6 565/1/6
f 565/1/6 561/1/6 566/1/6
f 567/1/6 568/1/6 570/1/6
f 570/1/6 568/1/6 571/1/6
f 569/1/6 570/1/6 575/1/6
f 573/1/6 574/1/6 576/1/6
f 576/1/6 574/1/6 577/1/6
f 575/1/6 570/1/6 578/1/6
f 578/1/6 570/1/6 579/1/6
f 571/1/6 572/1/6 580/1/6
f 580/1/6 572/1/6 581/1/6
f 579/1/6 580/1/6 582/1/6
f 582/1/6 580/1/6 583/1/6
f 584/1/6 585/1/6 586/1/6
f 586/1/6 585/1/6 587/1/6
f 588/1/6 589/1/6 590/1/6
f 590/1/6 589/1/6 591/1/6
f 594/1/6 595/1/6 597/1/6
f 597/1/6 595/1/6 598/1/6
f 592/1/6 593/1/6 599/1/6
f 599/1/6 593/1/6 600/1/6
f 597/1/6 598/1/6 602/1/6
f 596/1/6 597/1/6 602/1/6
f 598/1/6 599/1/6 602/1/6
f 602/1/6 599/1/6 603/1/6
f 601/1/6 602/1/6 605/1/6
f 605/1/6 602/1/6 606/1/6
f 603/1/6 604/1/6 607/1/6
f 607/1/6 604/1/6 608/1/6
f 608/1/6 604/1/6 611/1/6
f 611/1/6 604/1/6 612/1/6
f 613/1/6 614/1/6 615/1/6
f 615/1/6 614/1/6 616/1/6
f 609/1/6 610/1/6 617/1/6
f 617/1/6 610/1/6 618/1/6
f 619/1/6 620/1/6 621/1/6
f 621/1/6 620/1/6 622/1/6
f 623/1/6 624/1/6 625/1/6
f 625/1/6 624/1/6 626/1/6
f 627/1/6 628/1/6 630/1/6
f 630/1/6 628/1/6 631/1/6
f 629/1/6 630/1/6 633/1/6
f 631/1/6 632/1/6 633/1/6
f 630/1/6 631/1/6 633/1/6
f 633/1/6 632/1/6 634/1/6
f 634/1/6 632/1/6 635/1/6
f 635/1/6 632/1/6 636/1/6
f 634/1/6 635/1/6 637/1/6
f 637/1/6 635/1/6 638/1/6
f 629/1/6 633/1/6 639/1/6
f 639/1/6 633/1/6 640/1/6
f 641/1/6 642/1/6 645/1/6
f 645/1/6 642/1/6 646/1/6
f 643/1/6 644/1/6 647/1/6
f 647/1/6 644/1/6 648/1/6
f 646/1/6 647/1/6 649/1/6
f 649/1/6 647/1/6 650/1/6
f 651/1/6 652/1/6 653/1/6
f 653/1/6 652/1/6 654/1/6
f 655/1/6 656/1/6 659/1/6
f 659/1/6 656/1/6 660/1/6
f 657/1/6 658/1/6 663/1/6
f 663/1/6 658/1/6 664/1/6
f 660/1/6 661/1/6 665/1/6
f 665/1/6 661/1/6 666/1/6
f 662/1/6 663/1/6 667/1/6
f 667/1/6 663/1/6 668/1/6
f 669/1/6 670/1/6 672/1/6
f 672/1/6 670/1/6 673/1/6
f 671/1/6 672/1/6 674/1/6
f 674/1/6 672/1/6 675/1/6
f 676/1/6 677/1/6 678/1/6
f 678/1/6 677/1/6 679/1/6
f 680/1/6 681/1/6 683/1/6
f 683/1/6 681/1/6 684/1/6
f 684/1/6 681/1/6 685/1/6
f 682/1/6 683/1/6 687/1/6
f 683/1/6 684/1/6 687/1/6
f 687/1/6 684/1/6 688/1/6
f 685/1/6 686/1/6 689/1/6
f 689/1/6 686/1/6 690/1/6
f 682/1/6 687/1/6 691/1/6
f 691/1/6 687/1/6 692/1/6
f 693/1/6 694/1/6 696/1/6
f 696/1/6 694/1/6 697/1/6
f 697/1/6 698/1/6 699/1/6
f 699/1/6 698/1/6 700/1/6
f 695/1/6 696/1/6 701/1/6
f 701/1/6 696/1/6 702/1/6
f 703/1/6 704/1/6 705/1/6
f 705/1/6 704/1/6 706/1/6
f 707/1/6 708/1/6 709/1/6
f 709/1/6 708/1/6 710/1/6
f 711/1/6 712/1/6 713/1/6
f 713/1/6 712/1/6 714/1/6
f 711/1/6 713/1/6 715/1/6
f 715/1/6 713/1/6 716/1/6
f 717/1/6 718/1/6 719/1/6
f 719/1/6 718/1/6 720/1/6
f 717/1/6 719/1/6 723/1/6
f 723/1/6 719/1/6 724/1/6
f 721/1/6 722/1/6 725/1/6
f 725/1/6 722/1/6 726/1/6
f 727/1/6 728/1/6 729/1/6
f 729/1/6 728/1/6 730/1/6
f 727/1/6 729/1/6 731/1/6
f 731/1/6 729/1/6 732/1/6
