# MagicaVoxel @ ephtracy

# material
mtllib kitty doll arm right.mtl
usemtl palette

# normals
vn -1 0 0
vn 1 0 0
vn 0 0 1
vn 0 0 -1
vn 0 -1 0
vn 0 1 0

# texcoords
vt 0.212891 0.5

# verts
v -3.5 2 -0
v -3.5 2 -1
v -3.5 3 -0
v -3.5 3 -1
v -2.5 1 -0
v -2.5 1 -1
v -2.5 2 -0
v -2.5 2 -1
v -1.5 0 -0
v -1.5 0 -1
v -1.5 1 -0
v -1.5 1 -1
v -1.5 3 -0
v -1.5 3 -1
v -1.5 4 -0
v -1.5 4 -1
v -0.5 4 -0
v -0.5 4 -1
v -0.5 5 -0
v -0.5 5 -1
v 0.5 5 -0
v 0.5 5 -1
v 0.5 6 -0
v 0.5 6 -1
v 1.5 5 1
v 1.5 5 -0
v 1.5 6 -0
v 1.5 6 -1
v 1.5 7 1
v 1.5 7 -1
v -0.5 0 -0
v -0.5 0 -1
v -0.5 3 -0
v -0.5 3 -1
v 0.5 3 -0
v 0.5 3 -1
v 0.5 4 -0
v 0.5 4 -1
v 2.5 4 -0
v 2.5 4 -1
v 2.5 5 1
v 2.5 5 -0
v 2.5 5 -1
v 2.5 6 1
v 2.5 6 -0
v 3.5 5 -0
v 3.5 5 -1
v 3.5 6 1
v 3.5 6 -0
v 3.5 7 1
v 3.5 7 -1
v 1.5 5 1
v 1.5 7 1
v 2.5 5 1
v 2.5 6 1
v 3.5 6 1
v 3.5 7 1
v -3.5 2 -0
v -3.5 3 -0
v -2.5 1 -0
v -2.5 2 -0
v -1.5 0 -0
v -1.5 1 -0
v -1.5 3 -0
v -1.5 4 -0
v -0.5 0 -0
v -0.5 3 -0
v -0.5 4 -0
v -0.5 5 -0
v 0.5 3 -0
v 0.5 4 -0
v 0.5 5 -0
v 0.5 6 -0
v 1.5 5 -0
v 1.5 6 -0
v 2.5 4 -0
v 2.5 5 -0
v 2.5 6 -0
v 3.5 5 -0
v 3.5 6 -0
v -3.5 2 -1
v -3.5 3 -1
v -2.5 1 -1
v -2.5 2 -1
v -1.5 0 -1
v -1.5 1 -1
v -1.5 3 -1
v -1.5 4 -1
v -0.5 0 -1
v -0.5 3 -1
v -0.5 4 -1
v -0.5 5 -1
v 0.5 3 -1
v 0.5 4 -1
v 0.5 5 -1
v 0.5 6 -1
v 1.5 6 -1
v 1.5 7 -1
v 2.5 4 -1
v 2.5 5 -1
v 3.5 5 -1
v 3.5 7 -1
v -1.5 0 -0
v -0.5 0 -0
v -1.5 0 -1
v -0.5 0 -1
v -2.5 1 -0
v -1.5 1 -0
v -2.5 1 -1
v -1.5 1 -1
v -3.5 2 -0
v -2.5 2 -0
v -3.5 2 -1
v -2.5 2 -1
v -0.5 3 -0
v 0.5 3 -0
v -0.5 3 -1
v 0.5 3 -1
v 0.5 4 -0
v 2.5 4 -0
v 0.5 4 -1
v 2.5 4 -1
v 1.5 5 1
v 2.5 5 1
v 1.5 5 -0
v 2.5 5 -0
v 3.5 5 -0
v 2.5 5 -1
v 3.5 5 -1
v 2.5 6 1
v 3.5 6 1
v 2.5 6 -0
v 3.5 6 -0
v -3.5 3 -0
v -1.5 3 -0
v -3.5 3 -1
v -1.5 3 -1
v -1.5 4 -0
v -0.5 4 -0
v -1.5 4 -1
v -0.5 4 -1
v -0.5 5 -0
v 0.5 5 -0
v -0.5 5 -1
v 0.5 5 -1
v 0.5 6 -0
v 1.5 6 -0
v 0.5 6 -1
v 1.5 6 -1
v 1.5 7 1
v 3.5 7 1
v 1.5 7 -1
v 3.5 7 -1

# faces
f 3/1/1 2/1/1 1/1/1
f 4/1/1 2/1/1 3/1/1
f 7/1/1 6/1/1 5/1/1
f 8/1/1 6/1/1 7/1/1
f 11/1/1 10/1/1 9/1/1
f 12/1/1 10/1/1 11/1/1
f 15/1/1 14/1/1 13/1/1
f 16/1/1 14/1/1 15/1/1
f 19/1/1 18/1/1 17/1/1
f 20/1/1 18/1/1 19/1/1
f 23/1/1 22/1/1 21/1/1
f 24/1/1 22/1/1 23/1/1
f 27/1/1 26/1/1 25/1/1
f 29/1/1 27/1/1 25/1/1
f 29/1/1 28/1/1 27/1/1
f 30/1/1 28/1/1 29/1/1
f 31/1/2 32/1/2 33/1/2
f 33/1/2 32/1/2 34/1/2
f 35/1/2 36/1/2 37/1/2
f 37/1/2 36/1/2 38/1/2
f 39/1/2 40/1/2 42/1/2
f 42/1/2 40/1/2 43/1/2
f 41/1/2 42/1/2 44/1/2
f 44/1/2 42/1/2 45/1/2
f 46/1/2 47/1/2 49/1/2
f 48/1/2 49/1/2 50/1/2
f 49/1/2 47/1/2 51/1/2
f 50/1/2 49/1/2 51/1/2
f 54/1/3 53/1/3 52/1/3
f 55/1/3 53/1/3 54/1/3
f 56/1/3 53/1/3 55/1/3
f 57/1/3 53/1/3 56/1/3
f 61/1/3 59/1/3 58/1/3
f 63/1/3 61/1/3 60/1/3
f 64/1/3 59/1/3 61/1/3
f 64/1/3 61/1/3 63/1/3
f 66/1/3 63/1/3 62/1/3
f 66/1/3 65/1/3 64/1/3
f 66/1/3 64/1/3 63/1/3
f 67/1/3 65/1/3 66/1/3
f 68/1/3 65/1/3 67/1/3
f 70/1/3 69/1/3 68/1/3
f 70/1/3 68/1/3 67/1/3
f 71/1/3 69/1/3 70/1/3
f 72/1/3 69/1/3 71/1/3
f 74/1/3 73/1/3 72/1/3
f 74/1/3 72/1/3 71/1/3
f 75/1/3 73/1/3 74/1/3
f 76/1/3 74/1/3 71/1/3
f 77/1/3 74/1/3 76/1/3
f 79/1/3 78/1/3 77/1/3
f 80/1/3 78/1/3 79/1/3
f 81/1/4 82/1/4 84/1/4
f 83/1/4 84/1/4 86/1/4
f 84/1/4 82/1/4 87/1/4
f 86/1/4 84/1/4 87/1/4
f 85/1/4 86/1/4 89/1/4
f 87/1/4 88/1/4 89/1/4
f 86/1/4 87/1/4 89/1/4
f 89/1/4 88/1/4 90/1/4
f 90/1/4 88/1/4 91/1/4
f 91/1/4 92/1/4 93/1/4
f 90/1/4 91/1/4 93/1/4
f 93/1/4 92/1/4 94/1/4
f 94/1/4 92/1/4 95/1/4
f 95/1/4 96/1/4 97/1/4
f 94/1/4 95/1/4 97/1/4
f 94/1/4 97/1/4 99/1/4
f 97/1/4 98/1/4 99/1/4
f 99/1/4 98/1/4 100/1/4
f 100/1/4 98/1/4 101/1/4
f 101/1/4 98/1/4 102/1/4
f 105/1/5 104/1/5 103/1/5
f 106/1/5 104/1/5 105/1/5
f 109/1/5 108/1/5 107/1/5
f 110/1/5 108/1/5 109/1/5
f 113/1/5 112/1/5 111/1/5
f 114/1/5 112/1/5 113/1/5
f 117/1/5 116/1/5 115/1/5
f 118/1/5 116/1/5 117/1/5
f 121/1/5 120/1/5 119/1/5
f 122/1/5 120/1/5 121/1/5
f 125/1/5 124/1/5 123/1/5
f 126/1/5 124/1/5 125/1/5
f 128/1/5 127/1/5 126/1/5
f 129/1/5 127/1/5 128/1/5
f 132/1/5 131/1/5 130/1/5
f 133/1/5 131/1/5 132/1/5
f 134/1/6 135/1/6 136/1/6
f 136/1/6 135/1/6 137/1/6
f 138/1/6 139/1/6 140/1/6
f 140/1/6 139/1/6 141/1/6
f 142/1/6 143/1/6 144/1/6
f 144/1/6 143/1/6 145/1/6
f 146/1/6 147/1/6 148/1/6
f 148/1/6 147/1/6 149/1/6
f 150/1/6 151/1/6 152/1/6
f 152/1/6 151/1/6 153/1/6
